<svg width="32" height="32" viewBox="0 0 32 32" fill="none" xmlns="http://www.w3.org/2000/svg">
<path d="M16.6557 7.53393H18.1334C18.1334 6.78946 17.5796 6.16125 16.841 6.06791C16.1024 5.97458 15.4097 6.44527 15.2245 7.16634L16.6557 7.53393ZM15.7409 11.096L14.3096 10.7284C14.1183 11.4736 14.5307 12.2409 15.2577 12.4924C15.9848 12.744 16.7832 12.3955 17.0933 11.6914L15.7409 11.096ZM16.0458 8.1276L16.3282 9.57805C16.8276 9.48083 17.2418 9.13356 17.4247 8.65882L16.0458 8.1276ZM9.33684 2.78453L9.07933 1.32947C8.37354 1.45438 7.85917 2.06778 7.85917 2.78453L9.33684 2.78453ZM16.6557 6.94025L15.2768 7.47147C15.4597 7.94621 15.874 8.29348 16.3734 8.3907L16.6557 6.94025ZM23.3647 1.59719L24.8424 1.59718C24.8424 0.880432 24.328 0.267032 23.6222 0.142123L23.3647 1.59719ZM10.5204 14.4367V12.959C9.77684 12.959 9.14907 13.5116 9.05471 14.2492L10.5204 14.4367ZM21.4797 14.4367L22.9454 14.2492C22.8511 13.5116 22.2233 12.959 21.4797 12.959V14.4367ZM21.9603 18.1933L20.4945 18.3808L20.4946 18.3814L21.9603 18.1933ZM22.1992 19.2223L23.5977 18.7452L23.5977 18.7452L22.1992 19.2223ZM24.0261 24.5776L22.6276 25.0547L22.6277 25.055L24.0261 24.5776ZM24.2803 25.7377L25.7503 25.5873L25.7503 25.5869L24.2803 25.7377ZM24.7675 30.4977V31.9753C25.1856 31.9753 25.5841 31.7982 25.8643 31.4879C26.1444 31.1776 26.28 30.7631 26.2375 30.3472L24.7675 30.4977ZM7.23267 30.4977L5.76267 30.3472C5.7201 30.7631 5.85571 31.1776 6.13589 31.4879C6.41606 31.7982 6.81458 31.9753 7.23267 31.9753V30.4977ZM7.71981 25.7383L6.24982 25.5877L6.24981 25.5878L7.71981 25.7383ZM7.97406 24.5776L9.37249 25.055L9.37259 25.0547L7.97406 24.5776ZM9.80097 19.2223L8.40245 18.7452L8.40244 18.7452L9.80097 19.2223ZM10.0399 18.1933L11.5055 18.3814L11.5056 18.3808L10.0399 18.1933ZM15.0171 23.2998C14.9447 22.4869 14.2271 21.8866 13.4142 21.959C12.6013 22.0313 12.001 22.7489 12.0733 23.5618L15.0171 23.2998ZM20.6111 23.6898C20.7542 22.8863 20.2188 22.119 19.4153 21.976C18.6118 21.833 17.8446 22.3684 17.7015 23.1719L20.6111 23.6898ZM15.1781 7.53393C15.1781 8.03378 15.0114 8.74152 14.7927 9.41552C14.6897 9.73307 14.5862 10.0102 14.5087 10.2071C14.4702 10.3051 14.4385 10.382 14.4173 10.4328C14.4066 10.4582 14.3986 10.477 14.3937 10.4885C14.3912 10.4943 14.3895 10.4982 14.3886 10.5002C14.3882 10.5012 14.3879 10.5018 14.3879 10.5018C14.3879 10.5019 14.3879 10.5018 14.388 10.5016C14.3881 10.5014 14.3881 10.5013 14.3882 10.5011C14.3882 10.501 14.3883 10.5009 14.3883 10.5009C14.3884 10.5007 14.3885 10.5005 15.7409 11.096C17.0933 11.6914 17.0933 11.6912 17.0934 11.691C17.0935 11.691 17.0935 11.6908 17.0936 11.6906C17.0937 11.6903 17.0939 11.69 17.094 11.6896C17.0944 11.6889 17.0947 11.6881 17.0952 11.6871C17.096 11.6851 17.0971 11.6827 17.0984 11.6797C17.101 11.6738 17.1044 11.6659 17.1086 11.6561C17.1171 11.6364 17.1287 11.6091 17.1431 11.5747C17.1718 11.5061 17.2117 11.4091 17.2589 11.2891C17.353 11.0501 17.4782 10.715 17.6039 10.3275C17.8426 9.59155 18.1334 8.51826 18.1334 7.53393H15.1781ZM17.1721 11.4636L18.0869 7.90152L15.2245 7.16634L14.3096 10.7284L17.1721 11.4636ZM16.0458 8.1276C17.4247 8.65882 17.425 8.65812 17.4253 8.6574C17.4253 8.65715 17.4256 8.65642 17.4258 8.65592C17.4262 8.65491 17.4266 8.65386 17.427 8.65278C17.4278 8.6506 17.4287 8.64827 17.4297 8.64579C17.4315 8.64082 17.4336 8.63522 17.4359 8.62901C17.4404 8.61659 17.4458 8.60171 17.4518 8.58445C17.4637 8.54995 17.4783 8.50581 17.4945 8.45281C17.5267 8.34706 17.5655 8.20447 17.6018 8.03141C17.6736 7.68809 17.7386 7.20817 17.7125 6.6487C17.6588 5.49811 17.2143 4.0401 15.7727 2.83726L13.8794 5.10651C14.5723 5.68469 14.7378 6.30454 14.7603 6.78655C14.7723 7.04339 14.7421 7.26845 14.7091 7.42605C14.6929 7.50344 14.6769 7.56028 14.6675 7.59136C14.6628 7.60677 14.6598 7.61539 14.6594 7.61655C14.6592 7.61712 14.6597 7.61578 14.6609 7.61246C14.6615 7.6108 14.6623 7.60863 14.6633 7.60596C14.6638 7.60462 14.6643 7.60316 14.665 7.60156C14.6653 7.60076 14.6656 7.59993 14.6659 7.59907C14.6661 7.59864 14.6663 7.59796 14.6664 7.59775C14.6667 7.59707 14.6669 7.59638 16.0458 8.1276ZM15.7727 2.83726C14.3612 1.65962 12.6258 1.3196 11.3799 1.23597C10.7392 1.19296 10.1789 1.21444 9.77649 1.24663C9.57426 1.26281 9.40909 1.28193 9.29032 1.29773C9.23086 1.30564 9.18281 1.31274 9.14731 1.31828C9.12956 1.32105 9.11492 1.32343 9.10355 1.32533C9.09786 1.32627 9.09299 1.3271 9.08895 1.3278C9.08693 1.32814 9.08511 1.32846 9.08351 1.32874C9.08271 1.32888 9.08196 1.32901 9.08126 1.32913C9.08091 1.32919 9.08043 1.32928 9.08025 1.32931C9.07979 1.32939 9.07933 1.32947 9.33684 2.78453C9.59436 4.2396 9.59393 4.23967 9.59351 4.23975C9.59339 4.23977 9.59298 4.23984 9.59273 4.23988C9.59224 4.23997 9.5918 4.24005 9.5914 4.24012C9.59061 4.24025 9.59002 4.24036 9.58962 4.24042C9.58882 4.24056 9.58879 4.24057 9.58951 4.24044C9.59097 4.2402 9.59543 4.23947 9.60276 4.23832C9.61745 4.23603 9.64355 4.23212 9.67998 4.22728C9.753 4.21756 9.86658 4.20422 10.0122 4.19257C10.3055 4.1691 10.7171 4.15348 11.1819 4.18468C12.147 4.24946 13.1562 4.50312 13.8794 5.10651L15.7727 2.83726ZM9.33684 2.78453C7.85917 2.78453 7.85917 2.7851 7.85917 2.78567C7.85917 2.78588 7.85917 2.78646 7.85917 2.78687C7.85917 2.78769 7.85918 2.78854 7.85918 2.78944C7.85918 2.79122 7.85919 2.79316 7.8592 2.79524C7.85923 2.79942 7.85927 2.80419 7.85934 2.80954C7.85947 2.82026 7.8597 2.83332 7.86008 2.84865C7.86085 2.8793 7.86224 2.91905 7.86476 2.96714C7.86977 3.06321 7.87928 3.19323 7.89729 3.351C7.93318 3.66539 8.00358 4.09673 8.14268 4.59318C8.41934 5.58059 8.9829 6.87683 10.1359 7.99912L12.1973 5.88138C11.5205 5.22265 11.1692 4.44103 10.9884 3.79584C10.8988 3.47598 10.8549 3.20234 10.8336 3.01582C10.823 2.92313 10.8182 2.85372 10.8161 2.81296C10.815 2.79264 10.8146 2.77963 10.8145 2.77462C10.8144 2.77212 10.8144 2.77164 10.8145 2.77326C10.8145 2.77407 10.8145 2.7754 10.8145 2.77728C10.8145 2.77822 10.8145 2.77929 10.8145 2.7805C10.8145 2.7811 10.8145 2.78174 10.8145 2.78241C10.8145 2.78275 10.8145 2.78328 10.8145 2.78345C10.8145 2.78399 10.8145 2.78453 9.33684 2.78453ZM10.1359 7.99912C11.405 9.23445 13.0279 9.58894 14.182 9.67536C14.7757 9.71981 15.2968 9.69757 15.671 9.66446C15.8593 9.64779 16.0138 9.62807 16.1257 9.61166C16.1817 9.60345 16.2272 9.59603 16.2613 9.59018C16.2783 9.58725 16.2925 9.58471 16.3037 9.58266C16.3093 9.58164 16.3141 9.58073 16.3182 9.57996C16.3203 9.57957 16.3221 9.57922 16.3238 9.5789C16.3246 9.57874 16.3254 9.57859 16.3261 9.57845C16.3265 9.57837 16.327 9.57827 16.3272 9.57824C16.3277 9.57814 16.3282 9.57805 16.0458 8.1276C15.7635 6.67716 15.7639 6.67707 15.7644 6.67698C15.7645 6.67695 15.765 6.67687 15.7652 6.67681C15.7658 6.67671 15.7663 6.67661 15.7667 6.67652C15.7677 6.67634 15.7684 6.6762 15.769 6.67609C15.7701 6.67588 15.7706 6.6758 15.7703 6.67584C15.7699 6.67592 15.7667 6.6765 15.761 6.67749C15.7495 6.67947 15.7277 6.68306 15.6968 6.6876C15.6347 6.69671 15.5366 6.70945 15.4105 6.72061C15.1557 6.74316 14.8001 6.75802 14.4027 6.72826C13.5746 6.66626 12.7579 6.42708 12.1973 5.88138L10.1359 7.99912ZM16.6557 6.94025C18.0346 6.40903 18.0349 6.40972 18.0351 6.4104C18.0352 6.41062 18.0355 6.41129 18.0356 6.41172C18.036 6.41258 18.0363 6.41341 18.0366 6.41421C18.0372 6.41581 18.0378 6.41727 18.0383 6.41861C18.0393 6.42129 18.0401 6.42345 18.0407 6.42511C18.0419 6.42843 18.0423 6.42977 18.0422 6.4292C18.0417 6.42804 18.0388 6.41942 18.0341 6.40401C18.0246 6.37294 18.0087 6.3161 17.9925 6.2387C17.9595 6.0811 17.9292 5.85604 17.9412 5.59921C17.9637 5.11719 18.1292 4.49734 18.8222 3.91916L16.9289 1.64991C15.4872 2.85275 15.0428 4.31076 14.9891 5.46135C14.9629 6.02082 15.0279 6.50074 15.0998 6.84406C15.136 7.01712 15.1749 7.15972 15.2071 7.26546C15.2232 7.31846 15.2378 7.3626 15.2498 7.3971C15.2558 7.41436 15.2611 7.42925 15.2657 7.44166C15.2679 7.44787 15.27 7.45347 15.2719 7.45844C15.2728 7.46093 15.2737 7.46326 15.2745 7.46543C15.2749 7.46652 15.2753 7.46756 15.2757 7.46857C15.2759 7.46907 15.2762 7.4698 15.2763 7.47005C15.2766 7.47077 15.2768 7.47147 16.6557 6.94025ZM18.8222 3.91916C19.5454 3.31577 20.5546 3.06211 21.5196 2.99733C21.9844 2.96613 22.3961 2.98175 22.6894 3.00522C22.835 3.01687 22.9485 3.03022 23.0216 3.03993C23.058 3.04477 23.0841 3.04868 23.0988 3.05097C23.1061 3.05212 23.1106 3.05285 23.112 3.0531C23.1128 3.05322 23.1127 3.05321 23.1119 3.05308C23.1115 3.05301 23.1109 3.0529 23.1101 3.05277C23.1097 3.0527 23.1093 3.05262 23.1088 3.05253C23.1086 3.05249 23.1082 3.05242 23.108 3.0524C23.1076 3.05232 23.1072 3.05225 23.3647 1.59719C23.6222 0.142123 23.6218 0.142042 23.6213 0.141959C23.6211 0.141929 23.6206 0.141844 23.6203 0.141782C23.6196 0.14166 23.6188 0.141529 23.618 0.141389C23.6164 0.141109 23.6146 0.140795 23.6126 0.140447C23.6086 0.139752 23.6037 0.138925 23.598 0.137977C23.5866 0.136081 23.572 0.133701 23.5542 0.130931C23.5187 0.125395 23.4707 0.118289 23.4112 0.110381C23.2925 0.0945834 23.1273 0.0754645 22.9251 0.0592846C22.5227 0.0270936 21.9623 0.00561351 21.3216 0.0486203C20.0758 0.132256 18.3404 0.472271 16.9289 1.64991L18.8222 3.91916ZM23.3647 1.59719C21.887 1.59719 21.887 1.59664 21.887 1.5961C21.887 1.59593 21.887 1.5954 21.887 1.59507C21.887 1.59439 21.887 1.59375 21.887 1.59315C21.887 1.59194 21.887 1.59087 21.887 1.58993C21.8871 1.58806 21.8871 1.58672 21.8871 1.58591C21.8871 1.58429 21.8871 1.58478 21.887 1.58727C21.8869 1.59229 21.8865 1.60529 21.8855 1.62562C21.8833 1.66637 21.8786 1.73579 21.868 1.82847C21.8467 2.01499 21.8027 2.28864 21.7131 2.60849C21.5323 3.25368 21.181 4.0353 20.5043 4.69404L22.5657 6.81177C23.7186 5.68948 24.2822 4.39324 24.5589 3.40583C24.698 2.90938 24.7684 2.47804 24.8043 2.16365C24.8223 2.00588 24.8318 1.87586 24.8368 1.77979C24.8393 1.7317 24.8407 1.69195 24.8415 1.6613C24.8418 1.64597 24.8421 1.63291 24.8422 1.62219C24.8423 1.61684 24.8423 1.61207 24.8423 1.60789C24.8424 1.60581 24.8424 1.60387 24.8424 1.60209C24.8424 1.60119 24.8424 1.60034 24.8424 1.59952C24.8424 1.59911 24.8424 1.59853 24.8424 1.59832C24.8424 1.59775 24.8424 1.59718 23.3647 1.59719ZM20.5043 4.69404C19.9437 5.23973 19.1269 5.47891 18.2989 5.54091C17.9015 5.57067 17.5458 5.55581 17.2911 5.53326C17.1649 5.5221 17.0669 5.50936 17.0048 5.50025C16.9738 5.49571 16.9521 5.49212 16.9406 5.49014C16.9348 5.48915 16.9317 5.48858 16.9312 5.48849C16.931 5.48845 16.9314 5.48853 16.9326 5.48875C16.9331 5.48885 16.9339 5.489 16.9348 5.48917C16.9353 5.48926 16.9358 5.48936 16.9363 5.48946C16.9366 5.48952 16.937 5.4896 16.9372 5.48963C16.9376 5.48972 16.9381 5.48981 16.6557 6.94025C16.3734 8.3907 16.3738 8.39079 16.3744 8.39089C16.3745 8.39093 16.375 8.39103 16.3754 8.3911C16.3762 8.39124 16.3769 8.39139 16.3778 8.39155C16.3794 8.39187 16.3813 8.39222 16.3833 8.39261C16.3874 8.39338 16.3923 8.39429 16.3979 8.39531C16.409 8.39737 16.4232 8.3999 16.4403 8.40283C16.4743 8.40868 16.5199 8.4161 16.5759 8.42432C16.6877 8.44072 16.8422 8.46044 17.0306 8.47711C17.4047 8.51022 17.9258 8.53247 18.5195 8.48801C19.6737 8.40159 21.2966 8.0471 22.5657 6.81177L20.5043 4.69404ZM10.5204 15.9143H21.4797V12.959H10.5204V15.9143ZM20.014 14.6242L20.4945 18.3808L23.426 18.0058L22.9454 14.2492L20.014 14.6242ZM20.4946 18.3814C20.5521 18.8297 20.6546 19.2713 20.8007 19.6995L23.5977 18.7452C23.5158 18.5051 23.4583 18.2572 23.4259 18.0052L20.4946 18.3814ZM20.8006 19.6994L22.6276 25.0547L25.4246 24.1005L23.5977 18.7452L20.8006 19.6994ZM22.6277 25.055C22.7201 25.3258 22.7813 25.6053 22.8104 25.8885L25.7503 25.5869C25.6984 25.0807 25.589 24.582 25.4245 24.1001L22.6277 25.055ZM22.8104 25.8882L23.2975 30.6481L26.2375 30.3472L25.7503 25.5873L22.8104 25.8882ZM24.7675 29.02H7.23267V31.9753H24.7675V29.02ZM8.70266 30.6481L9.1898 25.8887L6.24981 25.5878L5.76267 30.3472L8.70266 30.6481ZM9.18979 25.8889C9.21882 25.6055 9.28004 25.3258 9.37249 25.055L6.57563 24.1002C6.41104 24.5823 6.30171 25.0812 6.24982 25.5877L9.18979 25.8889ZM9.37259 25.0547L11.1995 19.6994L8.40244 18.7452L6.57553 24.1005L9.37259 25.0547ZM11.1995 19.6995C11.3456 19.2713 11.448 18.8297 11.5055 18.3814L8.57423 18.0052C8.54189 18.2572 8.48434 18.5052 8.40245 18.7452L11.1995 19.6995ZM11.5056 18.3808L11.9862 14.6242L9.05471 14.2492L8.57415 18.0058L11.5056 18.3808ZM12.0733 23.5618C12.1371 24.2776 12.4448 25.24 13.0833 26.0551C13.7594 26.9184 14.8436 27.6496 16.3508 27.6496V24.6942C15.9063 24.6942 15.6284 24.5118 15.4099 24.2329C15.1538 23.9059 15.0347 23.4978 15.0171 23.2998L12.0733 23.5618ZM16.3508 27.6496C17.8683 27.6496 18.9348 26.9084 19.5979 26.0421C20.223 25.2255 20.5035 24.2944 20.6111 23.6898L17.7015 23.1719C17.6465 23.4809 17.5002 23.9204 17.2511 24.2459C17.0399 24.5218 16.7849 24.6942 16.3508 24.6942V27.6496Z" fill="#009B22"/>
</svg>
