{
	"materials":[{
		"pbrMetallicRoughness":{
			"baseColorFactor":[0.8,
			0.8,
			0.8,
			1.0],
			"metallicFactor":0.0,
			"roughnessFactor":0.5
		},
		"emissiveFactor":[0.0,
		0.0,
		0.0],
		"alphaMode":"OPAQUE",
		"doubleSided":true,
		"name":"Mat.13"
	},
	{
		"pbrMetallicRoughness":{
			"baseColorFactor":[0.8,
			0.8,
			0.8,
			1.0],
			"metallicFactor":0.0,
			"roughnessFactor":0.5
		},
		"emissiveFactor":[0.0,
		0.0,
		0.0],
		"alphaMode":"OPAQUE",
		"doubleSided":true,
		"name":"Mat.23"
	},
	{
		"pbrMetallicRoughness":{
			"baseColorFactor":[0.8,
			0.8,
			0.8,
			1.0],
			"metallicFactor":0.0,
			"roughnessFactor":0.5
		},
		"emissiveFactor":[0.0,
		0.0,
		0.0],
		"alphaMode":"OPAQUE",
		"doubleSided":true,
		"name":"Mat.30"
	},
	{
		"pbrMetallicRoughness":{
			"baseColorFactor":[0.8,
			0.8,
			0.8,
			1.0],
			"metallicFactor":0.0,
			"roughnessFactor":0.5
		},
		"emissiveFactor":[0.0,
		0.0,
		0.0],
		"alphaMode":"OPAQUE",
		"doubleSided":true,
		"name":"Mat.29"
	},
	{
		"pbrMetallicRoughness":{
			"baseColorFactor":[0.8,
			0.8,
			0.8,
			1.0],
			"metallicFactor":0.0,
			"roughnessFactor":0.5
		},
		"emissiveFactor":[0.0,
		0.0,
		0.0],
		"alphaMode":"OPAQUE",
		"doubleSided":true,
		"name":"Mat.28"
	},
	{
		"pbrMetallicRoughness":{
			"baseColorFactor":[0.8,
			0.8,
			0.8,
			1.0],
			"metallicFactor":0.0,
			"roughnessFactor":0.5
		},
		"emissiveFactor":[0.0,
		0.0,
		0.0],
		"alphaMode":"OPAQUE",
		"doubleSided":true,
		"name":"Mat.26"
	},
	{
		"pbrMetallicRoughness":{
			"baseColorFactor":[0.8,
			0.8,
			0.8,
			1.0],
			"metallicFactor":0.0,
			"roughnessFactor":0.5
		},
		"emissiveFactor":[0.0,
		0.0,
		0.0],
		"alphaMode":"OPAQUE",
		"doubleSided":true,
		"name":"Mat.27"
	},
	{
		"pbrMetallicRoughness":{
			"baseColorFactor":[0.8,
			0.8,
			0.8,
			1.0],
			"metallicFactor":0.0,
			"roughnessFactor":0.5
		},
		"emissiveFactor":[0.0,
		0.0,
		0.0],
		"alphaMode":"OPAQUE",
		"doubleSided":true,
		"name":"Mat.25"
	},
	{
		"pbrMetallicRoughness":{
			"baseColorFactor":[0.8,
			0.8,
			0.8,
			1.0],
			"metallicFactor":0.0,
			"roughnessFactor":0.5
		},
		"emissiveFactor":[0.0,
		0.0,
		0.0],
		"alphaMode":"OPAQUE",
		"doubleSided":true,
		"name":"Mat.24"
	},
	{
		"pbrMetallicRoughness":{
			"baseColorFactor":[0.8,
			0.8,
			0.8,
			1.0],
			"metallicFactor":0.0,
			"roughnessFactor":0.5
		},
		"emissiveFactor":[0.0,
		0.0,
		0.0],
		"alphaMode":"OPAQUE",
		"doubleSided":true,
		"name":"Mat.33"
	},
	{
		"pbrMetallicRoughness":{
			"baseColorFactor":[0.8,
			0.8,
			0.8,
			1.0],
			"metallicFactor":0.0,
			"roughnessFactor":0.5
		},
		"emissiveFactor":[0.0,
		0.0,
		0.0],
		"alphaMode":"OPAQUE",
		"doubleSided":true,
		"name":"Mat.32"
	},
	{
		"pbrMetallicRoughness":{
			"baseColorFactor":[0.8551724137931034,
			0.6168643678160921,
			0.2052413793103448,
			1.0],
			"metallicFactor":0.0,
			"roughnessFactor":0.5
		},
		"emissiveFactor":[0.0,
		0.0,
		0.0],
		"alphaMode":"OPAQUE",
		"doubleSided":true,
		"name":"table"
	},
	{
		"pbrMetallicRoughness":{
			"baseColorFactor":[0.88,
			0.6960800000000001,
			0.37839999999999998,
			1.0],
			"metallicFactor":0.0,
			"roughnessFactor":0.5
		},
		"emissiveFactor":[0.0,
		0.0,
		0.0],
		"alphaMode":"OPAQUE",
		"doubleSided":true,
		"name":"bg"
	}],
	"nodes":[{
		"name":"Decor",
		"translation":[1.775411605834961,
		18.46656608581543,
		-16.161663055419923],
		"rotation":[0.0,
		0.0,
		0.0,
		-1.0],
		"scale":[1.0,
		1.0,
		1.0],
		"children":[1,
		4,
		16,
		19]
	},
	{
		"name":"tableau",
		"translation":[-1.8122820854187012,
		48.75197982788086,
		-94.06861114501953],
		"rotation":[0.0,
		0.0,
		0.0,
		-1.0],
		"scale":[1.0,
		1.0,
		1.0],
		"children":[2,
		3]
	},
	{
		"name":"sticker",
		"translation":[-0.03687044978141785,
		0.004046555142849684,
		0.37992751598358157],
		"rotation":[0.7071067690849304,
		-8.659560603426554e-17,
		0.7071067690849304,
		2.465190328815662e-32],
		"scale":[5.0,
		5.0,
		5.0],
		"mesh":0
	},
	{
		"name":"Cube",
		"translation":[0.03687044978141785,
		-0.004046555142849684,
		-0.37992751598358157],
		"rotation":[0.0,
		0.0,
		0.0,
		-1.0],
		"scale":[1.0,
		1.0,
		1.0],
		"mesh":1
	},
	{
		"name":"microscope",
		"translation":[52.68133544921875,
		-18.46656608581543,
		4.452350616455078],
		"rotation":[0.05190512165427208,
		-0.29436856508255007,
		0.1657092273235321,
		-0.9397837519645691],
		"scale":[1.75,
		1.75,
		1.75],
		"children":[5,
		6,
		7,
		8,
		9,
		10,
		15]
	},
	{
		"name":"Cylinder.3",
		"translation":[-2.315857172012329,
		10.566020011901856,
		-0.26021334528923037],
		"rotation":[-0.05190512165427208,
		0.29436856508255007,
		-0.1657092273235321,
		-0.9397837519645691],
		"scale":[0.5714285969734192,
		0.5714285969734192,
		0.5714285969734192],
		"mesh":2
	},
	{
		"name":"Tube",
		"translation":[-5.276021480560303,
		14.821185111999512,
		-8.881784197001253e-16],
		"rotation":[-1.3877787807814458e-17,
		-2.7755575615628916e-17,
		3.851859888774472e-34,
		-1.0],
		"scale":[1.0,
		1.0,
		1.0],
		"mesh":3
	},
	{
		"name":"support_microscope",
		"translation":[-2.6786906719207765,
		16.46529769897461,
		8.881784197001253e-16],
		"rotation":[-1.3877787807814458e-17,
		-2.7755575615628916e-17,
		3.851859888774472e-34,
		-1.0],
		"scale":[1.0,
		1.0,
		1.0],
		"mesh":4
	},
	{
		"name":"plate",
		"translation":[-5.302227973937988,
		8.65875244140625,
		-8.881784197001253e-16],
		"rotation":[-1.3877787807814458e-17,
		-2.7755575615628916e-17,
		3.851859888774472e-34,
		-1.0],
		"scale":[1.0,
		1.0,
		1.0],
		"mesh":5
	},
	{
		"name":"Cube",
		"translation":[-1.2516303062438965,
		5.013925075531006,
		1.7763568394002506e-15],
		"rotation":[0.0,
		0.0,
		0.0,
		-1.0],
		"scale":[1.0,
		1.0,
		1.0],
		"mesh":6
	},
	{
		"name":"Cloner",
		"translation":[3.7353572845458986,
		2.901789426803589,
		2.5],
		"rotation":[0.0,
		0.0,
		0.1736481785774231,
		0.9848077297210693],
		"scale":[1.0,
		1.0,
		1.0],
		"children":[11,
		13]
	},
	{
		"name":"side 0",
		"translation":[0.0,
		0.0,
		0.0],
		"rotation":[0.0,
		0.0,
		0.0,
		-1.0],
		"scale":[1.5,
		1.5,
		1.5],
		"children":[12]
	},
	{
		"name":"Cube",
		"mesh":7
	},
	{
		"name":"side 1",
		"translation":[0.0,
		0.0,
		-5.0],
		"rotation":[0.0,
		0.0,
		0.0,
		-1.0],
		"scale":[1.5,
		1.5,
		1.5],
		"children":[14]
	},
	{
		"name":"Cube",
		"mesh":8
	},
	{
		"name":"Cylinder",
		"translation":[-0.196743443608284,
		-0.0716087594628334,
		2.6645352591003758e-15],
		"rotation":[1.848665785558639e-17,
		2.4924053660798646e-17,
		0.1736481785774231,
		0.9848077297210693],
		"scale":[1.0,
		1.0,
		1.0],
		"mesh":9
	},
	{
		"name":"Plant",
		"translation":[-49.09364318847656,
		-11.81885051727295,
		18.853818893432618],
		"rotation":[0.0,
		0.0,
		0.0,
		-1.0],
		"scale":[1.5,
		1.5,
		1.5],
		"children":[17,
		18]
	},
	{
		"name":"leafs",
		"translation":[0.0,
		-0.02328178845345974,
		0.0],
		"rotation":[0.0,
		0.0,
		0.0,
		-1.0],
		"scale":[0.6666666865348816,
		0.6666666865348816,
		0.6666666865348816],
		"mesh":10
	},
	{
		"name":"pot",
		"translation":[0.0,
		0.034922681748867038,
		0.0],
		"rotation":[0.0,
		0.0,
		0.0,
		-1.0],
		"scale":[0.6666666865348816,
		0.6666666865348816,
		0.6666666865348816],
		"mesh":11
	},
	{
		"name":"BG",
		"translation":[-1.775411605834961,
		-18.46656608581543,
		70.76243591308594],
		"rotation":[0.0,
		0.0,
		0.0,
		-1.0],
		"scale":[1.0,
		1.0,
		1.0],
		"children":[20,
		21]
	},
	{
		"name":"table",
		"translation":[0.0,
		-3.549999952316284,
		-5.383718490600586],
		"rotation":[0.0,
		-0.008726535364985466,
		0.0,
		-0.9999619126319885],
		"scale":[1.0,
		1.0,
		1.0],
		"mesh":12
	},
	{
		"name":"bg",
		"translation":[0.0,
		3.7115683555603029,
		5.383718490600586],
		"rotation":[0.0,
		0.0,
		0.0,
		-1.0],
		"scale":[1.0,
		1.0,
		1.0],
		"children":[22]
	},
	{
		"name":"Plane",
		"translation":[0.0,
		-20.0,
		-180.0],
		"rotation":[0.0,
		0.0,
		0.0,
		-1.0],
		"scale":[1.0,
		1.0,
		1.0],
		"mesh":13
	}],
	"asset":{
		"version":"2.0",
		"generator":"Created using the official Cinema 4D glTF Exporter 1.000x284978"
	},
	"scenes":[{
		"nodes":[0]
	}],
	"meshes":[{
		"name":"sticker",
		"primitives":[{
			"attributes":{
				"POSITION":1,
				"NORMAL":2,
				"TEXCOORD_0":3
			},
			"indices":0,
			"material":0
		}]
	},
	{
		"name":"Cube",
		"primitives":[{
			"attributes":{
				"POSITION":5,
				"NORMAL":6,
				"TEXCOORD_0":7
			},
			"indices":4,
			"material":1
		}]
	},
	{
		"name":"Cylinder.3",
		"primitives":[{
			"attributes":{
				"POSITION":9,
				"NORMAL":10,
				"TEXCOORD_0":11
			},
			"indices":8,
			"material":2
		}]
	},
	{
		"name":"Tube",
		"primitives":[{
			"attributes":{
				"POSITION":13,
				"NORMAL":14,
				"TEXCOORD_0":15
			},
			"indices":12,
			"material":3
		}]
	},
	{
		"name":"support_microscope",
		"primitives":[{
			"attributes":{
				"POSITION":17,
				"NORMAL":18,
				"TEXCOORD_0":19
			},
			"indices":16,
			"material":4
		}]
	},
	{
		"name":"plate",
		"primitives":[{
			"attributes":{
				"POSITION":21,
				"NORMAL":22,
				"TEXCOORD_0":23
			},
			"indices":20,
			"material":5
		}]
	},
	{
		"name":"Cube",
		"primitives":[{
			"attributes":{
				"POSITION":25,
				"NORMAL":26,
				"TEXCOORD_0":27
			},
			"indices":24,
			"material":6
		}]
	},
	{
		"name":"Cube",
		"primitives":[{
			"attributes":{
				"POSITION":29,
				"NORMAL":30,
				"TEXCOORD_0":31
			},
			"indices":28,
			"material":7
		}]
	},
	{
		"name":"Cube",
		"primitives":[{
			"attributes":{
				"POSITION":33,
				"NORMAL":34,
				"TEXCOORD_0":35
			},
			"indices":32,
			"material":7
		}]
	},
	{
		"name":"Cylinder",
		"primitives":[{
			"attributes":{
				"POSITION":37,
				"NORMAL":38,
				"TEXCOORD_0":39
			},
			"indices":36,
			"material":8
		}]
	},
	{
		"name":"leafs",
		"primitives":[{
			"attributes":{
				"POSITION":41,
				"NORMAL":42,
				"TEXCOORD_0":43
			},
			"indices":40,
			"material":9
		}]
	},
	{
		"name":"pot",
		"primitives":[{
			"attributes":{
				"POSITION":45,
				"NORMAL":46,
				"TEXCOORD_0":47
			},
			"indices":44,
			"material":10
		}]
	},
	{
		"name":"table",
		"primitives":[{
			"attributes":{
				"POSITION":49,
				"NORMAL":50,
				"TEXCOORD_0":51
			},
			"indices":48,
			"material":11
		}]
	},
	{
		"name":"Plane",
		"primitives":[{
			"attributes":{
				"POSITION":53,
				"NORMAL":54,
				"TEXCOORD_0":55
			},
			"indices":52,
			"material":12
		}]
	}],
	"accessors":[{
		"bufferView":0,
		"type":"SCALAR",
		"max":[19],
		"componentType":5123,
		"count":30,
		"byteOffset":0,
		"min":[0]
	},
	{
		"bufferView":1,
		"type":"VEC3",
		"max":[0.004999999888241291,
		6.15869140625,
		8.785611152648926],
		"componentType":5126,
		"count":20,
		"byteOffset":0,
		"min":[-0.004999999888241291,
		-6.15869140625,
		-8.785611152648926]
	},
	{
		"bufferView":1,
		"type":"VEC3",
		"max":[1.0,
		1.0,
		1.0],
		"componentType":5126,
		"count":20,
		"byteOffset":12,
		"min":[0.0,
		-1.0,
		-1.0]
	},
	{
		"bufferView":1,
		"type":"VEC2",
		"max":[0.9950248599052429,
		1.0053297281265259],
		"componentType":5126,
		"count":20,
		"byteOffset":24,
		"min":[0.0016681804554536939,
		0.001962565118446946]
	},
	{
		"bufferView":2,
		"type":"SCALAR",
		"max":[686],
		"componentType":5123,
		"count":2700,
		"byteOffset":0,
		"min":[0]
	},
	{
		"bufferView":3,
		"type":"VEC3",
		"max":[45.79214096069336,
		31.823291778564454,
		4.78000020980835],
		"componentType":5126,
		"count":687,
		"byteOffset":0,
		"min":[-45.79214096069336,
		-31.823291778564454,
		-1.0]
	},
	{
		"bufferView":3,
		"type":"VEC3",
		"max":[0.9921233654022217,
		0.9994988441467285,
		1.0],
		"componentType":5126,
		"count":687,
		"byteOffset":12,
		"min":[-0.9919322729110718,
		-0.9938933849334717,
		-0.9904601573944092]
	},
	{
		"bufferView":3,
		"type":"VEC2",
		"max":[0.9920218586921692,
		0.9950248003005981],
		"componentType":5126,
		"count":687,
		"byteOffset":24,
		"min":[0.0016673281788825989,
		0.0016673281788825989]
	},
	{
		"bufferView":4,
		"type":"SCALAR",
		"max":[3358],
		"componentType":5123,
		"count":16944,
		"byteOffset":0,
		"min":[0]
	},
	{
		"bufferView":5,
		"type":"VEC3",
		"max":[16.719234466552736,
		23.261991500854493,
		10.206674575805664],
		"componentType":5126,
		"count":3359,
		"byteOffset":0,
		"min":[-11.585205078125,
		-12.949373245239258,
		-10.979392051696778]
	},
	{
		"bufferView":5,
		"type":"VEC3",
		"max":[0.9993725419044495,
		0.9997612237930298,
		0.9984735250473023],
		"componentType":5126,
		"count":3359,
		"byteOffset":12,
		"min":[-0.9993670582771301,
		-0.999761164188385,
		-0.9984821677207947]
	},
	{
		"bufferView":5,
		"type":"VEC2",
		"max":[0.8861672282218933,
		0.9950248003005981],
		"componentType":5126,
		"count":3359,
		"byteOffset":24,
		"min":[0.001667363103479147,
		0.001667363103479147]
	},
	{
		"bufferView":6,
		"type":"SCALAR",
		"max":[692],
		"componentType":5123,
		"count":3840,
		"byteOffset":0,
		"min":[0]
	},
	{
		"bufferView":7,
		"type":"VEC3",
		"max":[1.8459999561309815,
		7.641099452972412,
		1.8459999561309815],
		"componentType":5126,
		"count":693,
		"byteOffset":0,
		"min":[-1.8459999561309815,
		0.0,
		-1.8459999561309815]
	},
	{
		"bufferView":7,
		"type":"VEC3",
		"max":[0.9955198168754578,
		0.9956004023551941,
		0.9955198168754578],
		"componentType":5126,
		"count":693,
		"byteOffset":12,
		"min":[-0.9955198168754578,
		-0.9956004023551941,
		-0.9955198168754578]
	},
	{
		"bufferView":7,
		"type":"VEC2",
		"max":[0.7872519493103027,
		0.9950248003005981],
		"componentType":5126,
		"count":693,
		"byteOffset":24,
		"min":[0.0016680737026035786,
		0.0016680737026035786]
	},
	{
		"bufferView":8,
		"type":"SCALAR",
		"max":[191],
		"componentType":5123,
		"count":900,
		"byteOffset":0,
		"min":[0]
	},
	{
		"bufferView":9,
		"type":"VEC3",
		"max":[0.8481280207633972,
		4.579968452453613,
		1.9160906076431275],
		"componentType":5126,
		"count":192,
		"byteOffset":0,
		"min":[-0.8481280207633972,
		0.0,
		-1.9160906076431275]
	},
	{
		"bufferView":9,
		"type":"VEC3",
		"max":[0.9906721115112305,
		0.9905423521995544,
		0.990542471408844],
		"componentType":5126,
		"count":192,
		"byteOffset":12,
		"min":[-0.9906721115112305,
		-0.9905424118041992,
		-0.9906721115112305]
	},
	{
		"bufferView":9,
		"type":"VEC2",
		"max":[0.8913146257400513,
		0.9950248003005981],
		"componentType":5126,
		"count":192,
		"byteOffset":24,
		"min":[0.0016739661805331708,
		0.0016739661805331708]
	},
	{
		"bufferView":10,
		"type":"SCALAR",
		"max":[1121],
		"componentType":5123,
		"count":6000,
		"byteOffset":0,
		"min":[0]
	},
	{
		"bufferView":11,
		"type":"VEC3",
		"max":[4.559999942779541,
		0.6023011207580566,
		4.551002025604248],
		"componentType":5126,
		"count":1122,
		"byteOffset":0,
		"min":[-4.559999942779541,
		0.0,
		-4.551002025604248]
	},
	{
		"bufferView":11,
		"type":"VEC3",
		"max":[0.9989388585090637,
		1.0,
		0.9980640411376953],
		"componentType":5126,
		"count":1122,
		"byteOffset":12,
		"min":[-0.9989388585090637,
		-1.0,
		-0.9980640411376953]
	},
	{
		"bufferView":11,
		"type":"VEC2",
		"max":[0.5621546506881714,
		0.9950248003005981],
		"componentType":5126,
		"count":1122,
		"byteOffset":24,
		"min":[0.0016673696227371693,
		0.0016673696227371693]
	},
	{
		"bufferView":12,
		"type":"SCALAR",
		"max":[929],
		"componentType":5123,
		"count":3408,
		"byteOffset":0,
		"min":[0]
	},
	{
		"bufferView":13,
		"type":"VEC3",
		"max":[4.921803951263428,
		15.0,
		1.7347140312194825],
		"componentType":5126,
		"count":930,
		"byteOffset":0,
		"min":[-4.921803951263428,
		-2.220446049250313e-16,
		-1.7347140312194825]
	},
	{
		"bufferView":13,
		"type":"VEC3",
		"max":[0.9955626130104065,
		0.9967426061630249,
		0.9996064305305481],
		"componentType":5126,
		"count":930,
		"byteOffset":12,
		"min":[-0.991284191608429,
		-0.9935714602470398,
		-0.9996052384376526]
	},
	{
		"bufferView":13,
		"type":"VEC2",
		"max":[0.9920453429222107,
		0.9950248003005981],
		"componentType":5126,
		"count":930,
		"byteOffset":24,
		"min":[0.0016669015167281032,
		0.0016669014003127814]
	},
	{
		"bufferView":14,
		"type":"SCALAR",
		"max":[790],
		"componentType":5123,
		"count":4068,
		"byteOffset":0,
		"min":[0]
	},
	{
		"bufferView":15,
		"type":"VEC3",
		"max":[1.4659353494644166,
		4.033937931060791,
		0.5],
		"componentType":5126,
		"count":791,
		"byteOffset":0,
		"min":[-1.4659353494644166,
		-2.220446049250313e-16,
		-0.5]
	},
	{
		"bufferView":15,
		"type":"VEC3",
		"max":[0.9982993006706238,
		0.9992688298225403,
		0.9998495578765869],
		"componentType":5126,
		"count":791,
		"byteOffset":12,
		"min":[-0.998358964920044,
		-0.9978927373886108,
		-0.9998689293861389]
	},
	{
		"bufferView":15,
		"type":"VEC2",
		"max":[0.9950248599052429,
		0.9577289819717407],
		"componentType":5126,
		"count":791,
		"byteOffset":24,
		"min":[0.0016668214229866863,
		0.0016668213065713645]
	},
	{
		"bufferView":16,
		"type":"SCALAR",
		"max":[790],
		"componentType":5123,
		"count":4068,
		"byteOffset":0,
		"min":[0]
	},
	{
		"bufferView":17,
		"type":"VEC3",
		"max":[1.4659353494644166,
		4.033937931060791,
		0.5],
		"componentType":5126,
		"count":791,
		"byteOffset":0,
		"min":[-1.4659353494644166,
		-2.220446049250313e-16,
		-0.5]
	},
	{
		"bufferView":17,
		"type":"VEC3",
		"max":[0.9982993006706238,
		0.9992688298225403,
		0.9998495578765869],
		"componentType":5126,
		"count":791,
		"byteOffset":12,
		"min":[-0.998358964920044,
		-0.9978927373886108,
		-0.9998689293861389]
	},
	{
		"bufferView":17,
		"type":"VEC2",
		"max":[0.9950248599052429,
		0.9577289819717407],
		"componentType":5126,
		"count":791,
		"byteOffset":24,
		"min":[0.0016668214229866863,
		0.0016668213065713645]
	},
	{
		"bufferView":18,
		"type":"SCALAR",
		"max":[1121],
		"componentType":5123,
		"count":6000,
		"byteOffset":0,
		"min":[0]
	},
	{
		"bufferView":19,
		"type":"VEC3",
		"max":[10.0,
		1.5,
		9.980267524719239],
		"componentType":5126,
		"count":1122,
		"byteOffset":0,
		"min":[-10.0,
		0.0,
		-9.980267524719239]
	},
	{
		"bufferView":19,
		"type":"VEC3",
		"max":[0.9991760849952698,
		1.0,
		0.9983009099960327],
		"componentType":5126,
		"count":1122,
		"byteOffset":12,
		"min":[-0.9991760849952698,
		-1.0,
		-0.9983009099960327]
	},
	{
		"bufferView":19,
		"type":"VEC2",
		"max":[0.5657944083213806,
		0.9950248003005981],
		"componentType":5126,
		"count":1122,
		"byteOffset":24,
		"min":[0.0016674974467605353,
		0.0016674974467605353]
	},
	{
		"bufferView":20,
		"type":"SCALAR",
		"max":[41138],
		"componentType":5123,
		"count":178848,
		"byteOffset":0,
		"min":[0]
	},
	{
		"bufferView":21,
		"type":"VEC3",
		"max":[13.70850658416748,
		13.77291488647461,
		15.609806060791016],
		"componentType":5126,
		"count":41139,
		"byteOffset":0,
		"min":[-15.410273551940918,
		-6.75,
		-14.83852767944336]
	},
	{
		"bufferView":21,
		"type":"VEC3",
		"max":[1.0,
		1.0,
		1.0],
		"componentType":5126,
		"count":41139,
		"byteOffset":12,
		"min":[-0.9999999403953552,
		-1.0,
		-1.0]
	},
	{
		"bufferView":21,
		"type":"VEC2",
		"max":[0.9699409008026123,
		0.9950248003005981],
		"componentType":5126,
		"count":41139,
		"byteOffset":24,
		"min":[0.002234316896647215,
		0.002234316896647215]
	},
	{
		"bufferView":22,
		"type":"SCALAR",
		"max":[2037],
		"componentType":5123,
		"count":9600,
		"byteOffset":0,
		"min":[0]
	},
	{
		"bufferView":23,
		"type":"VEC3",
		"max":[8.524419784545899,
		6.672374248504639,
		8.507598876953125],
		"componentType":5126,
		"count":2038,
		"byteOffset":0,
		"min":[-8.524419784545899,
		-6.846987724304199,
		-8.507598876953125]
	},
	{
		"bufferView":23,
		"type":"VEC3",
		"max":[1.0,
		1.0,
		0.9991238713264465],
		"componentType":5126,
		"count":2038,
		"byteOffset":12,
		"min":[-1.0,
		-1.0,
		-0.9991238713264465]
	},
	{
		"bufferView":23,
		"type":"VEC2",
		"max":[0.9950248599052429,
		0.8504253625869751],
		"componentType":5126,
		"count":2038,
		"byteOffset":24,
		"min":[0.0016724797897040845,
		0.0016724797897040845]
	},
	{
		"bufferView":24,
		"type":"SCALAR",
		"max":[23],
		"componentType":5123,
		"count":36,
		"byteOffset":0,
		"min":[0]
	},
	{
		"bufferView":25,
		"type":"VEC3",
		"max":[366.2540588378906,
		3.4524986743927,
		100.0],
		"componentType":5126,
		"count":24,
		"byteOffset":0,
		"min":[-366.2540588378906,
		-3.4524986743927,
		-100.0]
	},
	{
		"bufferView":25,
		"type":"VEC3",
		"max":[1.0,
		1.0,
		1.0],
		"componentType":5126,
		"count":24,
		"byteOffset":12,
		"min":[-1.0,
		-1.0,
		-1.0]
	},
	{
		"bufferView":25,
		"type":"VEC2",
		"max":[1.0,
		1.0],
		"componentType":5126,
		"count":24,
		"byteOffset":24,
		"min":[0.0,
		0.0]
	},
	{
		"bufferView":26,
		"type":"SCALAR",
		"max":[1680],
		"componentType":5123,
		"count":9600,
		"byteOffset":0,
		"min":[0]
	},
	{
		"bufferView":27,
		"type":"VEC3",
		"max":[404.2749938964844,
		397.2166748046875,
		565.3297729492188],
		"componentType":5126,
		"count":1681,
		"byteOffset":0,
		"min":[-404.27496337890627,
		0.0,
		-3.7046027183532717]
	},
	{
		"bufferView":27,
		"type":"VEC3",
		"max":[6.646187955539063e-8,
		1.0,
		1.0],
		"componentType":5126,
		"count":1681,
		"byteOffset":12,
		"min":[-1.1648413789089318e-7,
		0.0,
		0.0]
	},
	{
		"bufferView":27,
		"type":"VEC2",
		"max":[1.0,
		1.0],
		"componentType":5126,
		"count":1681,
		"byteOffset":24,
		"min":[0.0,
		0.0]
	}],
	"bufferViews":[{
		"buffer":0,
		"byteOffset":0,
		"byteLength":60,
		"target":34963
	},
	{
		"buffer":0,
		"byteOffset":60,
		"byteLength":640,
		"target":34962,
		"byteStride":32
	},
	{
		"buffer":1,
		"byteOffset":0,
		"byteLength":5400,
		"target":34963
	},
	{
		"buffer":1,
		"byteOffset":5400,
		"byteLength":21984,
		"target":34962,
		"byteStride":32
	},
	{
		"buffer":2,
		"byteOffset":0,
		"byteLength":33888,
		"target":34963
	},
	{
		"buffer":2,
		"byteOffset":33888,
		"byteLength":107488,
		"target":34962,
		"byteStride":32
	},
	{
		"buffer":3,
		"byteOffset":0,
		"byteLength":7680,
		"target":34963
	},
	{
		"buffer":3,
		"byteOffset":7680,
		"byteLength":22176,
		"target":34962,
		"byteStride":32
	},
	{
		"buffer":4,
		"byteOffset":0,
		"byteLength":1800,
		"target":34963
	},
	{
		"buffer":4,
		"byteOffset":1800,
		"byteLength":6144,
		"target":34962,
		"byteStride":32
	},
	{
		"buffer":5,
		"byteOffset":0,
		"byteLength":12000,
		"target":34963
	},
	{
		"buffer":5,
		"byteOffset":12000,
		"byteLength":35904,
		"target":34962,
		"byteStride":32
	},
	{
		"buffer":6,
		"byteOffset":0,
		"byteLength":6816,
		"target":34963
	},
	{
		"buffer":6,
		"byteOffset":6816,
		"byteLength":29760,
		"target":34962,
		"byteStride":32
	},
	{
		"buffer":7,
		"byteOffset":0,
		"byteLength":8136,
		"target":34963
	},
	{
		"buffer":7,
		"byteOffset":8136,
		"byteLength":25312,
		"target":34962,
		"byteStride":32
	},
	{
		"buffer":8,
		"byteOffset":0,
		"byteLength":8136,
		"target":34963
	},
	{
		"buffer":8,
		"byteOffset":8136,
		"byteLength":25312,
		"target":34962,
		"byteStride":32
	},
	{
		"buffer":9,
		"byteOffset":0,
		"byteLength":12000,
		"target":34963
	},
	{
		"buffer":9,
		"byteOffset":12000,
		"byteLength":35904,
		"target":34962,
		"byteStride":32
	},
	{
		"buffer":10,
		"byteOffset":0,
		"byteLength":357696,
		"target":34963
	},
	{
		"buffer":10,
		"byteOffset":357696,
		"byteLength":1316448,
		"target":34962,
		"byteStride":32
	},
	{
		"buffer":11,
		"byteOffset":0,
		"byteLength":19200,
		"target":34963
	},
	{
		"buffer":11,
		"byteOffset":19200,
		"byteLength":65216,
		"target":34962,
		"byteStride":32
	},
	{
		"buffer":12,
		"byteOffset":0,
		"byteLength":72,
		"target":34963
	},
	{
		"buffer":12,
		"byteOffset":72,
		"byteLength":768,
		"target":34962,
		"byteStride":32
	},
	{
		"buffer":13,
		"byteOffset":0,
		"byteLength":19200,
		"target":34963
	},
	{
		"buffer":13,
		"byteOffset":19200,
		"byteLength":53792,
		"target":34962,
		"byteStride":32
	}],
	"buffers":[{
		"uri":"data:application/octet-stream;base64,",
		"byteLength":700
	},
	{
		"uri":"data:application/octet-stream;base64,",
		"byteLength":27384
	},
	{
		"uri":"data:application/octet-stream;base64,",
		"byteLength":141376
	},
	{
		"uri":"data:application/octet-stream;base64,",
		"byteLength":29856
	},
	{
		"uri":"data:application/octet-stream;base64,",
		"byteLength":7944
	},
	{
		"uri":"data:application/octet-stream;base64,",
		"byteLength":47904
	},
	{
		"uri":"data:application/octet-stream;base64,",
		"byteLength":36576
	},
	{
		"uri":"data:application/octet-stream;base64,",
		"byteLength":33448
	},
	{
		"uri":"data:application/octet-stream;base64,",
		"byteLength":33448
	},
	{
		"uri":"data:application/octet-stream;base64,",
		"byteLength":47904
	},
	{
		"uri":"data:application/octet-stream;base64,",
		"byteLength":1674144
	},
	{
		"uri":"data:application/octet-stream;base64,",
		"byteLength":84416
	},
	{
		"uri":"data:application/octet-stream;base64,",
		"byteLength":840
	},
	{
		"uri":"data:application/octet-stream;base64,",
		"byteLength":72992
	}]
}