{
	"asset":{
		"version":"2.0",
		"generator":"Created using the official Cinema 4D glTF Exporter 1.000x284978"
	},
	"textures":[{
		"sampler":0,
		"source":0
	}],
	"scenes":[{
		"nodes":[0]
	}],
	"nodes":[{
		"name":"body",
		"translation":[0.0,
		0.0,
		0.0],
		"rotation":[-3.7493993930529858e-33,
		-1.0,
		6.123234262925839e-17,
		-6.123234262925839e-17],
		"scale":[1.0,
		1.0,
		1.0],
		"mesh":0
	}],
	"samplers":[{
		"magFilter":9729,
		"minFilter":9729,
		"wrapS":10497,
		"wrapT":10497
	}],
	"meshes":[{
		"name":"body",
		"primitives":[{
			"attributes":{
				"POSITION":1,
				"NORMAL":2,
				"TEXCOORD_0":3
			},
			"indices":0,
			"material":0
		}]
	}],
	"accessors":[{
		"bufferView":0,
		"type":"SCALAR",
		"componentType":5123,
		"count":5760,
		"byteOffset":0,
		"min":[0],
		"max":[2555]
	},
	{
		"bufferView":1,
		"type":"VEC3",
		"componentType":5126,
		"count":2556,
		"byteOffset":0,
		"min":[-2.0314760208129885,
		0.0,
		-2.0314760208129885],
		"max":[2.0314760208129885,
		8.0,
		2.0314760208129885]
	},
	{
		"bufferView":1,
		"type":"VEC3",
		"componentType":5126,
		"count":2556,
		"byteOffset":12,
		"min":[-1.0,
		-1.0,
		-1.0],
		"max":[1.0,
		1.0,
		1.0]
	},
	{
		"bufferView":1,
		"type":"VEC2",
		"componentType":5126,
		"count":2556,
		"byteOffset":24,
		"min":[0.0016724944580346346,
		0.0016724944580346346],
		"max":[0.9815524816513062,
		0.9950248003005981]
	}],
	"bufferViews":[{
		"buffer":0,
		"byteOffset":0,
		"byteLength":11520,
		"target":34963
	},
	{
		"buffer":0,
		"byteOffset":11520,
		"byteLength":81792,
		"target":34962,
		"byteStride":32
	}],
	"buffers":[{
		"uri":"data:application/octet-stream;base64,",
		"byteLength":93312
	}],
	"images":[{
		"uri":"data:image/jpeg;base64,"
	}],
	"materials":[{
		"pbrMetallicRoughness":{
			"baseColorTexture":{
				"index":0
			},
			"baseColorFactor":[0.8,
			0.8,
			0.8,
			1.0],
			"metallicFactor":0.0,
			"roughnessFactor":0.5
		},
		"emissiveFactor":[0.0,
		0.0,
		0.0],
		"alphaMode":"OPAQUE",
		"doubleSided":false,
		"name":"magnifying_glass_body"
	}]
}