{
	"textures":[{
		"source":0,
		"sampler":0
	}],
	"nodes":[{
		"name":"magnifying_glass",
		"scale":[1.0,
		1.0,
		1.0],
		"translation":[0.0,
		0.0,
		0.0],
		"rotation":[-4.329780301713277e-17,
		-0.7071067690849304,
		0.7071067690849304,
		-4.329780301713277e-17],
		"mesh":0,
		"children":[1]
	},
	{
		"name":"GLASS_lens",
		"scale":[1.0,
		1.0,
		1.0],
		"translation":[-7.161234970363799e-15,
		3.4644246101379396,
		-1.7484532447770889e-15],
		"rotation":[0.0,
		0.0,
		0.0,
		-1.0],
		"mesh":1
	}],
	"scenes":[{
		"nodes":[0]
	}],
	"asset":{
		"generator":"Created using the official Cinema 4D glTF Exporter 1.000x284978",
		"version":"2.0"
	},
	"samplers":[{
		"magFilter":9729,
		"minFilter":9729,
		"wrapS":10497,
		"wrapT":10497
	}],
	"meshes":[{
		"name":"magnifying_glass",
		"primitives":[{
			"attributes":{
				"POSITION":1,
				"NORMAL":2,
				"TEXCOORD_0":3
			},
			"indices":0,
			"material":0
		}]
	},
	{
		"name":"GLASS_lens",
		"primitives":[{
			"attributes":{
				"POSITION":5,
				"NORMAL":6,
				"TEXCOORD_0":7
			},
			"indices":4,
			"material":1
		}]
	}],
	"accessors":[{
		"bufferView":0,
		"byteOffset":0,
		"type":"SCALAR",
		"componentType":5123,
		"count":5760,
		"min":[0],
		"max":[2555]
	},
	{
		"bufferView":1,
		"byteOffset":0,
		"type":"VEC3",
		"componentType":5126,
		"count":2556,
		"min":[-2.0314760208129885,
		-4.0,
		-2.0314760208129885],
		"max":[2.0314760208129885,
		4.0,
		2.0314760208129885]
	},
	{
		"bufferView":1,
		"byteOffset":12,
		"type":"VEC3",
		"componentType":5126,
		"count":2556,
		"min":[-1.0,
		-1.0,
		-1.0],
		"max":[1.0,
		1.0,
		1.0]
	},
	{
		"bufferView":1,
		"byteOffset":24,
		"type":"VEC2",
		"componentType":5126,
		"count":2556,
		"min":[0.0016724944580346346,
		0.0016724944580346346],
		"max":[0.9815524816513062,
		0.9950248003005981]
	},
	{
		"bufferView":2,
		"byteOffset":0,
		"type":"SCALAR",
		"componentType":5123,
		"count":2304,
		"min":[0],
		"max":[451]
	},
	{
		"bufferView":3,
		"byteOffset":0,
		"type":"VEC3",
		"componentType":5126,
		"count":452,
		"min":[-1.399999976158142,
		-0.05000000074505806,
		-1.399999976158142],
		"max":[1.399999976158142,
		0.2600327730178833,
		1.399999976158142]
	},
	{
		"bufferView":3,
		"byteOffset":12,
		"type":"VEC3",
		"componentType":5126,
		"count":452,
		"min":[-0.9994615316390991,
		-1.0,
		-0.9994615316390991],
		"max":[0.9994615316390991,
		1.0,
		0.9994615316390991]
	},
	{
		"bufferView":3,
		"byteOffset":24,
		"type":"VEC2",
		"componentType":5126,
		"count":452,
		"min":[0.0,
		0.0],
		"max":[1.0,
		1.0]
	}],
	"bufferViews":[{
		"buffer":0,
		"byteOffset":0,
		"byteLength":11520,
		"target":34963
	},
	{
		"buffer":0,
		"byteOffset":11520,
		"byteLength":81792,
		"target":34962,
		"byteStride":32
	},
	{
		"buffer":1,
		"byteOffset":0,
		"byteLength":4608,
		"target":34963
	},
	{
		"buffer":1,
		"byteOffset":4608,
		"byteLength":14464,
		"target":34962,
		"byteStride":32
	}],
	"buffers":[{
		"uri":"data:application/octet-stream;base64,",
		"byteLength":93312
	},
	{
		"uri":"data:application/octet-stream;base64,",
		"byteLength":19072
	}],
	"images":[{
		"uri":"data:image/jpeg;base64,"
	}],
	"materials":[{
		"pbrMetallicRoughness":{
			"baseColorTexture":{
				"index":0
			},
			"baseColorFactor":[0.8,
			0.8,
			0.8,
			1.0],
			"metallicFactor":0.0,
			"roughnessFactor":0.5
		},
		"emissiveFactor":[0.0,
		0.0,
		0.0],
		"alphaMode":"OPAQUE",
		"doubleSided":false,
		"name":"Mat.3"
	},
	{
		"pbrMetallicRoughness":{
			"baseColorFactor":[0.8,
			0.8,
			0.8,
			1.0],
			"metallicFactor":0.0,
			"roughnessFactor":0.5
		},
		"emissiveFactor":[0.0,
		0.0,
		0.0],
		"alphaMode":"OPAQUE",
		"doubleSided":false,
		"name":"GLASS"
	}]
}