{
	"asset":{
		"version":"2.0",
		"generator":"Created using the official Cinema 4D glTF Exporter 1.000x284978"
	},
	"scenes":[{
		"nodes":[0]
	}],
	"nodes":[{
		"name":"export",
		"translation":[-0.0005843506078235805,
		3.0912346839904787,
		0.0023704811464995147],
		"rotation":[0.0,
		-0.7071067690849304,
		0.0,
		0.7071067690849304],
		"scale":[1.0,
		1.0,
		1.0],
		"children":[1,
		2,
		3]
	},
	{
		"name":"blocs.1",
		"translation":[-0.0023704811464995147,
		1.0409884452819825,
		-0.0005843506078235805],
		"rotation":[0.0,
		-0.7071067690849304,
		0.0,
		-0.7071067690849304],
		"scale":[1.0,
		1.0,
		1.0],
		"mesh":0
	},
	{
		"name":"tubes.1",
		"translation":[0.004740962292999029,
		1.5978052616119385,
		1.769471404499122e-21],
		"rotation":[0.0,
		-0.7071067690849304,
		0.0,
		-0.7071067690849304],
		"scale":[1.0,
		1.0,
		1.0],
		"mesh":1
	},
	{
		"name":"Pipette",
		"translation":[-0.0023704811464995147,
		-2.638793706893921,
		-0.0005843506078235805],
		"rotation":[0.0,
		0.0,
		0.0,
		-1.0],
		"scale":[1.0,
		1.0,
		1.0],
		"children":[4]
	},
	{
		"name":"Pipette",
		"translation":[0.0,
		-0.00011738573084585369,
		0.0],
		"rotation":[0.0,
		0.0,
		0.0,
		-1.0],
		"scale":[1.0,
		1.0,
		1.0],
		"children":[5]
	},
	{
		"name":"Pipette",
		"mesh":2
	}],
	"materials":[{
		"pbrMetallicRoughness":{
			"baseColorTexture":{
				"index":0
			},
			"baseColorFactor":[0.8,
			0.8,
			0.8,
			1.0],
			"metallicFactor":0.0,
			"roughnessFactor":0.5
		},
		"emissiveFactor":[0.0,
		0.0,
		0.0],
		"alphaMode":"OPAQUE",
		"doubleSided":false,
		"name":"Mat.35"
	},
	{
		"pbrMetallicRoughness":{
			"baseColorTexture":{
				"index":1
			},
			"baseColorFactor":[0.8,
			0.8,
			0.8,
			1.0],
			"metallicFactor":0.0,
			"roughnessFactor":0.5
		},
		"emissiveFactor":[0.0,
		0.0,
		0.0],
		"alphaMode":"OPAQUE",
		"doubleSided":false,
		"name":"Mat.34"
	},
	{
		"pbrMetallicRoughness":{
			"baseColorFactor":[1.0,
			1.0,
			1.0,
			1.0],
			"metallicFactor":1.0,
			"roughnessFactor":1.0
		},
		"emissiveFactor":[0.0,
		0.0,
		0.0],
		"alphaMode":"OPAQUE",
		"doubleSided":false,
		"name":""
	}],
	"meshes":[{
		"name":"blocs.1",
		"primitives":[{
			"attributes":{
				"POSITION":1,
				"NORMAL":2,
				"TEXCOORD_0":3
			},
			"indices":0,
			"material":0
		}]
	},
	{
		"name":"tubes.1",
		"primitives":[{
			"attributes":{
				"POSITION":5,
				"NORMAL":6,
				"TEXCOORD_0":7
			},
			"indices":4,
			"material":1
		}]
	},
	{
		"name":"Pipette",
		"primitives":[{
			"attributes":{
				"POSITION":9,
				"NORMAL":10,
				"TEXCOORD_0":11
			},
			"indices":8,
			"material":2
		}]
	}],
	"accessors":[{
		"bufferView":0,
		"byteOffset":0,
		"type":"SCALAR",
		"componentType":5123,
		"count":7782,
		"min":[0],
		"max":[1685]
	},
	{
		"bufferView":1,
		"byteOffset":0,
		"type":"VEC3",
		"componentType":5126,
		"count":1686,
		"min":[-1.0,
		-4.132223129272461,
		-1.0],
		"max":[1.0,
		5.221985816955566,
		1.0]
	},
	{
		"bufferView":1,
		"byteOffset":12,
		"type":"VEC3",
		"componentType":5126,
		"count":1686,
		"min":[-1.0,
		-1.0,
		-0.995623767375946],
		"max":[1.0,
		1.0,
		1.0]
	},
	{
		"bufferView":1,
		"byteOffset":24,
		"type":"VEC2",
		"componentType":5126,
		"count":1686,
		"min":[0.001667080563493073,
		0.0016670804470777512],
		"max":[0.9950248599052429,
		0.9826912879943848]
	},
	{
		"bufferView":2,
		"byteOffset":0,
		"type":"SCALAR",
		"componentType":5123,
		"count":1920,
		"min":[0],
		"max":[475]
	},
	{
		"bufferView":3,
		"byteOffset":0,
		"type":"VEC3",
		"componentType":5126,
		"count":476,
		"min":[-0.8923863768577576,
		-4.227821350097656,
		-0.8953496217727661],
		"max":[0.8923863768577576,
		4.227821350097656,
		0.8953496217727661]
	},
	{
		"bufferView":3,
		"byteOffset":12,
		"type":"VEC3",
		"componentType":5126,
		"count":476,
		"min":[-1.0,
		-1.0,
		-1.0],
		"max":[1.0,
		1.0,
		1.0]
	},
	{
		"bufferView":3,
		"byteOffset":24,
		"type":"VEC2",
		"componentType":5126,
		"count":476,
		"min":[0.0016680635744705797,
		0.0016680634580552579],
		"max":[0.9950248599052429,
		0.7877825498580933]
	},
	{
		"bufferView":4,
		"byteOffset":0,
		"type":"SCALAR",
		"componentType":5123,
		"count":54912,
		"min":[0],
		"max":[12570]
	},
	{
		"bufferView":5,
		"byteOffset":0,
		"type":"VEC3",
		"componentType":5126,
		"count":12571,
		"min":[-0.5050672888755798,
		2.3989328318957394e-16,
		-0.5050672888755798],
		"max":[0.5050672888755798,
		11.500212669372559,
		0.5050672888755798]
	},
	{
		"bufferView":5,
		"byteOffset":12,
		"type":"VEC3",
		"componentType":5126,
		"count":12571,
		"min":[-1.0,
		-0.9998064041137695,
		-1.0],
		"max":[1.0,
		0.9999510645866394,
		1.0]
	},
	{
		"bufferView":5,
		"byteOffset":24,
		"type":"VEC2",
		"componentType":5126,
		"count":12571,
		"min":[0.0,
		0.0],
		"max":[1.0,
		1.0]
	}],
	"bufferViews":[{
		"buffer":0,
		"byteOffset":0,
		"byteLength":15564,
		"target":34963
	},
	{
		"buffer":0,
		"byteOffset":15564,
		"byteLength":53952,
		"target":34962,
		"byteStride":32
	},
	{
		"buffer":1,
		"byteOffset":0,
		"byteLength":3840,
		"target":34963
	},
	{
		"buffer":1,
		"byteOffset":3840,
		"byteLength":15232,
		"target":34962,
		"byteStride":32
	},
	{
		"buffer":2,
		"byteOffset":0,
		"byteLength":109824,
		"target":34963
	},
	{
		"buffer":2,
		"byteOffset":109824,
		"byteLength":402272,
		"target":34962,
		"byteStride":32
	}],
	"buffers":[{
		"uri":"data:application/octet-stream;base64,",
		"byteLength":69516
	},
	{
		"uri":"data:application/octet-stream;base64,",
		"byteLength":19072
	},
	{
		"uri":"data:application/octet-stream;base64,",
		"byteLength":512096
	}],
	"images":[{
		"uri":"data:image/jpeg;base64,"
	},
	{
		"uri":"data:image/jpeg;base64,"
	}],
	"samplers":[{
		"magFilter":9729,
		"minFilter":9729,
		"wrapS":10497,
		"wrapT":10497
	},
	{
		"magFilter":9729,
		"minFilter":9729,
		"wrapS":10497,
		"wrapT":10497
	}],
	"textures":[{
		"sampler":0,
		"source":0
	},
	{
		"sampler":1,
		"source":1
	}]
}