<svg width="103" height="104" viewBox="0 0 103 104" fill="none" xmlns="http://www.w3.org/2000/svg">
<path d="M29.1123 32.8137C34.6787 24.5754 39.8379 16.1228 45.6832 8.06582C42.2315 9.72234 38.6784 11.1682 35.2528 12.8799" stroke="#FEFEFE" stroke-width="6" stroke-miterlimit="1.5" stroke-linecap="round" stroke-linejoin="round"/>
<path d="M19.6516 32.0365C25.8888 32.7302 32.1954 32.9991 38.4527 33.522" stroke="#FEFEFE" stroke-width="6" stroke-miterlimit="1.5" stroke-linecap="round" stroke-linejoin="round"/>
<path d="M71.3389 20.3383C73.35 22.844 72.0949 26.9944 70.6139 29.3825C67.1405 34.9838 58.0749 41.7047 51.803 36.1984C49.1575 33.8756 50.3238 29.1958 51.9394 26.6664C55.1933 21.5717 63.1686 14.8521 69.5532 18.5669" stroke="#FEFEFE" stroke-width="6" stroke-miterlimit="1.5" stroke-linecap="round" stroke-linejoin="round"/>
<path d="M19.9038 57.6186C29.6831 55.9943 39.267 52.7537 48.857 50.3352C61.2281 47.2146 73.7442 44.7661 86.1544 41.8211" stroke="#FEFEFE" stroke-width="6" stroke-miterlimit="1.5" stroke-linecap="round" stroke-linejoin="round"/>
<path d="M36.8518 82.9117C39.7231 77.7878 43.6206 73.2935 46.5982 68.22C47.335 66.9648 50.0435 63.2575 49.7429 61.7592C49.6483 61.2873 48.9433 62.2955 48.5448 62.5656C47.8583 63.0315 47.1864 63.5167 46.492 63.9711C44.4249 65.3237 42.2081 66.433 40.019 67.5706" stroke="#FEFEFE" stroke-width="6" stroke-miterlimit="1.5" stroke-linecap="round" stroke-linejoin="round"/>
<path d="M24.8473 80.2809C31.9738 82.1402 39.1227 83.4988 46.2115 85.554" stroke="#FEFEFE" stroke-width="6" stroke-miterlimit="1.5" stroke-linecap="round" stroke-linejoin="round"/>
<path d="M80.1529 72.8281C81.1305 79.6551 74.2016 86.8149 68.4996 89.2156C65.5 90.4785 60.7848 91.168 58.9662 87.7239C53.8662 78.0669 70.8376 65.2604 79.197 71.1537" stroke="#FEFEFE" stroke-width="6" stroke-miterlimit="1.5" stroke-linecap="round" stroke-linejoin="round"/>
</svg>
