<svg width="106" height="106" viewBox="0 0 106 106" fill="none" xmlns="http://www.w3.org/2000/svg">
<path d="M27.7773 84.341C43.6468 84.2275 59.3671 80.1181 70.5336 67.836C80.6126 56.75 81.8847 42.4495 65.8799 36.6368C58.3037 33.8852 47.4815 35.6869 43.1342 43.1056C38.2909 51.3706 49.9162 56.1226 56.2417 55.485C71.0156 53.996 84.3069 41.0726 83.9763 24.8061C83.5848 5.5428 64.0682 9.00512 64.1328 9.11994" stroke="#FFC149" stroke-width="5" stroke-miterlimit="1.5" stroke-linecap="round" stroke-linejoin="round"/>
<path d="M40.0414 97.0764C39.47 95.4166 38.2757 94.1755 37.1474 92.8759C33.4433 88.6081 28.0895 85.1958 22.3406 84.6387C28.4443 83.2634 35.9053 79.4206 37.9947 73.1868" stroke="#FFC149" stroke-width="5" stroke-miterlimit="1.5" stroke-linecap="round" stroke-linejoin="round"/>
</svg>
