<svg width="1876" height="106" viewBox="0 0 1876 106" fill="none" xmlns="http://www.w3.org/2000/svg">
<path d="M811.639 103C888.267 97.4209 964.913 93.1213 1041.74 90.6765C1084.85 89.3061 1127.95 88.5217 1171.09 87.8365C1229.38 86.9102 1290.8 87.4112 1347.81 74.889C1350.82 74.2292 1341.69 73.9945 1338.62 73.599C1332.22 72.7721 1325.72 72.3704 1319.3 71.6767C1303.31 69.9488 1287.4 68.7369 1271.35 67.561C1216.19 63.5174 1160.86 60.8399 1105.52 60.4148C943.964 59.1712 785.698 59.3849 624.601 72.6262C572.897 76.8771 521.367 81.9252 469.739 86.8761C457.872 88.0139 422.009 87.2822 413.752 97.1503C410.511 101.023 424.791 97.1164 430.308 96.9747C439.971 96.7273 449.549 96.8395 459.207 97.1441C489.97 98.1127 520.77 97.6028 551.516 96.0717C642.109 91.5606 733.066 89.3888 823.786 86.4723C1000.01 80.8087 1175.97 67.2226 1351.99 58.6319C1404.68 56.0623 1457.2 51.0945 1509.88 48.8062C1539.44 47.5224 1579.85 50.4685 1606.85 37.7898C1612.43 35.1695 1594.26 36.3749 1587.97 35.6452C1576.8 34.3509 1565.83 33.1731 1554.58 32.3991C1517.28 29.8337 1479.49 30.6352 1442.08 28.9221C1333.86 23.9648 1225.45 21.8859 1117.03 21.8288C890.993 21.7146 661.281 22.9983 436.013 40.0167C347.555 46.6997 243.355 42.9798 158.638 69.071C152.164 71.0654 172.388 69.2867 179.233 69.788C192.471 70.7587 205.926 69.9318 219.208 70.689C260.595 73.0513 301.897 70.4689 343.302 69.5236C466.835 66.696 590.617 66.2815 714.321 63.9932C850.836 61.4659 986.74 49.1447 1123.05 43.2399C1278.45 36.5082 1433.79 32.547 1589.12 24.9673C1662.25 21.3974 1735.39 20.3358 1808.61 20.4817C1819.03 20.5029 1868.16 25.7413 1875.24 18.6121C1880.04 13.7902 1860.76 16.4865 1853.5 15.5095C1837.1 13.3015 1820.65 12.1174 1804.14 10.6645C1759.82 6.76888 1715.15 3.8628 1670.6 3.33831C1534.93 1.74369 1399.12 6.43029 1263.48 4.15256C1113.67 1.63797 962.522 9.01677 812.652 12.1722C677.801 15.0125 542.35 8.74607 407.392 9.58356C273.374 10.4168 136.943 29.7413 3 21.0936" stroke="#FEFEFE" stroke-width="4.05049" stroke-miterlimit="1.5" stroke-linecap="round" stroke-linejoin="round"/>
</svg>
