<svg width="127" height="70" viewBox="0 0 127 70" fill="none" xmlns="http://www.w3.org/2000/svg">
<path d="M24.4865 16.9892H27.9602C27.9602 15.2391 26.6583 13.7623 24.922 13.5429C23.1858 13.3235 21.5574 14.43 21.122 16.125L24.4865 16.9892ZM22.5174 24.656L19.1529 23.7919C18.703 25.5436 19.6725 27.3475 21.3817 27.9388C23.0909 28.5301 24.9678 27.711 25.6966 26.0558L22.5174 24.656ZM23.1738 18.267L23.8376 21.6767C25.0115 21.4481 25.9853 20.6318 26.4152 19.5158L23.1738 18.267ZM8.73352 6.76667L8.12816 3.34614C6.46901 3.63977 5.25984 5.08174 5.25984 6.76667L8.73352 6.76667ZM24.4865 15.7114L21.2451 16.9601C21.675 18.0761 22.6488 18.8925 23.8227 19.121L24.4865 15.7114ZM38.9268 4.21104L42.4005 4.21104C42.4005 2.52611 41.1913 1.08415 39.5322 0.790513L38.9268 4.21104ZM11.2811 31.8465V28.3728C9.53302 28.3728 8.05728 29.6718 7.83547 31.4057L11.2811 31.8465ZM34.8696 31.8465L38.3152 31.4057C38.0934 29.6718 36.6176 28.3728 34.8696 28.3728V31.8465ZM35.9039 39.9323L32.4583 40.373L32.4585 40.3744L35.9039 39.9323ZM36.4182 42.147L39.7058 41.0254L39.7058 41.0253L36.4182 42.147ZM40.3504 53.6736L37.0627 54.7951L37.063 54.796L40.3504 53.6736ZM40.8976 56.1707L44.3532 55.817L44.3532 55.8161L40.8976 56.1707ZM41.9461 66.4159V69.8895C42.9289 69.8895 43.8658 69.4732 44.5244 68.7437C45.183 68.0143 45.5018 67.0399 45.4018 66.0622L41.9461 66.4159ZM4.20453 66.4159L0.748898 66.0622C0.648826 67.0399 0.967612 68.0142 1.62624 68.7437C2.28488 69.4732 3.2217 69.8895 4.20453 69.8895V66.4159ZM5.25304 56.1718L1.79744 55.8178L1.79741 55.8181L5.25304 56.1718ZM5.80029 53.6736L9.0877 54.7958L9.08793 54.7951L5.80029 53.6736ZM9.73249 42.147L6.44488 41.0253L6.44485 41.0254L9.73249 42.147ZM10.2467 39.9323L13.6922 40.3744L13.6923 40.373L10.2467 39.9323ZM21.2515 50.8974C21.0814 48.9865 19.3945 47.5753 17.4836 47.7453C15.5726 47.9154 14.1614 49.6024 14.3315 51.5133L21.2515 50.8974ZM33.2887 51.8141C33.6249 49.9253 32.3663 48.1216 30.4776 47.7854C28.5888 47.4492 26.7851 48.7078 26.4489 50.5966L33.2887 51.8141ZM21.0128 16.9892C21.0128 18.017 20.6665 19.504 20.1978 20.9486C19.9783 21.6252 19.7577 22.2159 19.5926 22.6355C19.5105 22.8442 19.4432 23.0079 19.3981 23.1155C19.3756 23.1692 19.3587 23.2087 19.3484 23.2327C19.3433 23.2447 19.3398 23.2528 19.338 23.2567C19.3371 23.2587 19.3367 23.2597 19.3368 23.2596C19.3368 23.2596 19.3369 23.2593 19.3371 23.2588C19.3373 23.2585 19.3374 23.2581 19.3376 23.2577C19.3377 23.2575 19.3378 23.2572 19.3379 23.2571C19.3381 23.2567 19.3382 23.2563 22.5174 24.656C25.6966 26.0558 25.6968 26.0554 25.697 26.0549C25.697 26.0548 25.6972 26.0543 25.6974 26.054C25.6977 26.0533 25.698 26.0525 25.6984 26.0517C25.6991 26.05 25.7 26.0481 25.7009 26.0459C25.7028 26.0415 25.7052 26.036 25.7081 26.0295C25.7138 26.0164 25.7214 25.9989 25.7306 25.9774C25.7492 25.9343 25.7746 25.8746 25.8059 25.7998C25.8685 25.6503 25.9551 25.4396 26.0576 25.1791C26.2617 24.6604 26.5333 23.9334 26.8061 23.0925C27.322 21.5023 27.9602 19.1559 27.9602 16.9892H21.0128ZM25.8819 25.5202L27.851 17.8533L21.122 16.125L19.1529 23.7919L25.8819 25.5202ZM23.1738 18.267C26.4152 19.5158 26.4159 19.5141 26.4165 19.5124C26.4167 19.5118 26.4174 19.5101 26.4178 19.509C26.4188 19.5066 26.4197 19.5042 26.4206 19.5016C26.4226 19.4966 26.4246 19.4912 26.4268 19.4855C26.4311 19.474 26.4358 19.4612 26.441 19.447C26.4514 19.4188 26.4634 19.3851 26.4769 19.3463C26.5038 19.2687 26.5364 19.1702 26.5723 19.0524C26.6439 18.8174 26.7298 18.502 26.8097 18.12C26.9682 17.3626 27.1116 16.3044 27.0539 15.0701C26.9352 12.5273 25.951 9.30599 22.7736 6.65504L18.3229 11.9895C19.7402 13.172 20.0688 14.423 20.1141 15.3942C20.1385 15.917 20.0768 16.3761 20.0096 16.6969C19.9768 16.854 19.9447 16.9678 19.9266 17.0273C19.9176 17.0568 19.9124 17.0718 19.9127 17.071C19.9128 17.0705 19.9144 17.0661 19.9176 17.0574C19.9192 17.053 19.9212 17.0476 19.9236 17.0411C19.9248 17.0378 19.9262 17.0343 19.9276 17.0305C19.9284 17.0286 19.9291 17.0266 19.9299 17.0245C19.9303 17.0235 19.9309 17.0219 19.9311 17.0214C19.9317 17.0198 19.9323 17.0182 23.1738 18.267ZM22.7736 6.65504C19.6673 4.06335 15.86 3.32294 13.1506 3.14106C11.7542 3.04732 10.5333 3.09413 9.65643 3.16429C9.21552 3.19956 8.8549 3.24128 8.59473 3.27589C8.46447 3.29322 8.35887 3.30883 8.2804 3.32107C8.24115 3.32719 8.20864 3.33247 8.18318 3.33672C8.17044 3.33884 8.15947 3.3407 8.15028 3.34228C8.14569 3.34307 8.14155 3.34379 8.13786 3.34443C8.13602 3.34475 8.13429 3.34506 8.13267 3.34534C8.13186 3.34548 8.13073 3.34568 8.13033 3.34575C8.12923 3.34595 8.12816 3.34614 8.73352 6.76667C9.33888 10.1872 9.33787 10.1874 9.33688 10.1876C9.33658 10.1876 9.33562 10.1878 9.33503 10.1879C9.33385 10.1881 9.33278 10.1883 9.33181 10.1884C9.32988 10.1888 9.32836 10.189 9.32726 10.1892C9.32505 10.1896 9.3245 10.1897 9.32557 10.1895C9.32771 10.1892 9.3363 10.1877 9.35105 10.1854C9.38059 10.1808 9.43459 10.1727 9.51073 10.1626C9.66336 10.1423 9.90271 10.1141 10.2105 10.0895C10.831 10.0399 11.7023 10.0068 12.6852 10.0728C14.7345 10.2104 16.8346 10.7478 18.3229 11.9895L22.7736 6.65504ZM8.73352 6.76667C5.25984 6.76667 5.25984 6.76799 5.25984 6.76934C5.25984 6.76982 5.25984 6.77119 5.25984 6.77214C5.25984 6.77405 5.25985 6.77604 5.25985 6.77811C5.25987 6.78225 5.25989 6.78671 5.25991 6.7915C5.25997 6.80108 5.26007 6.81195 5.26022 6.8241C5.26052 6.84838 5.26103 6.87775 5.26189 6.91202C5.2636 6.98052 5.26671 7.06873 5.27226 7.17499C5.28335 7.38726 5.30428 7.67312 5.34378 8.01916C5.42248 8.70854 5.57663 9.6526 5.88093 10.7387C6.48591 12.8979 7.71997 15.7389 10.2489 18.2005L15.0947 13.2222C13.6853 11.8503 12.9503 10.219 12.5707 8.86429C12.3827 8.19335 12.2907 7.62001 12.2463 7.23124C12.2243 7.0382 12.2145 6.89479 12.2102 6.81257C12.208 6.77158 12.2073 6.74623 12.2071 6.73799C12.207 6.73388 12.207 6.73409 12.2071 6.7388C12.2071 6.74115 12.2071 6.74463 12.2072 6.74927C12.2072 6.75159 12.2072 6.7542 12.2072 6.75709C12.2072 6.75854 12.2072 6.76007 12.2072 6.76166C12.2072 6.76246 12.2072 6.76371 12.2072 6.76411C12.2072 6.76538 12.2072 6.76667 8.73352 6.76667ZM10.2489 18.2005C13.0507 20.9278 16.6237 21.7023 19.1403 21.8907C20.4376 21.9878 21.5756 21.9392 22.3928 21.8669C22.8044 21.8305 23.1425 21.7873 23.3882 21.7513C23.5112 21.7333 23.6116 21.7169 23.6872 21.7039C23.725 21.6974 23.7566 21.6918 23.7817 21.6872C23.7943 21.6849 23.8053 21.6828 23.8146 21.6811C23.8192 21.6802 23.8235 21.6794 23.8273 21.6786C23.8292 21.6783 23.831 21.6779 23.8328 21.6776C23.8336 21.6774 23.8348 21.6772 23.8352 21.6771C23.8364 21.6769 23.8376 21.6767 23.1738 18.267C22.51 14.8573 22.5111 14.8571 22.5122 14.8569C22.5125 14.8568 22.5136 14.8566 22.5142 14.8565C22.5155 14.8562 22.5167 14.856 22.5178 14.8558C22.5201 14.8554 22.5219 14.855 22.5234 14.8547C22.5264 14.8542 22.5279 14.8539 22.5279 14.8539C22.528 14.8539 22.5223 14.8549 22.511 14.8568C22.4885 14.8607 22.4441 14.8681 22.3799 14.8775C22.2513 14.8964 22.0458 14.9231 21.7805 14.9466C21.2439 14.9941 20.4949 15.0253 19.659 14.9627C17.9091 14.8317 16.2311 14.3283 15.0947 13.2222L10.2489 18.2005ZM24.4865 15.7114C27.728 14.4626 27.7286 14.4642 27.7292 14.4658C27.7294 14.4663 27.73 14.4679 27.7304 14.4689C27.7312 14.471 27.732 14.4729 27.7327 14.4748C27.7341 14.4786 27.7355 14.4822 27.7367 14.4854C27.7391 14.4919 27.7411 14.4974 27.7427 14.5017C27.7459 14.5104 27.7475 14.5149 27.7476 14.5154C27.7479 14.5162 27.7427 14.5011 27.7337 14.4717C27.7156 14.4122 27.6836 14.2984 27.6507 14.1413C27.5835 13.8205 27.5218 13.3614 27.5462 12.8386C27.5916 11.8674 27.9201 10.6164 29.3374 9.43392L24.8867 4.09942C21.7093 6.75036 20.7251 9.97169 20.6064 12.5145C20.5488 13.7487 20.6921 14.807 20.8506 15.5644C20.9306 15.9463 21.0164 16.2618 21.0881 16.4968C21.124 16.6146 21.1565 16.7131 21.1834 16.7907C21.1969 16.8295 21.2089 16.8631 21.2193 16.8914C21.2245 16.9056 21.2292 16.9184 21.2336 16.9298C21.2357 16.9356 21.2377 16.941 21.2397 16.946C21.2406 16.9485 21.2416 16.951 21.2425 16.9533C21.2429 16.9545 21.2436 16.9562 21.2438 16.9568C21.2444 16.9585 21.2451 16.9601 24.4865 15.7114ZM29.3374 9.43392C30.8257 8.19217 32.9258 7.65477 34.9751 7.5172C35.9581 7.45121 36.8293 7.48426 37.4498 7.5339C37.7576 7.55852 37.9969 7.58668 38.1496 7.60698C38.2257 7.61711 38.2797 7.62521 38.3093 7.62981C38.324 7.63212 38.3326 7.63354 38.3347 7.63389C38.3358 7.63407 38.3353 7.63398 38.3331 7.6336C38.332 7.63341 38.3304 7.63315 38.3285 7.63281C38.3275 7.63264 38.3265 7.63246 38.3253 7.63225C38.3247 7.63215 38.3237 7.63198 38.3234 7.63193C38.3224 7.63175 38.3214 7.63157 38.9268 4.21104C39.5322 0.790513 39.5311 0.790323 39.53 0.790129C39.5296 0.790058 39.5285 0.789859 39.5276 0.789717C39.526 0.789433 39.5243 0.78913 39.5224 0.788808C39.5188 0.788164 39.5146 0.787446 39.51 0.786657C39.5008 0.785079 39.4899 0.783216 39.4771 0.781093C39.4517 0.776848 39.4192 0.771562 39.3799 0.76544C39.3014 0.753202 39.1958 0.73759 39.0656 0.720264C38.8054 0.685659 38.4448 0.643935 38.0039 0.608661C37.127 0.538508 35.9061 0.491694 34.5097 0.585432C31.8003 0.767318 27.993 1.50772 24.8867 4.09942L29.3374 9.43392ZM38.9268 4.21104C35.4531 4.21104 35.4531 4.20975 35.4531 4.20848C35.4531 4.20809 35.4531 4.20683 35.4531 4.20604C35.4531 4.20444 35.4531 4.20292 35.4531 4.20147C35.4531 4.19857 35.4531 4.19596 35.4532 4.19365C35.4532 4.18901 35.4532 4.18553 35.4532 4.18317C35.4533 4.17847 35.4533 4.17826 35.4532 4.18237C35.453 4.19061 35.4523 4.21596 35.4501 4.25694C35.4459 4.33917 35.436 4.48257 35.414 4.67561C35.3696 5.06438 35.2776 5.63773 35.0896 6.30867C34.7101 7.66341 33.975 9.2947 32.5656 10.6666L37.4115 15.6449C39.9403 13.1833 41.1744 10.3423 41.7794 8.18303C42.0837 7.09697 42.2378 6.15292 42.3165 5.46353C42.356 5.11749 42.377 4.83163 42.3881 4.61936C42.3936 4.5131 42.3967 4.42489 42.3984 4.35639C42.3993 4.32213 42.3998 4.29275 42.4001 4.26847C42.4002 4.25633 42.4003 4.24545 42.4004 4.23588C42.4004 4.23109 42.4004 4.22662 42.4005 4.22248C42.4005 4.22041 42.4005 4.21842 42.4005 4.21651C42.4005 4.21556 42.4005 4.21419 42.4005 4.21372C42.4005 4.21237 42.4005 4.21104 38.9268 4.21104ZM32.5656 10.6666C31.4292 11.7727 29.7512 12.2761 28.0013 12.4071C27.1654 12.4697 26.4164 12.4384 25.8798 12.391C25.6145 12.3675 25.4091 12.3407 25.2804 12.3219C25.2162 12.3125 25.1718 12.3051 25.1493 12.3012C25.138 12.2993 25.1323 12.2982 25.1324 12.2983C25.1324 12.2983 25.1339 12.2985 25.1369 12.2991C25.1384 12.2994 25.1402 12.2997 25.1425 12.3002C25.1436 12.3004 25.1448 12.3006 25.1461 12.3009C25.1468 12.301 25.1478 12.3012 25.1481 12.3013C25.1492 12.3015 25.1503 12.3017 24.4865 15.7114C23.8227 19.121 23.8239 19.1213 23.8251 19.1215C23.8255 19.1216 23.8267 19.1218 23.8276 19.122C23.8293 19.1223 23.8311 19.1226 23.833 19.123C23.8368 19.1237 23.8411 19.1246 23.8457 19.1254C23.8551 19.1272 23.866 19.1292 23.8786 19.1316C23.9037 19.1362 23.9353 19.1418 23.9731 19.1483C24.0487 19.1613 24.1491 19.1776 24.2722 19.1957C24.5178 19.2317 24.8559 19.2749 25.2675 19.3113C26.0847 19.3836 27.2227 19.4322 28.5201 19.3351C31.0366 19.1466 34.6096 18.3722 37.4115 15.6449L32.5656 10.6666ZM11.2811 35.3202H34.8696V28.3728H11.2811V35.3202ZM31.424 32.2872L32.4583 40.373L39.3495 39.4915L38.3152 31.4057L31.424 32.2872ZM32.4585 40.3744C32.5848 41.3588 32.8098 42.3285 33.1305 43.2687L39.7058 41.0253C39.5359 40.5274 39.4165 40.013 39.3494 39.4901L32.4585 40.3744ZM33.1305 43.2686L37.0627 54.7951L43.638 52.552L39.7058 41.0254L33.1305 43.2686ZM37.063 54.796C37.2548 55.3577 37.3818 55.9376 37.4421 56.5252L44.3532 55.8161C44.2391 54.7045 43.999 53.6094 43.6377 52.5512L37.063 54.796ZM37.442 56.5243L38.4905 66.7695L45.4018 66.0622L44.3532 55.817L37.442 56.5243ZM41.9461 62.9422H4.20453V69.8895H41.9461V62.9422ZM7.66016 66.7696L8.70867 56.5255L1.79741 55.8181L0.748898 66.0622L7.66016 66.7696ZM8.70864 56.5258C8.76885 55.938 8.89585 55.3578 9.0877 54.7958L2.51288 52.5514C2.15147 53.61 1.91138 54.7056 1.79744 55.8178L8.70864 56.5258ZM9.08793 54.7951L13.0201 43.2686L6.44485 41.0254L2.51265 52.552L9.08793 54.7951ZM13.0201 43.2687C13.3409 42.3285 13.5658 41.3588 13.6922 40.3744L6.80129 39.4901C6.73419 40.013 6.61477 40.5274 6.44488 41.0253L13.0201 43.2687ZM13.6923 40.373L14.7267 32.2872L7.83547 31.4057L6.80112 39.4915L13.6923 40.373ZM14.3315 51.5133C14.4732 53.1053 15.1543 55.2317 16.5664 57.0346C18.067 58.9506 20.4806 60.5789 23.8302 60.5789V53.6315C22.9789 53.6315 22.4607 53.2932 22.0359 52.7508C21.5226 52.0955 21.2849 51.272 21.2515 50.8974L14.3315 51.5133ZM23.8302 60.5789C27.204 60.5789 29.58 58.927 31.0519 57.0041C32.4347 55.1975 33.0519 53.1448 33.2887 51.8141L26.4489 50.5966C26.3357 51.2325 26.034 52.1297 25.5351 52.7814C25.1254 53.3167 24.6572 53.6315 23.8302 53.6315V60.5789Z" fill="#009B22"/>
<path d="M55.3431 48C55.0343 48 54.8799 47.8456 54.8799 47.5368V35.9811C54.8799 34.6379 55.2659 33.5572 56.0378 32.7389C56.8098 31.9207 57.821 31.5116 59.0715 31.5116C60.3684 31.5116 61.4182 31.9207 62.221 32.7389C63.0238 33.5572 63.4252 34.6379 63.4252 35.9811V38.0884C63.4252 39.4316 63.0315 40.5123 62.2441 41.3305C61.4568 42.1488 60.4224 42.5579 59.141 42.5579H58.2841V47.5368C58.2841 47.8456 58.1298 48 57.821 48H55.3431ZM58.9094 39.4316C59.2954 39.4316 59.5733 39.3389 59.7431 39.1537C59.9129 38.953 59.9978 38.6365 59.9978 38.2042V35.7032C59.9978 35.3944 59.9206 35.1551 59.7663 34.9853C59.6119 34.8 59.3957 34.7074 59.1178 34.7074C58.8554 34.7074 58.647 34.8 58.4926 34.9853C58.3536 35.1551 58.2841 35.3944 58.2841 35.7032V39.4316H58.9094ZM69.0616 48.2779C67.8728 48.2779 66.9157 47.9151 66.19 47.1895C65.4644 46.4484 65.1016 45.4758 65.1016 44.2716V40.1495C65.1016 38.9453 65.4644 37.9804 66.19 37.2547C66.9157 36.5137 67.8728 36.1432 69.0616 36.1432C70.2504 36.1432 71.2076 36.5137 71.9332 37.2547C72.6588 37.9804 73.0216 38.9453 73.0216 40.1495V44.2716C73.0216 45.4758 72.6588 46.4484 71.9332 47.1895C71.2076 47.9151 70.2504 48.2779 69.0616 48.2779ZM69.0616 45.2674C69.2932 45.2674 69.4707 45.1979 69.5942 45.0589C69.7332 44.92 69.8027 44.727 69.8027 44.48V39.9411C69.8027 39.694 69.7332 39.5011 69.5942 39.3621C69.4707 39.2232 69.2932 39.1537 69.0616 39.1537C68.83 39.1537 68.6448 39.2232 68.5058 39.3621C68.3823 39.5011 68.3206 39.694 68.3206 39.9411V44.48C68.3206 44.727 68.3823 44.92 68.5058 45.0589C68.6448 45.1979 68.83 45.2674 69.0616 45.2674ZM83.6424 48.2779C82.7933 48.2779 82.0522 48.0232 81.4192 47.5137C80.7863 48.0232 80.0452 48.2779 79.1961 48.2779C78.0536 48.2779 77.135 47.9151 76.4403 47.1895C75.7456 46.4484 75.3982 45.4758 75.3982 44.2716V36.8842C75.3982 36.5754 75.5526 36.4211 75.8614 36.4211H78.0845C78.3933 36.4211 78.5477 36.5754 78.5477 36.8842V44.48C78.5477 44.727 78.6017 44.92 78.7098 45.0589C78.8333 45.1979 78.9954 45.2674 79.1961 45.2674C79.3968 45.2674 79.5512 45.1979 79.6592 45.0589C79.7828 44.92 79.8445 44.727 79.8445 44.48V36.8842C79.8445 36.5754 79.9989 36.4211 80.3077 36.4211H82.5308C82.8396 36.4211 82.994 36.5754 82.994 36.8842V44.48C82.994 44.727 83.048 44.92 83.1561 45.0589C83.2796 45.1979 83.4417 45.2674 83.6424 45.2674C83.8431 45.2674 83.9975 45.1979 84.1056 45.0589C84.2291 44.92 84.2908 44.727 84.2908 44.48V36.8842C84.2908 36.5754 84.4452 36.4211 84.754 36.4211H86.9771C87.2859 36.4211 87.4403 36.5754 87.4403 36.8842V44.2716C87.4403 45.4758 87.0929 46.4484 86.3982 47.1895C85.7035 47.9151 84.7849 48.2779 83.6424 48.2779ZM93.8767 48.2779C92.7343 48.2779 91.808 47.9151 91.0978 47.1895C90.3876 46.4484 90.0325 45.4758 90.0325 44.2716V40.0105C90.0634 38.8372 90.4417 37.9032 91.1673 37.2084C91.9083 36.4982 92.8732 36.1432 94.062 36.1432C94.7876 36.1432 95.4438 36.3053 96.0304 36.6295C96.6171 36.9537 97.0803 37.4091 97.4199 37.9958C97.7596 38.5825 97.9294 39.254 97.9294 40.0105C97.9294 41.1067 97.5666 41.9944 96.841 42.6737C96.1308 43.3375 95.1967 43.6695 94.0389 43.6695H93.2515V44.48C93.2515 44.727 93.3055 44.92 93.4136 45.0589C93.5371 45.1979 93.7069 45.2674 93.9231 45.2674C94.2318 45.2674 94.448 45.0975 94.5715 44.7579C94.6332 44.4646 94.7953 44.3179 95.0578 44.3179H97.3504C97.6746 44.3179 97.8213 44.4723 97.7904 44.7811C97.6978 45.8309 97.2964 46.68 96.5862 47.3284C95.876 47.9614 94.9729 48.2779 93.8767 48.2779ZM94.0389 40.8674C94.4866 40.8674 94.7104 40.6049 94.7104 40.08C94.7104 39.4625 94.4634 39.1537 93.9694 39.1537C93.7378 39.1537 93.5603 39.2232 93.4367 39.3621C93.3132 39.5011 93.2515 39.694 93.2515 39.9411V40.8674H94.0389ZM100.815 48C100.506 48 100.352 47.8456 100.352 47.5368V41.3537C100.352 39.7944 100.753 38.5825 101.556 37.7179C102.359 36.8533 103.463 36.4211 104.868 36.4211H105.423C105.732 36.4211 105.886 36.5754 105.886 36.8842V38.9684C105.886 39.2772 105.732 39.4316 105.423 39.4316H104.983C104.536 39.4316 104.181 39.5628 103.918 39.8253C103.671 40.0877 103.548 40.4505 103.548 40.9137V47.5368C103.548 47.8456 103.393 48 103.084 48H100.815ZM55.3431 69C55.0343 69 54.8799 68.8456 54.8799 68.5368V56.9811C54.8799 55.6379 55.2659 54.5572 56.0378 53.7389C56.8098 52.9207 57.821 52.5116 59.0715 52.5116C60.3684 52.5116 61.4182 52.9207 62.221 53.7389C63.0238 54.5572 63.4252 55.6379 63.4252 56.9811V59.0884C63.4252 60.4316 63.0315 61.5123 62.2441 62.3305C61.4568 63.1488 60.4224 63.5579 59.141 63.5579H58.2841V68.5368C58.2841 68.8456 58.1298 69 57.821 69H55.3431ZM58.9094 60.4316C59.2954 60.4316 59.5733 60.3389 59.7431 60.1537C59.9129 59.953 59.9978 59.6365 59.9978 59.2042V56.7032C59.9978 56.3944 59.9206 56.1551 59.7663 55.9853C59.6119 55.8 59.3957 55.7074 59.1178 55.7074C58.8554 55.7074 58.647 55.8 58.4926 55.9853C58.3536 56.1551 58.2841 56.3944 58.2841 56.7032V60.4316H58.9094ZM66.044 69C65.7353 69 65.5809 68.8456 65.5809 68.5368V53.2526C65.5809 52.9439 65.7353 52.7895 66.044 52.7895H68.3135C68.6223 52.7895 68.7767 52.9439 68.7767 53.2526V68.5368C68.7767 68.8456 68.6223 69 68.3135 69H66.044ZM75.239 69.2779C74.0193 69.2779 73.0313 68.9151 72.2748 68.1895C71.5337 67.4639 71.1632 66.5067 71.1632 65.3179C71.1632 64.2681 71.5183 63.4112 72.2285 62.7474C72.9541 62.0835 73.8881 61.7516 75.0306 61.7516H75.8179V60.9411C75.8179 60.694 75.7562 60.5011 75.6327 60.3621C75.5246 60.2232 75.3625 60.1537 75.1464 60.1537C74.7295 60.1537 74.5057 60.3698 74.4748 60.8021C74.4593 60.9411 74.413 61.0337 74.3358 61.08C74.2741 61.1109 74.166 61.1263 74.0116 61.1263H71.7653C71.4411 61.1263 71.2944 60.9719 71.3253 60.6632C71.4179 59.5979 71.8116 58.7488 72.5064 58.1158C73.2165 57.4674 74.112 57.1432 75.1927 57.1432C76.3351 57.1432 77.2537 57.5137 77.9485 58.2547C78.6586 58.9804 79.0137 59.9453 79.0137 61.1495V65.48C79.0137 66.6379 78.6818 67.5642 78.0179 68.2589C77.3541 68.9382 76.4278 69.2779 75.239 69.2779ZM75.1927 66.2442C75.6095 66.2442 75.8179 65.9972 75.8179 65.5032V64.5074H75.239C74.9611 64.5074 74.7449 64.5768 74.5906 64.7158C74.4516 64.8547 74.3821 65.0554 74.3821 65.3179C74.3821 65.6112 74.4516 65.8428 74.5906 66.0126C74.7449 66.167 74.9457 66.2442 75.1927 66.2442ZM82.0624 69C81.7536 69 81.5993 68.8456 81.5993 68.5368V61.1495C81.5993 59.9453 81.9544 58.9804 82.6645 58.2547C83.3747 57.5137 84.3165 57.1432 85.4898 57.1432C86.6631 57.1432 87.6049 57.5137 88.3151 58.2547C89.0252 58.9804 89.3803 59.9453 89.3803 61.1495V68.5368C89.3803 68.8456 89.2259 69 88.9172 69H86.6477C86.3389 69 86.1845 68.8456 86.1845 68.5368V60.9411C86.1845 60.694 86.1228 60.5011 85.9993 60.3621C85.8758 60.2232 85.7059 60.1537 85.4898 60.1537C85.2736 60.1537 85.1038 60.2232 84.9803 60.3621C84.8568 60.5011 84.7951 60.694 84.7951 60.9411V68.5368C84.7951 68.8456 84.6407 69 84.3319 69H82.0624ZM97.8409 66.1053C98.1497 66.1053 98.3041 66.2596 98.3041 66.5684V68.6526C98.3041 68.9614 98.1497 69.1158 97.8409 69.1158H97.3546C96.0114 69.1158 94.9462 68.7144 94.1588 67.9116C93.3869 67.1088 93.0009 66.0204 93.0009 64.6463V60.2926H91.9588C91.65 60.2926 91.4956 60.1382 91.4956 59.8295V57.8842C91.4956 57.5754 91.65 57.4211 91.9588 57.4211H93.0009V54.4568C93.0009 54.1481 93.1553 53.9937 93.4641 53.9937H95.7335C96.0423 53.9937 96.1967 54.1481 96.1967 54.4568V57.4211H97.5862C97.8949 57.4211 98.0493 57.5754 98.0493 57.8842V59.8295C98.0493 60.1382 97.8949 60.2926 97.5862 60.2926H96.1967V64.6926C96.1967 65.1867 96.3125 65.5495 96.5441 65.7811C96.7756 65.9972 97.1385 66.1053 97.6325 66.1053H97.8409ZM104.017 69.2779C102.875 69.2779 101.949 68.9151 101.238 68.1895C100.528 67.4484 100.173 66.4758 100.173 65.2716V61.0105C100.204 59.8372 100.582 58.9032 101.308 58.2084C102.049 57.4982 103.014 57.1432 104.203 57.1432C104.928 57.1432 105.584 57.3053 106.171 57.6295C106.758 57.9537 107.221 58.4091 107.561 58.9958C107.9 59.5825 108.07 60.254 108.07 61.0105C108.07 62.1067 107.707 62.9944 106.982 63.6737C106.271 64.3375 105.337 64.6695 104.179 64.6695H103.392V65.48C103.392 65.727 103.446 65.92 103.554 66.0589C103.678 66.1979 103.848 66.2674 104.064 66.2674C104.372 66.2674 104.589 66.0975 104.712 65.7579C104.774 65.4646 104.936 65.3179 105.198 65.3179H107.491C107.815 65.3179 107.962 65.4723 107.931 65.7811C107.838 66.8309 107.437 67.68 106.727 68.3284C106.017 68.9614 105.114 69.2779 104.017 69.2779ZM104.179 61.8674C104.627 61.8674 104.851 61.6049 104.851 61.08C104.851 60.4625 104.604 60.1537 104.11 60.1537C103.878 60.1537 103.701 60.2232 103.577 60.3621C103.454 60.5011 103.392 60.694 103.392 60.9411V61.8674H104.179Z" fill="black"/>
</svg>
