<svg width="458" height="152" viewBox="0 0 458 152" fill="none" xmlns="http://www.w3.org/2000/svg">
<path d="M447.683 132.031C451.197 97.3423 456.535 49.5066 450.445 15.7074C346.406 13.3007 242.666 11.6672 138.548 13.9302C99.039 14.789 56.458 22.0838 17.1643 17.6111C18.6324 48.6158 18.6773 79.5796 19.8969 110.537C20.3965 123.215 24.9454 136.761 23.5821 149.433C140.082 148.559 256.675 137.978 373.255 141.748C395.6 142.471 418.183 139.106 440.522 141.764C381.611 136.805 321.377 141.117 262.336 141.858C222.864 142.354 183.383 136.425 143.771 136.715C106.315 136.989 68.8991 144.407 31.5514 143.919C22.536 99.3237 10.7864 53.9341 5.00301 8.76394C28.8074 8.26784 52.5818 4.97971 76.3458 4.78579C202.846 3.75324 329.184 5.49846 455.529 10.5859C455.312 50.5662 445.899 89.1552 443.457 128.728C440.084 87.594 448.529 46.4011 446.158 5.39511C430.599 1.81611 412.446 4.19865 396.601 3.93091C354.85 3.22466 313.531 2.38946 271.78 3.6553C219.27 5.24695 167.014 7.63986 114.512 9.98353C78.5258 11.5895 38.3992 8.63056 3 17.109C6.67054 60.6649 11.0276 104.235 15.213 147.713" stroke="#FEFEFE" stroke-width="4.09971" stroke-miterlimit="1.5" stroke-linecap="round" stroke-linejoin="round"/>
</svg>
