<svg width="440" height="150" viewBox="0 0 440 150" fill="none" xmlns="http://www.w3.org/2000/svg">
<path fill-rule="evenodd" clip-rule="evenodd" d="M0.359982 115.107L-0.000185953 117.16L0.178953 121.526L1.535 125.21L4.32602 129.014L7.93585 132.099L12.6774 134.925L15.4784 136.25L21.7656 138.665L29.4442 140.913L37.6708 142.687L46.8386 144.148L48.5539 145.845L51.4992 147.34L54.2248 148.235L59.6885 149.326L64.3283 149.735L72.9711 149.711L84.3345 149.032L106.949 146.314L127.198 144.986L153.797 142.037L174.248 139.034L188.208 136.625L209.42 132.476L230.59 127.816L251.949 122.598L272.972 116.912L299.628 108.797L319.241 102.088L337.262 95.0413L354.283 87.448L370.081 79.4732L384.415 71.195L397.381 62.5475L405.155 56.8063L412.179 51.1701L418.563 45.406L424.191 39.7667L428.914 34.5796L428.928 34.5627L432.563 30.1159L434.231 27.6748L436.197 24.0557L438.49 18.1077L439.381 14.5601L439.17 7.56703L437.133 0.966324L435.8 -3.02046e-05L434.525 0.412995L434.028 1.96542L436.085 8.79884L436.262 12.9846L435.781 15.9047L433.828 21.2974L432.328 24.5226L430.145 27.9945L424.5 34.6781L419.366 40.0726L413.401 45.7582L406.766 51.3997L395.475 59.8968L387.051 65.6431L377.987 71.2831L368.344 76.7172L358.019 82.0363L347.091 87.2248L335.682 92.2065L335.659 92.2162L323.838 96.9515L305.117 103.637L305.094 103.644L292.589 107.692L292.572 107.697L272.524 113.71L244.448 121.177L209.096 129.244L180.933 134.628L153.581 138.788L141.266 140.288L143.559 139.856L167.345 134.677L192.532 128.406L212.006 123.017L231.312 117.097L251.189 110.468L269.95 103.485L288.004 95.9139L305.23 87.8817L320.805 79.6984L334.973 71.2072L347.236 62.7719L354.021 57.3705L362.318 49.4278L366.537 44.3546L368.517 41.5118L369.906 39.1574L371.732 34.7468L372.215 32.5842L372.39 29.9773L371.874 26.1323L371.148 24.251L368.608 20.5577L366.961 19.0235L362.954 16.362L357.983 14.0463L348.615 10.9773L337.714 8.73028L325.228 7.14935L311.571 6.20568L296.55 5.89764L286.024 6.10159L269.748 7.082L252.662 8.83455L235.112 11.3632L223.222 13.4952L205.028 17.3437L186.488 21.9454L167.477 27.3602L147.718 33.6365L128.628 40.242L109.462 47.4343L90.8713 54.958L73.4763 62.5876L56.9785 70.4266L46.9265 75.6075L33.7531 83.1304L22.5113 90.5039L13.486 97.5502L6.73843 104.229L3.18408 108.923L1.94006 111.053L0.359982 115.107ZM4.54382 123.923L3.35425 120.692L3.19714 117.793L4.09533 114.171L4.9544 112.292L6.09997 110.338L8.92941 106.627L15.5269 100.102L24.4274 93.1481L31.623 88.3102L39.7151 83.3709L53.5416 75.8021L69.4893 67.9938L92.4678 57.7855L111.004 50.2791L136.468 40.8525L155.116 34.5679L174.324 28.6614L193.103 23.5445L211.485 19.2068L229.48 15.625L247.066 12.8412L264.283 10.8408L280.769 9.60496L296.553 9.16177L311.494 9.46803L329.336 10.8586L341.244 12.6405L351.236 15.0565L356.408 16.8824L361.192 19.1134L364.985 21.6329L366.4 22.9515L368.136 25.5207L368.738 27.076L369.087 28.713L369.035 31.8393L367.891 35.7984L365.582 40.1274L362.352 44.4879L357.69 49.5694L351.991 54.8156L345.3 60.1383L337.441 65.6827L328.599 71.3366L319.037 76.9414L308.909 82.3777L297.973 87.7739L297.952 87.7841L286.384 93.0786L286.365 93.0871L274.421 98.1853L274.402 98.1933L262.28 103.004L262.259 103.011L249.699 107.605L249.678 107.613L230.359 114.085L230.34 114.091L211.561 119.876L179.326 128.599L149.062 135.636L126.721 140.013L112.02 142.481L108.124 142.998L89.9911 143.46L78.451 143.337L62.2667 142.522L52.4118 141.574L51.6729 140.959L51.3297 140.22L51.3297 139.492L50.1902 137.924L48.347 137.325L46.5042 137.924L45.3756 139.477L45.3277 140.639L37.9728 139.451L29.8455 137.694L23.1296 135.75L17.0786 133.428L11.982 130.823L8.00674 128.016L6.50839 126.59L4.54382 123.923Z" fill="white" fill-opacity="0.15"/>
</svg>
