<svg width="654" height="188" viewBox="0 0 654 188" fill="none" xmlns="http://www.w3.org/2000/svg">
<path d="M649.619 84.0781L651.123 78.4815L651.274 75.1514L650.26 69.7346L647.583 64.6028L643.17 59.7914L636.57 54.8224L628.97 50.619L620.062 46.7884L609.422 43.313L596.316 39.9767L583.332 37.2225L570.547 34.8891L557.826 33.0657L544.819 31.7035L514.736 29.2568L470.04 26.8318L420.179 25.1037L418.935 27.067L421.426 28.2819L466.861 29.972L503.859 31.8227L538.066 34.4049L557.312 36.3073L576.097 39.2074L588.947 41.7246L600.853 44.473L612.035 47.6732L616.899 49.3798L625.519 53.0866L632.836 57.1373L635.898 59.234L640.446 63.2482L642.285 65.5133L643.722 67.8534L645.47 72.8676L645.655 77.637L644.227 82.9763L642.903 85.634L638.958 91.1538L633.35 96.8237L629.965 99.6478L622.476 104.867L617.918 107.558L607.5 112.885L601.705 115.496L581.937 123.143L559.031 130.25L532.645 136.808L493.499 144.86L461.536 150.387L404.688 158.769L359.392 164.818L313.828 170.253L270.622 174.831L270.585 174.834L239.691 177.601L201.351 180.136L174.545 181.206L149.212 181.481L133.069 181.218L117.638 180.611L96.1133 179.055L82.9007 177.577L70.5223 175.745L53.9609 172.44L44.9933 170.04L36.4181 167.181L28.9359 164.027L25.6555 162.354L22.6658 160.607L17.6449 156.962L14.0443 153.259L11.1826 148.907L9.35931 144.22L8.83622 141.801L8.86454 134.336L10.2175 128.647L12.5101 122.702L15.6494 116.559L19.7329 110.083L24.7155 103.43L30.5722 96.7914L37.2447 90.301L44.766 83.7889L57.13 74.5864L71.9785 65.6417L88.762 57.2706L107.563 49.5333L128.476 42.5655L151.483 36.3227L176.561 30.6798L194.557 27.2241L223.391 22.5238L252.669 18.524L284.149 15.0089L316.601 12.0817L359.139 9.06599L390.779 7.48146L430.124 6.16065L465.823 5.78808L497.307 6.08672L524.21 7.04029L552.028 8.6678L587.155 11.9967L603.118 13.9349L612.578 15.3721L615.031 14.494L615.104 13.1499L612.96 12.1091L602.006 10.4802L584.507 8.40609L557.113 5.78539L541.906 4.70649L517.995 3.47618L482.138 2.59373L439.208 2.70281L390.496 4.20383L348.119 6.45204L316.155 8.81781L294.438 10.7098L262.326 14.0357L230.943 18.0749L201.455 22.5987L173.901 27.7164L148.672 33.3931L125.488 39.6801L104.381 46.7122L91.4703 51.8529L73.842 60.1156L58.1675 68.9399L43.9349 78.8486L32.2043 88.7073L22.3766 98.6215L14.47 108.737L10.3347 115.303L7.13412 121.555L3.97769 130.568L3.05811 139.511L3.33554 142.204L4.69875 147.228L5.79599 149.669L8.80841 154.255L13.4972 158.966L18.8986 162.899L22.0809 164.754L25.5535 166.523L33.2968 169.791L46.9056 174.081L63.8635 177.906L82.3638 180.816L102.738 182.923L125.147 184.234L149.276 184.759L174.749 184.482L201.681 183.408L230.228 181.621L260.628 179.095L314.427 173.506L360.04 168.061L395.69 163.37L452.698 155.152L485.697 149.746L516.148 143.892L544.579 137.615L561.944 133.156L577.705 128.443L598.745 120.884L616.423 112.912L626.165 107.442L630.465 104.602L634.898 101.329L641.457 95.5207L644.153 92.5928L648.213 86.9167L649.619 84.0781Z" fill="white" stroke="#FFC149" stroke-opacity="0.39" stroke-width="5.08151" stroke-linecap="round"/>
</svg>
