<svg width="87" height="130" viewBox="0 0 87 130" fill="none" xmlns="http://www.w3.org/2000/svg">
<path d="M30.4798 4C30.9331 13.7773 30.3239 23.8598 31.2663 33.5843" stroke="#FEFEFE" stroke-width="8" stroke-miterlimit="1.5" stroke-linecap="round" stroke-linejoin="round"/>
<path d="M4 43.5438C8.98946 43.1866 15.1809 41.2056 20.1474 41.7671" stroke="#FEFEFE" stroke-width="8" stroke-miterlimit="1.5" stroke-linecap="round" stroke-linejoin="round"/>
<path d="M39.5723 39.87C45.5279 40.5817 51.5041 39.636 57.484 40.3193" stroke="#FEFEFE" stroke-width="8" stroke-miterlimit="1.5" stroke-linecap="round" stroke-linejoin="round"/>
<path d="M30.8715 49.9099C30.6686 57.2943 30.6958 64.6794 30.6938 72.0658" stroke="#FEFEFE" stroke-width="8" stroke-miterlimit="1.5" stroke-linecap="round" stroke-linejoin="round"/>
<path d="M17.6053 95.3532C14.27 95.4155 12.9203 100.615 16.7474 101.28C18.4706 101.579 21.2096 98.874 19.7429 97.2997" stroke="#FEFEFE" stroke-width="8" stroke-miterlimit="1.5" stroke-linecap="round" stroke-linejoin="round"/>
<path d="M52.8734 73.21C52.343 79.0167 52.8053 84.7774 52.921 90.5902" stroke="#FEFEFE" stroke-width="8" stroke-miterlimit="1.5" stroke-linecap="round" stroke-linejoin="round"/>
<path d="M39.9916 99.1147C41.9272 98.8712 43.9284 98.514 45.8843 98.5295" stroke="#FEFEFE" stroke-width="8" stroke-miterlimit="1.5" stroke-linecap="round" stroke-linejoin="round"/>
<path d="M60.7279 97.9226C63.3258 98.0076 65.8561 97.6905 68.4446 97.5529" stroke="#FEFEFE" stroke-width="8" stroke-miterlimit="1.5" stroke-linecap="round" stroke-linejoin="round"/>
<path d="M53.7864 106.09C53.4982 112.399 53.5618 118.72 53.5578 125.035" stroke="#FEFEFE" stroke-width="8" stroke-miterlimit="1.5" stroke-linecap="round" stroke-linejoin="round"/>
<path d="M73.592 46.5746C69.255 47.6155 68.4644 53.5115 73.6595 53.6086C75.4633 53.6424 79.2731 50.0717 76.5687 48.8541" stroke="#FEFEFE" stroke-width="8" stroke-miterlimit="1.5" stroke-linecap="round" stroke-linejoin="round"/>
<path d="M76.5991 20.5213C69.8993 18.2359 61.4148 28.2107 69.2024 32.1251C77.584 36.3386 87.5361 25.9354 78.6964 20.3033" stroke="#FEFEFE" stroke-width="8" stroke-miterlimit="1.5" stroke-linecap="round" stroke-linejoin="round"/>
</svg>
