<svg width="404" height="214" viewBox="0 0 404 214" fill="none" xmlns="http://www.w3.org/2000/svg">
<path d="M70.8452 56.464C72.3495 56.7892 73.4019 57.0366 74.0024 57.2062C74.9069 55.4167 75.5223 53.9445 75.8485 52.7897C76.0377 52.1199 76.4787 51.8829 77.1716 52.0786C77.7952 52.2548 78.4728 52.8577 79.2045 53.8873C79.9361 54.917 80.1812 55.8591 79.9398 56.7137C79.8289 57.1063 79.5423 57.7236 79.08 58.5657L79.2879 58.6244C80.9277 59.0876 81.842 59.4706 82.0309 59.7733C82.2493 60.0595 82.3653 60.2668 82.3789 60.3953C82.3924 60.5239 82.3666 60.7036 82.3014 60.9346C82.0469 61.8353 80.3532 62.0926 77.2202 61.7064C76.4231 63.0274 75.1764 65.057 73.4803 67.795L74.9007 68.1962C75.9631 68.4963 76.7404 68.7907 77.2324 69.0793C77.7245 69.368 77.9823 69.6029 78.006 69.7842C78.0592 69.9488 78.0401 70.1928 77.9488 70.5162C77.6683 71.5093 75.5194 71.7004 71.5022 71.0894C70.2031 73.2163 69.1101 74.7904 68.223 75.8118C67.3656 76.8165 66.6482 77.2374 66.0708 77.0742C65.6551 76.9568 65.3902 76.5702 65.2761 75.9146C65.1917 75.2423 65.2488 74.5103 65.4475 73.7185C65.3837 73.3263 65.8666 72.1908 66.8961 70.312C65.0821 70.024 63.6903 69.8304 62.7208 69.7311C61.5562 71.6466 60.6439 73.0224 59.9837 73.8585C59.3532 74.6779 58.807 75.0224 58.3451 74.8919C57.837 74.7484 57.5025 74.2549 57.3418 73.4114C57.2041 72.5745 57.2672 71.6446 57.5312 70.6219C57.4845 70.4341 57.6511 69.9325 58.0311 69.1171C56.4646 68.924 55.5774 68.7981 55.3695 68.7394C54.9704 68.6516 54.6972 68.2502 54.55 67.5352C54.4259 66.8268 54.4519 66.1608 54.6281 65.5372C54.8825 64.6365 56.8105 64.4329 60.4119 64.9265C61.8189 62.5058 62.8274 60.7457 63.4373 59.6461C61.2146 59.3923 59.93 59.2165 59.5835 59.1186C59.2371 59.0207 58.987 58.6259 58.8333 57.9341C58.7092 57.2256 58.7352 56.5596 58.9114 55.936C59.1854 54.966 61.4349 54.8158 65.6599 55.4856C66.6724 53.4024 67.3547 51.7372 67.707 50.49C67.9424 49.8332 68.3835 49.5962 69.0302 49.7789C69.6769 49.9615 70.366 50.5677 71.0977 51.5974C71.8293 52.627 72.0745 53.5691 71.8331 54.4237C71.7156 54.8394 71.3864 55.5195 70.8452 56.464ZM65.1468 65.7777C66.641 66.0501 67.8963 66.3299 68.9125 66.6169C70.185 64.4077 71.2506 62.4891 72.1095 60.8613C71.5125 60.7675 70.3153 60.5914 68.5178 60.333C67.9963 61.2082 66.8726 63.0231 65.1468 65.7777ZM106.728 68.6574C107.628 68.9118 108.209 69.7244 108.471 71.095C108.732 72.4656 108.722 73.6475 108.442 74.6407C108.161 75.6338 107.547 77.0565 106.6 78.9088C105.683 80.7445 104.55 82.4572 103.203 84.0469C101.886 85.6201 100.754 86.2729 99.8072 86.0054C99.045 85.7901 98.8107 85.1628 99.1043 84.1235C99.3979 83.0842 100.178 81.4714 101.444 79.2852C102.71 77.099 103.447 75.6364 103.656 74.8973C103.865 74.1582 103.853 73.7561 103.622 73.6908C103.137 73.5538 102.41 73.9219 101.44 74.7952C100.47 75.6684 99.2606 76.8605 97.8113 78.3714C96.3851 79.8888 95.4847 80.869 95.1102 81.3119C94.7357 81.7547 94.4252 82.1035 94.1788 82.3581C93.9554 82.6192 93.7056 82.8853 93.4295 83.1564C92.3446 84.1718 91.3631 83.8945 90.4847 82.3246C90.0373 81.5249 89.8853 80.8709 90.0289 80.3628C90.055 80.2704 90.4876 79.445 91.3269 77.8864C92.1958 76.3113 92.9336 74.4498 93.5404 72.3018C93.7948 71.4011 93.8181 70.9213 93.6102 70.8626C93.3331 70.7843 92.9315 70.9702 92.4053 71.4201C91.8792 71.87 91.0296 72.7148 89.8564 73.9546C88.6832 75.1944 87.6857 76.2094 86.8639 76.9998C83.9908 79.7545 82.0462 80.9884 81.03 80.7013C80.5219 80.5578 80.0074 79.9511 79.4866 78.8812C78.9889 77.8179 78.8021 77.0668 78.926 76.628C79.0565 76.1661 79.6172 75.1523 80.6081 73.5867C81.6286 72.0046 82.4822 70.263 83.1688 68.3621C83.8785 66.4677 84.4444 64.994 84.8665 63.9411C85.3117 62.8947 85.7422 62.4302 86.1579 62.5477C87.0356 62.7956 87.7742 63.4033 88.3738 64.3707C89.003 65.3215 89.2328 66.0972 89.0632 66.6977C88.6783 68.0604 87.5097 70.299 85.5575 73.4137C88.2638 70.0133 90.3637 67.7883 91.8572 66.7388C93.4331 65.6627 94.7638 65.2779 95.8493 65.5845C96.4498 65.7542 97.0323 66.5173 97.5968 67.8738C98.1844 69.2368 98.3412 70.4034 98.0672 71.3734C97.7997 72.3204 97.5533 73.1486 97.328 73.858C98.5528 72.2588 100.108 70.9025 101.994 69.7892C103.879 68.6758 105.457 68.2986 106.728 68.6574ZM124.251 82.2861C124.562 82.7731 124.675 83.1667 124.591 83.4669C124.506 83.7672 124.191 84.3516 123.646 85.2203C123.102 86.0889 122.708 86.7758 122.466 87.2809C122.23 87.763 122.035 88.1443 121.881 88.425C121.75 88.7122 121.647 88.9449 121.571 89.1232C121.503 89.2783 121.398 89.4731 121.257 89.7076C121.139 89.9486 121.034 90.1435 120.942 90.2921C120.88 90.4241 120.785 90.5843 120.657 90.7726C120.558 90.9443 120.458 91.0781 120.356 91.174C120.261 91.2469 120.151 91.328 120.025 91.4173C119.835 91.563 119.578 91.5901 119.254 91.4988C118.931 91.4074 118.618 90.9699 118.316 90.1862C118.037 89.409 117.912 88.5259 117.942 87.5368C115.145 89.1408 113.007 89.734 111.529 89.3165C110.535 89.0359 109.615 88.1898 108.767 86.7781C107.925 85.3432 107.657 84.0831 107.964 82.9975C108.277 81.8889 109.217 80.4586 110.785 78.7067C112.352 76.9548 114.235 75.4541 116.433 74.2047C118.655 72.9618 120.609 72.5784 122.295 73.0547C123.265 73.3287 124.225 74.211 125.176 75.7015C126.126 77.1921 126.468 78.4108 126.2 79.3578C125.939 80.2816 125.289 81.2577 124.251 82.2861ZM112.623 84.9121C113.547 85.1731 114.947 84.8953 116.824 84.0787C118.73 83.2455 120.139 81.9226 121.05 80.11C121.151 79.8394 121.393 79.7331 121.776 79.7913C122.078 78.4553 122.045 77.7351 121.675 77.6307C120.752 77.3697 119.543 77.6766 118.048 78.5514C116.578 79.4327 115.28 80.4504 114.156 81.6043C113.055 82.7647 112.413 83.6683 112.231 84.3149C112.178 84.4997 112.166 84.6333 112.192 84.7156C112.249 84.7814 112.392 84.8469 112.623 84.9121ZM141.029 86.4269C141.264 86.9174 141.304 87.4398 141.147 87.9941C140.99 88.5484 140.567 89.1645 139.877 89.8424C138.908 91.065 137.914 92.6422 136.894 94.5738C135.875 96.5054 134.973 98.0213 134.188 99.1214C133.42 100.251 132.658 101.183 131.902 101.917C131.169 102.658 130.294 103.196 129.276 103.532C128.258 103.868 127.195 103.88 126.087 103.567C124.539 103.129 123.297 102.23 122.36 100.868C121.423 99.5058 121.059 98.4553 121.268 97.7162C121.47 97.0002 121.852 96.3974 122.414 95.9078C122.97 95.4413 123.41 95.2537 123.733 95.3451C124.079 95.4429 124.351 95.719 124.546 96.1734C124.765 96.6343 124.943 97.1085 125.08 97.596C125.233 98.1131 125.477 98.6184 125.811 99.1119C126.146 99.6054 126.579 99.9272 127.11 100.077C127.641 100.227 128.224 100.018 128.858 99.4489C129.493 98.88 130.04 98.2239 130.499 97.4808C131.612 95.75 132.351 94.5 132.718 93.7308C130.874 94.2572 129.455 94.3801 128.462 94.0996C127.492 93.8256 126.695 93.0269 126.071 91.7035C125.454 90.357 125.279 89.2103 125.546 88.2633C125.82 87.2933 126.414 86.1641 127.326 84.8756C128.269 83.5706 129.346 82.3163 130.559 81.1127C131.801 79.8925 133.193 78.9389 134.734 78.2519C136.298 77.5714 137.715 77.4105 138.985 77.7693C139.84 78.0107 140.505 78.4357 140.982 79.0441C141.465 79.6295 141.744 80.3193 141.819 81.1136C141.951 82.4978 141.796 83.9751 141.352 85.5457C141.287 85.7766 141.179 86.0704 141.029 86.4269ZM129.857 89.2938C129.772 89.5941 129.856 89.7801 130.11 89.8518C130.78 90.041 132.039 89.7356 133.886 88.9356C135.733 88.1356 137.08 87.2068 137.927 86.1493L138.113 85.4911C138.537 83.9898 138.656 83.0384 138.471 82.6368C138.378 82.4359 138.216 82.3029 137.985 82.2377C136.876 81.9245 135.323 82.7451 133.324 84.6994C131.326 86.6537 130.17 88.1852 129.857 89.2938ZM146.389 86.1828L147.287 82.2093C147.652 80.9159 148.239 80.3833 149.047 80.6117C149.509 80.7422 149.911 81.0426 150.252 81.513C150.616 81.9899 150.809 82.6306 150.831 83.4349C151.812 82.9638 152.823 82.6509 153.864 82.4961C154.935 82.3248 155.829 82.3403 156.545 82.5425C158.231 83.0188 158.96 83.6611 158.731 84.4694C158.614 84.8852 158.445 85.1741 158.225 85.3363C158.034 85.482 157.879 85.5879 157.761 85.6542C157.665 85.727 157.491 85.8149 157.237 85.9179C157.013 86.0042 156.845 86.069 156.734 86.1122C156.104 86.3086 155.655 86.4435 155.385 86.5168C154.163 86.8699 153.052 87.404 152.052 88.1191C151.058 88.8111 150.148 89.9132 149.322 91.4256C147.948 93.9055 146.775 95.7189 145.803 96.8657C144.86 97.996 144.019 98.4568 143.28 98.248C142.564 98.0458 142.119 97.546 141.945 96.7487C141.795 95.958 141.804 95.2624 141.974 94.6619C142.15 94.0383 142.63 93.1764 143.415 92.0763C144.222 90.9826 144.831 90.0198 145.241 89.1878C145.68 88.3393 146.063 87.3376 146.389 86.1828ZM172.38 94.1979C172.06 95.3297 170.999 96.1273 169.197 96.591C167.419 97.0611 165.721 97.0679 164.104 96.6112C162.487 96.1545 161.192 95.6639 160.218 95.1393C159.834 95.7042 159.554 96.2984 159.378 96.922C159.201 97.5456 159.178 98.0254 159.308 98.3612C159.444 98.674 159.928 98.9478 160.759 99.1827C162.491 99.672 164.015 99.9279 165.331 99.9503C166.669 99.9793 167.361 100 167.408 100.013C168.355 100.281 168.74 100.726 168.564 101.35C168.309 102.251 167.317 102.893 165.588 103.278C163.881 103.668 162.046 103.586 160.083 103.032C158.143 102.484 156.757 101.431 155.925 99.8747C155.093 98.3178 154.912 96.7079 155.381 95.045C155.858 93.359 156.838 91.7407 158.324 90.1901C159.832 88.646 161.499 87.4707 163.323 86.6642C165.153 85.8345 166.796 85.6252 168.251 86.0362C169.729 86.4538 170.886 87.5662 171.722 89.3736C172.565 91.1579 172.784 92.766 172.38 94.1979ZM168.518 92.5084C168.583 92.2775 168.435 91.8741 168.074 91.2982C167.713 90.7224 167.313 90.3725 166.874 90.2485C166.458 90.1311 165.827 90.2896 164.981 90.724C164.142 91.1353 163.285 91.7412 162.411 92.5416C162.612 92.6234 162.909 92.7197 163.302 92.8307C166.466 93.7245 168.204 93.617 168.518 92.5084ZM189.296 98.9763C188.976 100.108 187.915 100.906 186.114 101.369C184.335 101.84 182.637 101.846 181.02 101.39C179.403 100.933 178.108 100.442 177.134 99.9177C176.75 100.483 176.47 101.077 176.294 101.7C176.118 102.324 176.094 102.804 176.224 103.14C176.36 103.452 176.844 103.726 177.675 103.961C179.407 104.45 180.931 104.706 182.247 104.729C183.585 104.758 184.278 104.779 184.324 104.792C185.271 105.059 185.656 105.505 185.48 106.128C185.226 107.029 184.234 107.672 182.504 108.056C180.797 108.447 178.963 108.365 176.999 107.81C175.059 107.262 173.673 106.21 172.841 104.653C172.009 103.096 171.828 101.486 172.297 99.8234C172.774 98.1374 173.755 96.5191 175.24 94.9685C176.749 93.4244 178.415 92.2491 180.239 91.4426C182.069 90.6129 183.712 90.4036 185.167 90.8146C186.645 91.2322 187.802 92.3446 188.639 94.152C189.481 95.9363 189.7 97.5444 189.296 98.9763ZM185.434 97.2868C185.499 97.0559 185.351 96.6525 184.99 96.0766C184.629 95.5008 184.229 95.1509 183.79 95.027C183.374 94.9095 182.744 95.068 181.898 95.5024C181.058 95.9137 180.201 96.5196 179.327 97.32C179.528 97.4018 179.825 97.4982 180.218 97.6091C183.382 98.5029 185.121 98.3955 185.434 97.2868ZM205.271 96.4934C206.472 96.8326 207.369 97.6722 207.963 99.0122C208.587 100.336 208.726 101.609 208.38 102.833C207.826 104.797 206.922 106.761 205.668 108.726C204.444 110.675 203.288 112.119 202.2 113.058C201.135 114.004 200.209 114.367 199.424 114.145C198.662 113.929 198.434 113.279 198.741 112.194C198.976 111.362 199.83 109.795 201.303 107.493C202.468 105.578 203.177 104.169 203.432 103.269C203.686 102.368 203.698 101.885 203.467 101.82C203.166 101.735 202.824 101.8 202.439 102.016C202.077 102.237 201.771 102.438 201.521 102.617C201.271 102.795 200.967 103.034 200.608 103.331C200.279 103.613 199.98 103.877 199.71 104.125C199.471 104.357 199.147 104.664 198.739 105.048C198.361 105.415 198.049 105.726 197.802 105.98C197.562 106.212 197.25 106.523 196.866 106.913C193.582 110.325 191.329 111.858 190.105 111.512C189.62 111.375 189.125 110.787 188.621 109.746C188.123 108.683 187.93 107.955 188.041 107.562C188.112 107.308 188.427 106.811 188.986 106.071C189.574 105.314 189.999 104.736 190.261 104.337C190.553 103.92 190.817 103.471 191.053 102.989C191.312 102.514 191.558 101.997 191.79 101.439C192.029 100.858 192.206 100.409 192.32 100.093C192.458 99.7823 192.648 99.2872 192.89 98.6074C193.946 95.6636 194.589 94.0496 194.819 93.7654C195.072 93.4877 195.29 93.375 195.475 93.4272C196.353 93.6751 197.091 94.2827 197.691 95.2502C198.297 96.1945 198.515 96.9669 198.346 97.5674C197.941 98.9994 196.991 100.951 195.495 103.421C197.74 101.212 199.71 99.449 201.404 98.1319C203.127 96.7981 204.416 96.252 205.271 96.4934ZM224.158 110.507C224.469 110.994 224.582 111.388 224.498 111.688C224.413 111.988 224.098 112.573 223.553 113.442C223.009 114.31 222.615 114.997 222.373 115.502C222.137 115.984 221.942 116.366 221.788 116.646C221.657 116.934 221.554 117.166 221.478 117.344C221.41 117.5 221.305 117.694 221.164 117.929C221.046 118.17 220.941 118.365 220.849 118.513C220.787 118.645 220.692 118.806 220.563 118.994C220.465 119.166 220.365 119.299 220.263 119.395C220.168 119.468 220.057 119.549 219.932 119.639C219.742 119.784 219.485 119.811 219.161 119.72C218.838 119.629 218.525 119.191 218.223 118.408C217.944 117.63 217.819 116.747 217.849 115.758C215.052 117.362 212.914 117.955 211.436 117.538C210.442 117.257 209.522 116.411 208.674 114.999C207.832 113.565 207.564 112.304 207.871 111.219C208.184 110.11 209.124 108.68 210.692 106.928C212.259 105.176 214.142 103.675 216.34 102.426C218.562 101.183 220.516 100.8 222.202 101.276C223.172 101.55 224.132 102.432 225.083 103.923C226.033 105.413 226.375 106.632 226.107 107.579C225.846 108.503 225.196 109.479 224.158 110.507ZM212.53 113.133C213.454 113.394 214.854 113.117 216.731 112.3C218.637 111.467 220.046 110.144 220.957 108.331C221.058 108.061 221.3 107.954 221.683 108.013C221.985 106.677 221.952 105.956 221.582 105.852C220.658 105.591 219.45 105.898 217.955 106.773C216.485 107.654 215.187 108.672 214.063 109.826C212.962 110.986 212.32 111.89 212.138 112.536C212.085 112.721 212.073 112.855 212.099 112.937C212.156 113.003 212.299 113.068 212.53 113.133ZM246.898 97.7777C247.452 97.9343 248.036 98.6479 248.65 99.9186C249.27 101.166 249.456 102.229 249.209 103.106C249.085 103.545 248.165 105.256 246.45 108.238C244.735 111.22 243.702 113.023 243.351 113.647C239.252 121.093 236.776 124.696 235.921 124.454C235.436 124.317 234.975 123.875 234.537 123.128C234.1 122.381 233.96 121.731 234.116 121.176C234.149 121.061 234.186 120.972 234.229 120.909C231.385 122.15 229.454 122.628 228.438 122.34C227.445 122.06 226.625 121.255 225.978 119.925C225.361 118.578 225.176 117.466 225.424 116.589C225.672 115.711 226.061 114.774 226.592 113.776C227.153 112.763 227.857 111.727 228.705 110.669C229.552 109.612 230.446 108.655 231.386 107.798C232.356 106.925 233.397 106.284 234.51 105.875C235.653 105.45 236.721 105.377 237.714 105.658C239.192 106.075 240.193 107.169 240.716 108.937C243.509 103.816 245.137 100.348 245.6 98.5333C245.796 97.8404 246.228 97.5885 246.898 97.7777ZM230.131 118.068C230.708 118.231 231.819 118.008 233.462 117.4C235.128 116.799 236.512 115.83 237.612 114.495C237.641 114.304 237.744 113.896 237.92 113.273C238.096 112.649 238.055 112.001 237.795 111.33C237.536 110.658 237.233 110.273 236.887 110.175C236.194 109.979 235.42 110.16 234.564 110.716C233.732 111.279 232.988 112.017 232.331 112.928C230.939 114.854 230.086 116.372 229.773 117.48C229.721 117.665 229.708 117.799 229.735 117.881C229.791 117.947 229.923 118.009 230.131 118.068ZM260.166 112C260.766 112.17 261.282 112.552 261.712 113.148C262.172 113.726 262.337 114.247 262.206 114.709C261.971 115.54 260.734 117.273 258.493 119.907C256.276 122.548 254.317 124.626 252.618 126.141C250.941 127.662 249.779 128.331 249.132 128.149C248.786 128.051 248.343 127.676 247.804 127.025C247.288 126.381 247.002 125.801 246.948 125.287C246.772 123.791 246.8 121.131 247.033 117.306C247.272 113.458 247.529 111.049 247.803 110.079C248.077 109.109 248.537 108.715 249.184 108.898C249.969 109.12 250.689 109.66 251.344 110.518C252.43 111.972 252.803 113.611 252.462 115.435C252.296 116.286 252.064 117.33 251.764 118.567C251.471 119.781 251.281 120.85 251.195 121.773C252.05 120.868 253.175 119.49 254.57 117.639C255.972 115.766 257.128 114.322 258.038 113.307C258.972 112.299 259.681 111.863 260.166 112ZM276.347 123.566C276.027 124.698 274.966 125.495 273.164 125.959C271.385 126.429 269.688 126.436 268.071 125.979C266.454 125.523 265.159 125.032 264.185 124.507C263.801 125.072 263.521 125.667 263.344 126.29C263.168 126.914 263.145 127.393 263.275 127.729C263.411 128.042 263.894 128.316 264.726 128.551C266.458 129.04 267.982 129.296 269.297 129.318C270.636 129.347 271.328 129.368 271.374 129.381C272.321 129.649 272.707 130.094 272.531 130.718C272.276 131.619 271.284 132.261 269.555 132.646C267.848 133.036 266.013 132.955 264.05 132.4C262.11 131.852 260.724 130.8 259.892 129.243C259.06 127.686 258.878 126.076 259.348 124.413C259.824 122.727 260.805 121.109 262.291 119.558C263.799 118.014 265.466 116.839 267.289 116.032C269.12 115.203 270.763 114.993 272.218 115.404C273.696 115.822 274.853 116.934 275.689 118.742C276.532 120.526 276.751 122.134 276.347 123.566ZM272.484 121.877C272.55 121.646 272.402 121.242 272.041 120.666C271.68 120.091 271.28 119.741 270.841 119.617C270.425 119.499 269.794 119.658 268.948 120.092C268.109 120.503 267.252 121.109 266.377 121.91C266.579 121.991 266.876 122.088 267.268 122.199C270.433 123.093 272.171 122.985 272.484 121.877ZM292.321 121.083C293.522 121.422 294.42 122.262 295.014 123.602C295.638 124.925 295.777 126.199 295.431 127.423C294.876 129.386 293.972 131.351 292.719 133.316C291.495 135.265 290.339 136.709 289.251 137.648C288.185 138.594 287.26 138.956 286.475 138.734C285.713 138.519 285.485 137.869 285.791 136.783C286.026 135.952 286.88 134.385 288.354 132.083C289.518 130.167 290.228 128.759 290.482 127.858C290.737 126.958 290.748 126.475 290.517 126.409C290.217 126.324 289.874 126.39 289.489 126.605C289.127 126.827 288.821 127.028 288.571 127.206C288.321 127.385 288.017 127.623 287.659 127.921C287.33 128.202 287.031 128.467 286.761 128.715C286.521 128.947 286.197 129.254 285.79 129.638C285.412 130.005 285.099 130.316 284.853 130.57C284.613 130.802 284.301 131.113 283.916 131.503C280.633 134.915 278.379 136.448 277.155 136.102C276.67 135.965 276.176 135.376 275.672 134.336C275.174 133.273 274.98 132.545 275.091 132.152C275.163 131.898 275.478 131.401 276.036 130.661C276.624 129.904 277.049 129.326 277.312 128.926C277.604 128.51 277.868 128.061 278.104 127.579C278.363 127.103 278.609 126.587 278.841 126.029C279.08 125.448 279.257 124.999 279.371 124.682C279.509 124.372 279.698 123.877 279.94 123.197C280.996 120.253 281.639 118.639 281.869 118.355C282.122 118.077 282.341 117.965 282.526 118.017C283.403 118.265 284.142 118.872 284.742 119.84C285.348 120.784 285.566 121.557 285.396 122.157C284.992 123.589 284.042 125.54 282.546 128.011C284.791 125.802 286.76 124.039 288.454 122.722C290.178 121.388 291.467 120.842 292.321 121.083ZM306.563 129.558C306.202 130.129 305.677 130.929 304.988 131.956C304.329 132.967 303.495 134.24 302.488 135.776C301.503 137.318 300.995 138.147 300.962 138.263C300.936 138.355 301.108 138.454 301.477 138.558C301.87 138.669 302.854 138.673 304.429 138.569C306.011 138.442 306.929 138.415 307.184 138.487C307.761 138.65 307.939 139.124 307.717 139.909C307.495 140.694 306.454 141.423 304.593 142.094C302.739 142.743 300.969 142.829 299.283 142.353C298.544 142.144 297.781 141.492 296.993 140.396C296.205 139.301 295.928 138.337 296.163 137.506C296.359 136.813 297.116 135.456 298.435 133.434C299.784 131.396 300.703 129.997 301.192 129.238C300.22 129.237 299.502 129.172 299.04 129.041C298.579 128.911 298.182 128.462 297.85 127.695C297.524 126.905 297.443 126.221 297.606 125.643C297.815 124.904 299.781 124.786 303.504 125.29C304.55 123.266 305.295 121.468 305.738 119.898C305.934 119.205 306.378 118.956 307.071 119.152C307.672 119.322 308.329 119.906 309.045 120.906C309.789 121.89 310.06 122.74 309.858 123.456C309.662 124.149 309.235 125.088 308.576 126.273C309.698 126.54 310.547 126.755 311.125 126.918C312.857 127.408 313.612 128.045 313.39 128.83C313.247 129.338 312.615 129.634 311.494 129.716C310.403 129.782 308.759 129.729 306.563 129.558ZM326.301 131.617C326.649 131.092 327.1 130.907 327.654 131.064C328.209 131.22 328.71 131.873 329.159 133.023C329.63 134.178 329.768 135.103 329.572 135.795C329.501 136.049 328.49 137.597 326.54 140.438C324.59 143.279 323.069 145.53 321.976 147.192C321.379 148.07 320.699 148.402 319.937 148.187C319.475 148.056 319.128 147.784 318.896 147.369C318.694 146.938 318.694 146.364 318.896 145.648C319.098 144.932 319.524 143.955 320.173 142.717C316.828 145.463 314.452 146.637 313.043 146.239C312.304 146.031 311.548 145.306 310.776 144.065C310.011 142.802 309.756 141.72 310.01 140.819C310.636 138.602 312.059 135.948 314.279 132.859C316.521 129.777 318.196 128.392 319.305 128.705C319.975 128.895 320.479 129.361 320.817 130.105C321.179 130.856 321.259 131.589 321.057 132.305C320.978 132.582 320.471 133.274 319.535 134.382C316.703 137.697 315.065 140.139 314.622 141.71C314.582 141.849 314.621 141.934 314.736 141.967C315.083 142.065 315.883 141.705 317.136 140.886C318.419 140.052 319.937 138.785 321.689 137.085C323.471 135.369 325.008 133.546 326.301 131.617ZM331.486 138.468L332.384 134.495C332.749 133.201 333.336 132.669 334.144 132.897C334.606 133.028 335.008 133.328 335.349 133.798C335.713 134.275 335.906 134.916 335.928 135.72C336.909 135.249 337.92 134.936 338.961 134.782C340.032 134.61 340.926 134.626 341.642 134.828C343.328 135.304 344.057 135.946 343.828 136.755C343.711 137.171 343.542 137.46 343.321 137.622C343.131 137.767 342.976 137.873 342.858 137.94C342.762 138.012 342.588 138.1 342.334 138.203C342.11 138.29 341.942 138.354 341.83 138.398C341.201 138.594 340.752 138.729 340.482 138.802C339.26 139.155 338.149 139.689 337.149 140.404C336.155 141.096 335.245 142.199 334.419 143.711C333.045 146.191 331.872 148.004 330.9 149.151C329.957 150.281 329.116 150.742 328.377 150.533C327.661 150.331 327.216 149.831 327.042 149.034C326.891 148.243 326.901 147.548 327.07 146.947C327.247 146.324 327.727 145.462 328.512 144.362C329.319 143.268 329.928 142.305 330.338 141.473C330.777 140.625 331.159 139.623 331.486 138.468ZM357.477 146.483C357.157 147.615 356.096 148.413 354.294 148.876C352.515 149.347 350.818 149.353 349.201 148.897C347.584 148.44 346.289 147.949 345.315 147.425C344.931 147.99 344.651 148.584 344.474 149.207C344.298 149.831 344.275 150.311 344.405 150.647C344.541 150.959 345.024 151.233 345.856 151.468C347.588 151.957 349.112 152.213 350.427 152.236C351.766 152.265 352.458 152.286 352.504 152.299C353.451 152.566 353.837 153.012 353.661 153.635C353.406 154.536 352.414 155.179 350.685 155.563C348.978 155.954 347.143 155.872 345.18 155.317C343.24 154.769 341.854 153.717 341.022 152.16C340.19 150.603 340.008 148.993 340.478 147.33C340.954 145.644 341.935 144.026 343.421 142.475C344.929 140.931 346.596 139.756 348.419 138.95C350.25 138.12 351.893 137.911 353.348 138.322C354.826 138.739 355.983 139.852 356.819 141.659C357.662 143.443 357.881 145.051 357.477 146.483ZM353.614 144.794C353.68 144.563 353.532 144.159 353.171 143.584C352.81 143.008 352.41 142.658 351.971 142.534C351.555 142.416 350.924 142.575 350.078 143.009C349.239 143.421 348.382 144.027 347.507 144.827C347.709 144.909 348.006 145.005 348.398 145.116C351.563 146.01 353.301 145.902 353.614 144.794Z" fill="#FFC149"/>
<path d="M370.801 193.983C380.538 170.642 394.37 138.57 396.012 113.606C310.69 87.6446 225.46 62.291 139.152 39.5633C106.4 30.9389 69.847 26.0803 38.3246 13.7928C33.4226 35.7308 27.355 57.3081 22.2574 79.1552C20.1698 88.1023 21.2506 98.599 17.6281 107.107C113.874 133.693 212.111 153.538 307.507 183.378C325.792 189.097 345.079 192.025 362.977 199.091C315.372 181.885 264.849 170.828 216.014 157.563C183.365 148.695 151.975 135.349 119.251 126.304C88.3084 117.752 55.9903 114.185 25.2871 105.127C26.6445 71.9609 25.9037 37.6036 30.0398 4.79181C49.7683 10.0029 70.0225 13.2622 89.6582 18.6743C194.182 47.4838 298.025 78.19 401.214 111.226C393.153 139.022 377.783 163.703 367.967 190.696C373.295 161.258 388.381 134.538 394.51 105.423C382.384 99.2981 366.944 96.7202 353.931 92.8353C319.639 82.5975 285.729 72.3707 251.05 63.5067C207.432 52.358 163.866 41.8265 120.108 31.2036C90.1146 23.922 57.6069 12.4945 26.7427 10.1368C21.1825 41.3309 16.1856 72.6956 11.0654 103.955" stroke="#FFC149" stroke-width="4.09971" stroke-miterlimit="1.5" stroke-linecap="round" stroke-linejoin="round"/>
</svg>
