<svg width="691" height="29" viewBox="0 0 691 29" fill="none" xmlns="http://www.w3.org/2000/svg">
<path d="M298.738 26C326.763 24.7168 354.794 23.7279 382.891 23.1656C398.658 22.8504 414.422 22.67 430.198 22.5124C451.517 22.2993 473.977 22.4146 494.829 19.5345C495.929 19.3827 492.591 19.3287 491.469 19.2378C489.125 19.0476 486.751 18.9552 484.402 18.7956C478.553 18.3982 472.734 18.1195 466.864 17.849C446.691 16.919 426.457 16.3032 406.216 16.2054C347.133 15.9194 289.251 15.9685 230.334 19.014C211.425 19.9917 192.579 21.1528 173.697 22.2915C169.357 22.5532 156.242 22.3849 153.222 24.6546C152.036 25.5452 157.259 24.6468 159.277 24.6142C162.811 24.5573 166.313 24.5831 169.846 24.6531C181.096 24.8759 192.361 24.7586 203.605 24.4065C236.737 23.3689 270.002 22.8694 303.181 22.1986C367.63 20.896 431.982 17.7712 496.358 15.7953C515.626 15.2043 534.833 14.0617 554.102 13.5354C564.913 13.2402 579.691 13.9178 589.565 11.0017C591.606 10.399 584.961 10.6762 582.66 10.5084C578.575 10.2107 574.563 9.93982 570.45 9.76179C556.808 9.17176 542.987 9.35609 529.306 8.96209C489.726 7.82191 450.08 7.34376 410.427 7.33062C327.76 7.30436 243.749 7.5996 161.363 11.5138C129.012 13.0509 90.9036 12.1953 59.9204 18.1963C57.5528 18.655 64.9492 18.2459 67.4524 18.3612C72.2938 18.5845 77.2147 18.3943 82.0722 18.5685C97.2086 19.1118 112.314 18.5179 127.456 18.3004C172.635 17.6501 217.905 17.5547 263.147 17.0284C313.073 16.4472 362.777 13.6133 412.63 12.2552C469.461 10.7069 526.273 9.79582 583.081 8.05248C609.827 7.2314 636.577 6.98723 663.355 7.02079C667.165 7.02566 685.132 8.23051 687.723 6.59078C689.477 5.48173 682.427 6.1019 679.773 5.87718C673.774 5.36935 667.756 5.09701 661.72 4.76283C645.511 3.86684 629.174 3.19844 612.88 3.07781C563.263 2.71105 513.595 3.78897 463.987 3.26509C409.199 2.68673 353.92 4.38386 299.109 5.1096C249.791 5.76287 200.253 4.3216 150.896 4.51422C101.882 4.70587 51.986 9.1505 3 7.16152" stroke="#FEFEFE" stroke-width="4.05049" stroke-miterlimit="1.5" stroke-linecap="round" stroke-linejoin="round"/>
</svg>
