<svg width="98" height="66" viewBox="0 0 98 66" fill="none" xmlns="http://www.w3.org/2000/svg">
<g opacity="0.3">
<path d="M22.0154 15.4814H25.0154C25.0154 13.9665 23.886 12.6894 22.3826 12.5039C20.8791 12.3185 19.4733 13.283 19.1053 14.7525L22.0154 15.4814ZM20.1692 22.8523L17.2591 22.1234C16.8792 23.6404 17.7282 25.1947 19.2099 25.6948C20.6916 26.1948 22.3089 25.4728 22.9259 24.0359L20.1692 22.8523ZM20.7846 16.7099L21.3719 19.6518C22.3885 19.4489 23.2284 18.7354 23.593 17.765L20.7846 16.7099ZM7.24615 5.65352L6.71046 2.70174C5.28354 2.9607 4.24615 4.2033 4.24615 5.65352L7.24615 5.65352ZM22.0154 14.2529L19.207 15.308C19.5716 16.2785 20.4115 16.9919 21.4281 17.1949L22.0154 14.2529ZM35.5538 3.19656L38.5538 3.19656C38.5538 1.74633 37.5165 0.503731 36.0895 0.244772L35.5538 3.19656ZM9.63462 29.7651V26.7651C8.12136 26.7651 6.84502 27.8922 6.65769 29.3938L9.63462 29.7651ZM31.75 29.7651L34.7269 29.3938C34.5396 27.8922 33.2633 26.7651 31.75 26.7651V29.7651ZM32.7198 37.5388L29.7428 37.9101L29.743 37.9113L32.7198 37.5388ZM33.2019 39.668L36.0485 38.721L36.0485 38.7209L33.2019 39.668ZM36.8885 50.7496L34.0419 51.6966L34.0421 51.6974L36.8885 50.7496ZM37.4016 53.1503L40.3868 52.8524L40.3867 52.8516L37.4016 53.1503ZM38.3846 63V66C39.2321 66 40.0401 65.6415 40.6088 65.0132C41.1775 64.3849 41.4539 63.5454 41.3698 62.7021L38.3846 63ZM3 63L0.0148335 62.702C-0.0693398 63.5453 0.207099 64.3849 0.775828 65.0132C1.34456 65.6415 2.15251 66 3 66V63ZM3.98303 53.1514L0.997889 52.8532L0.997862 52.8534L3.98303 53.1514ZM4.49611 50.7496L7.34252 51.6972L7.34271 51.6966L4.49611 50.7496ZM8.18274 39.668L5.33616 38.7209L5.33613 38.721L8.18274 39.668ZM8.66486 37.5388L11.6416 37.9113L11.6418 37.9101L8.66486 37.5388ZM18.7272 48.1173C18.584 46.4666 17.1297 45.2446 15.4791 45.3879C13.8284 45.5312 12.6064 46.9854 12.7497 48.6361L18.7272 48.1173ZM30.0173 48.8898C30.3007 47.2573 29.2071 45.7042 27.5746 45.4209C25.9422 45.1375 24.3891 46.2311 24.1057 47.8636L30.0173 48.8898ZM19.0154 15.4814C19.0154 16.5372 18.6738 18.0174 18.232 19.4136C18.0233 20.0733 17.8137 20.6489 17.6568 21.0578C17.5787 21.2613 17.5146 21.4213 17.4714 21.527C17.4498 21.5798 17.4335 21.6189 17.4234 21.643C17.4184 21.655 17.4149 21.6633 17.413 21.6677C17.4121 21.6698 17.4116 21.671 17.4115 21.6712C17.4115 21.6713 17.4115 21.6711 17.4117 21.6707C17.4118 21.6705 17.4119 21.6702 17.4121 21.6699C17.4121 21.6697 17.4123 21.6694 17.4123 21.6693C17.4124 21.669 17.4126 21.6687 20.1692 22.8523C22.9259 24.0359 22.926 24.0355 22.9262 24.0352C22.9263 24.035 22.9264 24.0346 22.9266 24.0343C22.9268 24.0337 22.9271 24.033 22.9274 24.0323C22.928 24.0309 22.9288 24.0291 22.9296 24.0271C22.9313 24.0232 22.9335 24.0181 22.936 24.0121C22.9412 23.9999 22.948 23.9837 22.9565 23.9635C22.9735 23.9231 22.9968 23.8669 23.0257 23.7961C23.0835 23.6547 23.1636 23.4547 23.2586 23.2072C23.4479 22.7139 23.6998 22.0226 23.9526 21.2235C24.4339 19.7021 25.0154 17.4967 25.0154 15.4814H19.0154ZM23.0793 23.5812L24.9255 16.2103L19.1053 14.7525L17.2591 22.1234L23.0793 23.5812ZM20.7846 16.7099C23.593 17.765 23.5935 17.7635 23.594 17.7621C23.5942 17.7616 23.5948 17.7602 23.5951 17.7591C23.5959 17.7571 23.5967 17.755 23.5975 17.7528C23.5991 17.7485 23.6008 17.7438 23.6027 17.7388C23.6063 17.7288 23.6104 17.7175 23.6149 17.7049C23.6239 17.6798 23.6345 17.6496 23.6463 17.6145C23.67 17.5443 23.6991 17.4543 23.7312 17.3461C23.7954 17.1301 23.8729 16.8385 23.9452 16.4844C24.0886 15.7817 24.2182 14.7998 24.1661 13.6557C24.0594 11.3115 23.1779 8.31593 20.2734 5.83093L16.3728 10.3901C17.7759 11.5905 18.1252 12.8946 18.1723 13.9287C18.1972 14.4738 18.1345 14.9508 18.0664 15.2846C18.0329 15.4487 17.9998 15.5698 17.9798 15.637C17.9699 15.6703 17.9635 15.6895 17.9623 15.6931C17.9617 15.6949 17.9624 15.6927 17.9646 15.6864C17.9658 15.6833 17.9673 15.6791 17.9692 15.6738C17.9702 15.6712 17.9712 15.6683 17.9724 15.6651C17.973 15.6635 17.9736 15.6619 17.9743 15.6601C17.9746 15.6593 17.9751 15.6579 17.9752 15.6575C17.9758 15.6562 17.9763 15.6548 20.7846 16.7099ZM20.2734 5.83093C17.4196 3.38938 13.9034 2.68108 11.3753 2.50705C10.0769 2.41767 8.94126 2.46231 8.12586 2.5292C7.71597 2.56283 7.38107 2.60258 7.14001 2.63546C7.01932 2.65192 6.92169 2.66672 6.84943 2.67828C6.81329 2.68406 6.78345 2.68903 6.7602 2.69301C6.74858 2.69499 6.7386 2.69673 6.7303 2.6982C6.72615 2.69893 6.72242 2.69959 6.71911 2.70018C6.71745 2.70048 6.71591 2.70076 6.71447 2.70102C6.71375 2.70114 6.71274 2.70133 6.71238 2.70139C6.71141 2.70157 6.71046 2.70174 7.24615 5.65352C7.78185 8.60531 7.78095 8.60547 7.78008 8.60563C7.77982 8.60568 7.77897 8.60583 7.77846 8.60592C7.77743 8.60611 7.7765 8.60627 7.77567 8.60642C7.77401 8.60672 7.77274 8.60695 7.77186 8.6071C7.7701 8.60741 7.76989 8.60744 7.77121 8.60722C7.77384 8.60677 7.78254 8.60529 7.79703 8.60298C7.82603 8.59834 7.87803 8.59035 7.95086 8.58041C8.09681 8.56051 8.32441 8.53307 8.61645 8.50911C9.20489 8.46084 10.0308 8.4287 10.9632 8.49288C12.8966 8.62597 14.9189 9.14615 16.3728 10.3901L20.2734 5.83093ZM7.24615 5.65352C4.24615 5.65352 4.24615 5.65464 4.24615 5.65578C4.24616 5.65619 4.24616 5.65735 4.24616 5.65816C4.24616 5.65979 4.24616 5.66149 4.24617 5.66327C4.24618 5.66683 4.2462 5.6707 4.24622 5.67488C4.24627 5.68325 4.24635 5.69284 4.24648 5.70365C4.24674 5.72527 4.24719 5.75175 4.24795 5.78289C4.24947 5.84516 4.25224 5.92622 4.25725 6.0245C4.26725 6.22083 4.28624 6.4872 4.32226 6.81081C4.39405 7.45571 4.53501 8.34166 4.81377 9.36189C5.36756 11.3887 6.49764 14.059 8.81911 16.3762L13.0578 12.1296C11.687 10.7613 10.9709 9.13199 10.6016 7.78045C10.4188 7.11152 10.329 6.53864 10.2854 6.14701C10.2638 5.95236 10.2539 5.80603 10.2495 5.71924C10.2473 5.67595 10.2464 5.64784 10.2462 5.63632C10.246 5.63058 10.246 5.62902 10.2461 5.63181C10.2461 5.63321 10.2461 5.63571 10.2461 5.63932C10.2461 5.64112 10.2461 5.64321 10.2461 5.64557C10.2461 5.64676 10.2461 5.64801 10.2462 5.64934C10.2462 5.65 10.2462 5.65105 10.2462 5.65138C10.2462 5.65244 10.2462 5.65352 7.24615 5.65352ZM8.81911 16.3762C11.3823 18.9346 14.6704 19.6745 17.0165 19.8546C18.2208 19.9471 19.2776 19.9008 20.0365 19.832C20.4185 19.7973 20.732 19.7563 20.9592 19.7221C21.073 19.705 21.1656 19.6895 21.235 19.6773C21.2697 19.6712 21.2987 19.6659 21.3216 19.6616C21.333 19.6594 21.343 19.6575 21.3514 19.6559C21.3556 19.6551 21.3594 19.6543 21.3628 19.6536C21.3645 19.6533 21.3661 19.653 21.3676 19.6527C21.3684 19.6525 21.3695 19.6523 21.3699 19.6522C21.3709 19.652 21.3719 19.6518 20.7846 16.7099C20.1973 13.7679 20.1983 13.7677 20.1992 13.7675C20.1995 13.7675 20.2004 13.7673 20.201 13.7672C20.2022 13.767 20.2032 13.7667 20.2042 13.7666C20.2061 13.7662 20.2077 13.7659 20.2089 13.7656C20.2114 13.7652 20.2124 13.765 20.2121 13.765C20.2115 13.7651 20.2055 13.7663 20.1942 13.7683C20.1716 13.7722 20.1285 13.7795 20.0668 13.7888C19.943 13.8074 19.7469 13.8336 19.4943 13.8565C18.9839 13.9028 18.2715 13.9333 17.4758 13.8722C15.8219 13.7453 14.187 13.2567 13.0578 12.1296L8.81911 16.3762ZM22.0154 14.2529C24.8237 13.1978 24.8242 13.1992 24.8248 13.2006C24.8249 13.201 24.8254 13.2023 24.8257 13.2032C24.8264 13.2049 24.827 13.2066 24.8276 13.2081C24.8288 13.2113 24.8298 13.2142 24.8308 13.2168C24.8327 13.2221 24.8342 13.2263 24.8354 13.2295C24.8376 13.2358 24.8383 13.2379 24.8377 13.2361C24.8365 13.2325 24.8301 13.2133 24.8202 13.18C24.8002 13.1128 24.7671 12.9918 24.7336 12.8276C24.6655 12.4938 24.6028 12.0168 24.6277 11.4717C24.6748 10.4376 25.0241 9.13353 26.4272 7.93309L22.5266 3.37396C19.6221 5.85897 18.7406 8.85458 18.6339 11.1988C18.5818 12.3429 18.7114 13.3247 18.8548 14.0274C18.9271 14.3815 19.0046 14.6732 19.0688 14.8891C19.1009 14.9973 19.13 15.0873 19.1537 15.1575C19.1655 15.1926 19.1761 15.2228 19.1851 15.2479C19.1896 15.2605 19.1937 15.2718 19.1973 15.2818C19.1992 15.2868 19.2009 15.2915 19.2025 15.2959C19.2033 15.2981 19.2041 15.3002 19.2049 15.3022C19.2052 15.3032 19.2058 15.3046 19.206 15.3052C19.2065 15.3066 19.207 15.308 22.0154 14.2529ZM26.4272 7.93309C27.8811 6.68918 29.9034 6.169 31.8368 6.03591C32.7692 5.97173 33.5951 6.00387 34.1836 6.05215C34.4756 6.07611 34.7032 6.10354 34.8491 6.12345C34.922 6.13338 34.974 6.14137 35.003 6.14601C35.0175 6.14833 35.0262 6.1498 35.0288 6.15025C35.0301 6.15048 35.0299 6.15044 35.0281 6.15013C35.0273 6.14998 35.026 6.14975 35.0243 6.14946C35.0235 6.14931 35.0226 6.14914 35.0215 6.14895C35.021 6.14886 35.0202 6.14871 35.0199 6.14866C35.0191 6.1485 35.0182 6.14834 35.5538 3.19656C36.0895 0.244772 36.0886 0.2446 36.0876 0.244424C36.0873 0.244359 36.0863 0.244178 36.0855 0.244048C36.0841 0.243789 36.0825 0.243511 36.0809 0.243215C36.0776 0.242623 36.0739 0.24196 36.0697 0.241229C36.0614 0.239765 36.0514 0.238028 36.0398 0.236041C36.0166 0.232067 35.9867 0.227092 35.9506 0.221311C35.8783 0.209754 35.7807 0.194951 35.66 0.17849C35.4189 0.145611 35.084 0.105864 34.6741 0.0722368C33.8587 0.00534201 32.7231 -0.039299 31.4247 0.0500796C28.8966 0.224111 25.3804 0.932414 22.5266 3.37396L26.4272 7.93309ZM35.5538 3.19656C32.5538 3.19656 32.5538 3.19548 32.5538 3.19441C32.5538 3.19408 32.5538 3.19303 32.5539 3.19237C32.5539 3.19104 32.5539 3.18979 32.5539 3.18861C32.5539 3.18624 32.5539 3.18416 32.5539 3.18235C32.5539 3.17874 32.5539 3.17625 32.5539 3.17485C32.554 3.17205 32.554 3.17361 32.5538 3.17936C32.5536 3.19087 32.5527 3.21899 32.5505 3.26227C32.5461 3.34906 32.5362 3.49539 32.5146 3.69004C32.471 4.08168 32.3812 4.65455 32.1984 5.32349C31.8291 6.67502 31.113 8.30436 29.7422 9.67265L33.9809 13.9192C36.3024 11.6021 37.4324 8.93172 37.9862 6.90492C38.265 5.88469 38.4059 4.99874 38.4777 4.35385C38.5138 4.03023 38.5327 3.76386 38.5428 3.56753C38.5478 3.46925 38.5505 3.38819 38.5521 3.32593C38.5528 3.29478 38.5533 3.2683 38.5535 3.24669C38.5536 3.23588 38.5537 3.22628 38.5538 3.21792C38.5538 3.21373 38.5538 3.20986 38.5538 3.2063C38.5538 3.20452 38.5538 3.20282 38.5538 3.20119C38.5538 3.20038 38.5538 3.19922 38.5538 3.19882C38.5538 3.19768 38.5538 3.19656 35.5538 3.19656ZM29.7422 9.67265C28.613 10.7997 26.9781 11.2883 25.3242 11.4153C24.5285 11.4764 23.8161 11.4459 23.3057 11.3995C23.0531 11.3766 22.857 11.3505 22.7332 11.3319C22.6715 11.3226 22.6284 11.3153 22.6058 11.3113C22.5946 11.3093 22.5885 11.3082 22.5879 11.308C22.5876 11.308 22.5886 11.3082 22.5911 11.3087C22.5923 11.3089 22.5939 11.3092 22.5958 11.3096C22.5968 11.3098 22.5978 11.31 22.599 11.3102C22.5996 11.3103 22.6005 11.3105 22.6008 11.3106C22.6017 11.3108 22.6027 11.311 22.0154 14.2529C21.4281 17.1949 21.4291 17.1951 21.4301 17.1953C21.4305 17.1953 21.4316 17.1956 21.4324 17.1957C21.4339 17.196 21.4355 17.1963 21.4372 17.1967C21.4406 17.1973 21.4444 17.1981 21.4486 17.1989C21.4571 17.2005 21.467 17.2024 21.4784 17.2046C21.5013 17.2089 21.5303 17.2142 21.565 17.2203C21.6344 17.2325 21.727 17.248 21.8408 17.2651C22.068 17.2993 22.3815 17.3403 22.7635 17.375C23.5224 17.4439 24.5792 17.4901 25.7835 17.3977C28.1296 17.2175 31.4177 16.4776 33.9809 13.9192L29.7422 9.67265ZM9.63462 32.7651H31.75V26.7651H9.63462V32.7651ZM28.7731 30.1365L29.7428 37.9101L35.6967 37.1674L34.7269 29.3938L28.7731 30.1365ZM29.743 37.9113C29.858 38.8303 30.0629 39.7363 30.3553 40.6151L36.0485 38.7209C35.8809 38.2172 35.7629 37.6963 35.6965 37.1662L29.743 37.9113ZM30.3553 40.615L34.0419 51.6966L39.7351 49.8026L36.0485 38.721L30.3553 40.615ZM34.0421 51.6974C34.2313 52.2655 34.3569 52.8529 34.4165 53.449L40.3867 52.8516C40.2829 51.8141 40.0643 50.7912 39.7349 49.8019L34.0421 51.6974ZM34.4164 53.4482L35.3994 63.2979L41.3698 62.7021L40.3868 52.8524L34.4164 53.4482ZM38.3846 60H3V66H38.3846V60ZM5.98517 63.298L6.9682 53.4494L0.997862 52.8534L0.0148335 62.702L5.98517 63.298ZM6.96817 53.4496C7.02774 52.8533 7.1533 52.2656 7.34252 51.6972L1.64969 49.802C1.3202 50.7918 1.10159 51.8151 0.997889 52.8532L6.96817 53.4496ZM7.34271 51.6966L11.0293 40.615L5.33613 38.721L1.6495 49.8026L7.34271 51.6966ZM11.0293 40.6151C11.3217 39.7362 11.5266 38.8303 11.6416 37.9113L5.68808 37.1662C5.62174 37.6963 5.50375 38.2172 5.33616 38.7209L11.0293 40.6151ZM11.6418 37.9101L12.6115 30.1365L6.65769 29.3938L5.68793 37.1674L11.6418 37.9101ZM12.7497 48.6361C12.8761 50.0923 13.4886 52.0654 14.7697 53.7427C16.1242 55.5161 18.3204 57.0487 21.4 57.0487V51.0487C20.5411 51.0487 19.9886 50.6907 19.538 50.1007C19.014 49.4147 18.7649 48.5517 18.7272 48.1173L12.7497 48.6361ZM21.4 57.0487C24.5011 57.0487 26.6611 55.4948 27.9887 53.7162C29.2421 52.0371 29.8027 50.126 30.0173 48.8898L24.1057 47.8636C23.9921 48.518 23.6912 49.443 23.1805 50.1272C22.744 50.712 22.2374 51.0487 21.4 51.0487V57.0487Z" fill="white"/>
<path d="M51.16 44H53.3C53.56 44 53.7 43.86 53.7 43.6V39.3H54.44C56.66 39.3 58.14 37.76 58.14 35.44V33.62C58.14 31.3 56.62 29.76 54.38 29.76C52.22 29.76 50.76 31.3 50.76 33.62V43.6C50.76 43.86 50.9 44 51.16 44ZM53.7 36.6V33.38C53.7 32.84 53.98 32.52 54.42 32.52C54.9 32.52 55.18 32.84 55.18 33.38V35.54C55.18 36.28 54.9 36.6 54.24 36.6H53.7ZM63.0078 44.24C65.0478 44.24 66.4278 42.86 66.4278 40.78V37.22C66.4278 35.14 65.0478 33.76 63.0078 33.76C60.9678 33.76 59.5878 35.14 59.5878 37.22V40.78C59.5878 42.86 60.9678 44.24 63.0078 44.24ZM63.0078 41.64C62.6078 41.64 62.3678 41.38 62.3678 40.96V37.04C62.3678 36.62 62.6078 36.36 63.0078 36.36C63.4078 36.36 63.6478 36.62 63.6478 37.04V40.96C63.6478 41.38 63.4078 41.64 63.0078 41.64ZM75.6003 44.24C77.5603 44.24 78.8803 42.86 78.8803 40.78V34.4C78.8803 34.14 78.7403 34 78.4803 34H76.5603C76.3003 34 76.1603 34.14 76.1603 34.4V40.96C76.1603 41.38 75.9603 41.64 75.6003 41.64C75.2403 41.64 75.0403 41.38 75.0403 40.96V34.4C75.0403 34.14 74.9003 34 74.6403 34H72.7203C72.4603 34 72.3203 34.14 72.3203 34.4V40.96C72.3203 41.38 72.1203 41.64 71.7603 41.64C71.4003 41.64 71.2003 41.38 71.2003 40.96V34.4C71.2003 34.14 71.0603 34 70.8003 34H68.8803C68.6203 34 68.4803 34.14 68.4803 34.4V40.78C68.4803 42.86 69.8003 44.24 71.7603 44.24C72.5003 44.24 73.1603 44 73.6803 43.58C74.2003 44 74.8603 44.24 75.6003 44.24ZM84.4391 44.24C86.3391 44.24 87.6591 43.04 87.8191 41.22C87.8391 40.96 87.6991 40.82 87.4391 40.82H85.4591C85.2191 40.82 85.0991 40.94 85.0391 41.2C84.9391 41.48 84.7591 41.64 84.4791 41.64C84.0991 41.64 83.8991 41.38 83.8991 40.96V40.26H84.5791C86.5791 40.26 87.9391 39 87.9391 37.1C87.9391 35.06 86.4591 33.72 84.5191 33.76C82.5191 33.76 81.1791 35.08 81.1191 37.1V40.78C81.1191 42.86 82.4591 44.24 84.4391 44.24ZM83.8991 37.84V37.04C83.8991 36.62 84.1191 36.36 84.5191 36.36C84.9191 36.36 85.1591 36.6 85.1591 37.16C85.1591 37.62 84.9391 37.84 84.5791 37.84H83.8991ZM90.4311 44H92.3911C92.6511 44 92.7911 43.86 92.7911 43.6V37.88C92.7911 37.08 93.2511 36.6 94.0311 36.6H94.4111C94.6711 36.6 94.8111 36.46 94.8111 36.2V34.4C94.8111 34.14 94.6711 34 94.4111 34H93.9311C91.5111 34 90.0311 35.54 90.0311 38.26V43.6C90.0311 43.86 90.1711 44 90.4311 44ZM51.16 63H53.3C53.56 63 53.7 62.86 53.7 62.6V58.3H54.44C56.66 58.3 58.14 56.76 58.14 54.44V52.62C58.14 50.3 56.62 48.76 54.38 48.76C52.22 48.76 50.76 50.3 50.76 52.62V62.6C50.76 62.86 50.9 63 51.16 63ZM53.7 55.6V52.38C53.7 51.84 53.98 51.52 54.42 51.52C54.9 51.52 55.18 51.84 55.18 52.38V54.54C55.18 55.28 54.9 55.6 54.24 55.6H53.7ZM60.4017 63H62.3617C62.6217 63 62.7617 62.86 62.7617 62.6V49.4C62.7617 49.14 62.6217 49 62.3617 49H60.4017C60.1417 49 60.0017 49.14 60.0017 49.4V62.6C60.0017 62.86 60.1417 63 60.4017 63ZM68.3428 63.24C70.4228 63.24 71.6028 61.94 71.6028 59.96V56.22C71.6028 54.14 70.2828 52.76 68.3028 52.76C66.4228 52.76 65.1228 53.96 64.9628 55.8C64.9428 56.06 65.0828 56.2 65.3428 56.2H67.2828C67.5428 56.2 67.6628 56.16 67.6828 55.92C67.7028 55.62 67.8228 55.36 68.2628 55.36C68.6428 55.36 68.8428 55.62 68.8428 56.04V56.74H68.1628C66.1828 56.74 64.8228 58 64.8228 59.82C64.8228 61.86 66.2228 63.24 68.3428 63.24ZM68.3028 60.62C67.8628 60.62 67.6028 60.32 67.6028 59.82C67.6028 59.38 67.8628 59.12 68.3428 59.12H68.8428V59.98C68.8428 60.38 68.6628 60.62 68.3028 60.62ZM74.2358 63H76.1958C76.4558 63 76.5958 62.86 76.5958 62.6V56.04C76.5958 55.62 76.8158 55.36 77.1958 55.36C77.5758 55.36 77.7958 55.62 77.7958 56.04V62.6C77.7958 62.86 77.9358 63 78.1958 63H80.1558C80.4158 63 80.5558 62.86 80.5558 62.6V56.22C80.5558 54.14 79.2158 52.76 77.1958 52.76C75.1758 52.76 73.8358 54.14 73.8358 56.22V62.6C73.8358 62.86 73.9758 63 74.2358 63ZM87.8627 60.5H87.6827C86.8227 60.5 86.4427 60.12 86.4427 59.28V55.48H87.6427C87.9027 55.48 88.0427 55.34 88.0427 55.08V53.4C88.0427 53.14 87.9027 53 87.6427 53H86.4427V50.44C86.4427 50.18 86.3027 50.04 86.0427 50.04H84.0827C83.8227 50.04 83.6827 50.18 83.6827 50.44V53H82.7827C82.5227 53 82.3827 53.14 82.3827 53.4V55.08C82.3827 55.34 82.5227 55.48 82.7827 55.48H83.6827V59.24C83.6827 61.6 85.1227 63.1 87.4427 63.1H87.8627C88.1227 63.1 88.2627 62.96 88.2627 62.7V60.9C88.2627 60.64 88.1227 60.5 87.8627 60.5ZM93.1969 63.24C95.0969 63.24 96.4169 62.04 96.5769 60.22C96.5969 59.96 96.4569 59.82 96.1969 59.82H94.2169C93.9769 59.82 93.8569 59.94 93.7969 60.2C93.6969 60.48 93.5169 60.64 93.2369 60.64C92.8569 60.64 92.6569 60.38 92.6569 59.96V59.26H93.3369C95.3369 59.26 96.6969 58 96.6969 56.1C96.6969 54.06 95.2169 52.72 93.2769 52.76C91.2769 52.76 89.9369 54.08 89.8769 56.1V59.78C89.8769 61.86 91.2169 63.24 93.1969 63.24ZM92.6569 56.84V56.04C92.6569 55.62 92.8769 55.36 93.2769 55.36C93.6769 55.36 93.9169 55.6 93.9169 56.16C93.9169 56.62 93.6969 56.84 93.3369 56.84H92.6569Z" fill="white"/>
</g>
</svg>
