<svg width="129" height="129" viewBox="0 0 129 129" fill="none" xmlns="http://www.w3.org/2000/svg">
<circle cx="64.2399" cy="64.2389" r="36.3239" transform="rotate(31.1205 64.2399 64.2389)" fill="#15CD8B"/>
<circle cx="64.2394" cy="64.2392" r="44.7902" transform="rotate(31.1205 64.2394 64.2392)" stroke="#15CD8B" stroke-width="4"/>
<path d="M72.6525 51.8015L73.9366 52.5767C74.3282 51.9281 74.1746 51.0893 73.5786 50.6215C72.9826 50.1537 72.1313 50.2039 71.5943 50.7384L72.6525 51.8015ZM68.2329 56.201L67.1746 55.138C66.6204 55.6897 66.583 56.5747 67.0888 57.1711C67.5946 57.7676 68.4737 57.8754 69.1087 57.4188L68.2329 56.201ZM71.2697 52.1446L70.7619 53.556C71.2499 53.7316 71.7939 53.6427 72.2006 53.3208L71.2697 52.1446ZM66.4827 38.6528L67.0152 37.2506C66.3377 36.9933 65.5731 37.2572 65.1985 37.8776L66.4827 38.6528ZM73.1737 50.9382L71.6993 50.6622C71.6039 51.172 71.7786 51.6949 72.1613 52.0449L73.1737 50.9382ZM87.3424 48.8905L88.6265 49.6657C89.001 49.0453 88.8785 48.2458 88.3352 47.7661L87.3424 48.8905ZM57.9251 56.6065L58.7003 55.3224C58.0524 54.9312 57.2145 55.0841 56.7464 55.6788L57.9251 56.6065ZM73.4073 65.9536L74.7773 66.5646C75.0856 65.8733 74.8306 65.0607 74.1826 64.6695L73.4073 65.9536ZM70.7882 71.8263L69.4182 71.2153L69.418 71.2159L70.7882 71.8263ZM70.2223 73.5264L71.6851 73.8583L71.6851 73.8583L70.2223 73.5264ZM68.1017 82.872L66.6389 82.5401L66.6388 82.5405L68.1017 82.872ZM67.4424 84.7759L68.7969 85.4203L68.797 85.42L67.4424 84.7759ZM63.9517 92.1132L63.1764 93.3973C63.5391 93.6163 63.9774 93.6717 64.3832 93.5498C64.7889 93.4279 65.1242 93.1402 65.3062 92.7576L63.9517 92.1132ZM39.1801 77.1579L37.979 76.2594C37.7252 76.5986 37.6267 77.0294 37.7078 77.4452C37.789 77.861 38.0421 78.2231 38.4048 78.442L39.1801 77.1579ZM44.0467 70.6524L42.8456 69.7538L42.8455 69.7539L44.0467 70.6524ZM45.4248 69.1814L46.3996 70.3215L46.3999 70.3213L45.4248 69.1814ZM52.7072 62.9521L51.7322 61.8122L51.7322 61.8122L52.7072 62.9521ZM53.9481 61.6595L55.1265 62.5877L55.1268 62.5872L53.9481 61.6595ZM55.6481 72.9272C56.0136 72.1837 55.7072 71.2847 54.9638 70.9193C54.2203 70.5538 53.3213 70.8602 52.9559 71.6036L55.6481 72.9272ZM63.3622 78.0338C63.9049 77.408 63.8375 76.4606 63.2116 75.9178C62.5858 75.3751 61.6384 75.4425 61.0957 76.0684L63.3622 78.0338ZM71.3684 51.0262C70.8404 51.9008 69.8798 52.8768 68.9624 53.6852C68.5187 54.0762 68.1123 54.4045 67.8175 54.6345C67.6705 54.7492 67.5522 54.8386 67.4722 54.8984C67.4322 54.9283 67.4018 54.9506 67.3822 54.965C67.3724 54.9721 67.3653 54.9773 67.3611 54.9804C67.359 54.9819 67.3576 54.9829 67.3569 54.9834C67.3566 54.9836 67.3564 54.9837 67.3565 54.9837C67.3565 54.9837 67.3565 54.9837 67.3566 54.9836C67.3567 54.9835 67.3568 54.9835 67.3568 54.9834C67.357 54.9833 67.3571 54.9832 68.2329 56.201C69.1087 57.4188 69.1088 57.4187 69.109 57.4186C69.1091 57.4185 69.1093 57.4184 69.1094 57.4183C69.1097 57.4181 69.1101 57.4178 69.1105 57.4175C69.1112 57.417 69.1122 57.4163 69.1134 57.4154C69.1157 57.4137 69.1188 57.4115 69.1226 57.4087C69.1303 57.4032 69.1409 57.3955 69.1542 57.3857C69.1809 57.3662 69.2188 57.3383 69.2665 57.3026C69.362 57.2314 69.4974 57.1289 69.6629 56.9998C69.9932 56.7421 70.4474 56.3752 70.9458 55.936C71.9124 55.0842 73.1616 53.8605 73.9366 52.5767L71.3684 51.0262ZM69.2911 57.2641L73.7108 52.8646L71.5943 50.7384L67.1746 55.138L69.2911 57.2641ZM71.2697 52.1446C72.2006 53.3208 72.2012 53.3203 72.2018 53.3198C72.202 53.3197 72.2026 53.3192 72.2031 53.3188C72.204 53.3181 72.2049 53.3174 72.2059 53.3166C72.2079 53.315 72.21 53.3133 72.2124 53.3113C72.2172 53.3075 72.2228 53.303 72.2292 53.2977C72.242 53.2873 72.258 53.274 72.2768 53.258C72.3146 53.2261 72.3641 53.183 72.4232 53.129C72.5413 53.0212 72.699 52.8689 72.8786 52.6736C73.236 52.2851 73.692 51.7141 74.0947 50.9731C74.9133 49.467 75.5001 47.2664 74.6196 44.592L71.7701 45.5302C72.3417 47.2664 71.966 48.6075 71.4589 49.5405C71.1988 50.0191 70.9012 50.392 70.6708 50.6425C70.5565 50.7667 70.4617 50.8576 70.4007 50.9133C70.3704 50.941 70.3487 50.9596 70.3377 50.969C70.3322 50.9736 70.3294 50.976 70.3295 50.9759C70.3295 50.9758 70.3303 50.9752 70.3318 50.974C70.3326 50.9733 70.3336 50.9726 70.3347 50.9716C70.3353 50.9712 70.3359 50.9707 70.3366 50.9701C70.337 50.9699 70.3375 50.9694 70.3377 50.9693C70.3382 50.9689 70.3388 50.9684 71.2697 52.1446ZM74.6196 44.592C73.7493 41.9485 71.7755 40.1123 70.1562 38.9754C69.3325 38.3971 68.5615 37.9721 67.9945 37.6905C67.71 37.5492 67.4742 37.4427 67.3054 37.3699C67.221 37.3335 67.1531 37.3054 67.104 37.2856C67.0794 37.2757 67.0596 37.2678 67.0447 37.262C67.0373 37.2591 67.0311 37.2566 67.0261 37.2547C67.0237 37.2538 67.0215 37.253 67.0197 37.2523C67.0188 37.2519 67.018 37.2516 67.0172 37.2513C67.0169 37.2512 67.0164 37.251 67.0162 37.2509C67.0157 37.2507 67.0152 37.2506 66.4827 38.6528C65.9501 40.0551 65.9497 40.055 65.9493 40.0548C65.9492 40.0548 65.9488 40.0546 65.9486 40.0545C65.9482 40.0544 65.9478 40.0542 65.9475 40.0541C65.947 40.0539 65.9468 40.0538 65.9468 40.0539C65.947 40.0539 65.9483 40.0544 65.9509 40.0554C65.956 40.0574 65.9659 40.0613 65.9802 40.0671C66.0089 40.0787 66.0554 40.0979 66.1176 40.1247C66.2422 40.1784 66.4287 40.2624 66.66 40.3773C67.1246 40.6081 67.7594 40.9582 68.4323 41.4306C69.8061 42.3952 71.1883 43.7632 71.7701 45.5302L74.6196 44.592ZM66.4827 38.6528C65.1985 37.8776 65.1983 37.8781 65.198 37.8786C65.1978 37.8787 65.1975 37.8793 65.1973 37.8796C65.1969 37.8804 65.1964 37.8811 65.1959 37.882C65.1949 37.8837 65.1937 37.8856 65.1925 37.8877C65.19 37.8919 65.1869 37.897 65.1834 37.903C65.1764 37.9149 65.1675 37.9302 65.1569 37.9489C65.1356 37.9861 65.1073 38.0368 65.0733 38.1001C65.0054 38.2268 64.9144 38.4046 64.8111 38.6283C64.605 39.0745 64.3469 39.7092 64.1253 40.4875C63.684 42.0371 63.3718 44.2139 63.9626 46.6149L66.8757 45.8981C66.4452 44.1487 66.6647 42.5236 67.0106 41.309C67.1825 40.7053 67.3817 40.2172 67.5346 39.8863C67.6108 39.7213 67.6747 39.597 67.7168 39.5185C67.7379 39.4793 67.7534 39.4517 67.7621 39.4364C67.7665 39.4288 67.7692 39.4242 67.77 39.4228C67.7704 39.4221 67.7704 39.4221 67.7698 39.423C67.7696 39.4235 67.7692 39.4241 67.7687 39.425C67.7684 39.4254 67.7681 39.4259 67.7678 39.4264C67.7677 39.4266 67.7674 39.4271 67.7673 39.4272C67.7671 39.4276 67.7668 39.4281 66.4827 38.6528ZM63.9626 46.6149C64.5944 49.1827 66.3785 50.923 67.8557 51.9777C68.6069 52.5141 69.3186 52.9023 69.8436 53.1574C70.1073 53.2855 70.327 53.3816 70.4853 53.4473C70.5646 53.4802 70.6286 53.5055 70.6754 53.5236C70.6988 53.5326 70.7178 53.5398 70.7323 53.5452C70.7396 53.5479 70.7457 53.5501 70.7506 53.5519C70.7531 53.5528 70.7553 53.5536 70.7571 53.5543C70.7581 53.5547 70.7589 53.555 70.7597 53.5553C70.7601 53.5554 70.7607 53.5556 70.7608 53.5557C70.7614 53.5558 70.7619 53.556 71.2697 52.1446C71.7775 50.7332 71.778 50.7334 71.7784 50.7335C71.7786 50.7336 71.779 50.7337 71.7792 50.7338C71.7797 50.734 71.7801 50.7341 71.7805 50.7343C71.7812 50.7345 71.7816 50.7347 71.7818 50.7347C71.782 50.7348 71.7812 50.7345 71.7793 50.7338C71.7754 50.7324 71.7673 50.7293 71.755 50.7246C71.7306 50.7151 71.6899 50.6991 71.6351 50.6764C71.5252 50.6308 71.3598 50.5587 71.1547 50.4591C70.7423 50.2587 70.1828 49.9531 69.599 49.5362C68.4063 48.6846 67.2651 47.4808 66.8757 45.8981L63.9626 46.6149ZM73.1737 50.9382C74.6481 51.2141 74.648 51.2149 74.6479 51.2156C74.6478 51.2158 74.6477 51.2164 74.6476 51.2169C74.6474 51.2177 74.6473 51.2185 74.6472 51.2192C74.6469 51.2207 74.6466 51.2219 74.6464 51.2229C74.6461 51.2248 74.6459 51.2258 74.6459 51.2259C74.6458 51.226 74.6466 51.2224 74.6481 51.2154C74.6513 51.2013 74.6577 51.1734 74.6681 51.1336C74.6889 51.0538 74.7252 50.9275 74.7819 50.7686C74.8962 50.448 75.0876 50.011 75.39 49.5579C75.9795 48.6746 76.9912 47.7175 78.7939 47.4147L78.2969 44.4561C75.5202 44.9226 73.8462 46.4668 72.8946 47.8926C72.4265 48.5941 72.1336 49.2636 71.9562 49.7608C71.8671 50.0108 71.8057 50.2212 71.7653 50.3759C71.7451 50.4534 71.7301 50.5173 71.7193 50.5655C71.714 50.5897 71.7097 50.61 71.7064 50.6262C71.7048 50.6343 71.7033 50.6413 71.7022 50.6474C71.7016 50.6504 71.7011 50.6531 71.7006 50.6556C71.7003 50.6568 71.7001 50.658 71.6999 50.6591C71.6998 50.6597 71.6997 50.6604 71.6996 50.6607C71.6995 50.6615 71.6993 50.6622 73.1737 50.9382ZM78.7939 47.4147C80.6285 47.1065 82.4828 47.6925 83.9762 48.459C84.7077 48.8344 85.3131 49.233 85.7337 49.5367C85.9432 49.6879 86.1044 49.8138 86.2099 49.899C86.2626 49.9416 86.3012 49.9738 86.3249 49.9938C86.3367 50.0038 86.3447 50.0107 86.3488 50.0143C86.3509 50.0161 86.352 50.0171 86.3521 50.0172C86.3522 50.0172 86.352 50.017 86.3516 50.0167C86.3513 50.0165 86.3511 50.0162 86.3507 50.0159C86.3505 50.0158 86.3502 50.0155 86.3502 50.0154C86.3498 50.0151 86.3495 50.0148 87.3424 48.8905C88.3352 47.7661 88.3348 47.7657 88.3345 47.7654C88.3343 47.7653 88.3339 47.7649 88.3336 47.7647C88.333 47.7641 88.3323 47.7635 88.3316 47.7629C88.3301 47.7616 88.3284 47.7601 88.3264 47.7584C88.3224 47.7549 88.3174 47.7505 88.3114 47.7453C88.2993 47.7348 88.2831 47.7209 88.2629 47.7038C88.2225 47.6696 88.166 47.6226 88.0945 47.5648C87.9514 47.4494 87.7474 47.2903 87.4898 47.1044C86.9765 46.7338 86.2413 46.2494 85.346 45.7899C83.5857 44.8865 81.0415 43.9951 78.2969 44.4561L78.7939 47.4147ZM87.3424 48.8905C86.0582 48.1152 86.0585 48.1147 86.0588 48.1143C86.0589 48.1142 86.0591 48.1137 86.0593 48.1135C86.0596 48.1129 86.0599 48.1125 86.0601 48.1121C86.0606 48.1112 86.061 48.1106 86.0613 48.1101C86.0618 48.1093 86.0619 48.1092 86.0615 48.1099C86.0606 48.1113 86.0578 48.1158 86.0531 48.1232C86.0436 48.1381 86.0264 48.1646 86.0015 48.2015C85.9517 48.2753 85.8714 48.3898 85.7609 48.534C85.5393 48.8235 85.2002 49.2271 84.746 49.6604C83.8322 50.5322 82.4964 51.4833 80.7478 51.9172L81.4703 54.8289C83.8702 54.2334 85.651 52.9433 86.8168 51.831C87.4024 51.2724 87.8438 50.7484 88.1426 50.3582C88.2924 50.1626 88.4075 49.9993 88.4879 49.8802C88.5281 49.8206 88.5597 49.772 88.5828 49.7358C88.5943 49.7177 88.6038 49.7026 88.611 49.6909C88.6147 49.685 88.6178 49.68 88.6204 49.6758C88.6216 49.6737 88.6228 49.6718 88.6238 49.6701C88.6243 49.6693 88.6248 49.6685 88.6252 49.6678C88.6255 49.6674 88.6258 49.6669 88.6259 49.6667C88.6262 49.6662 88.6265 49.6657 87.3424 48.8905ZM80.7478 51.9172C79.1659 52.3097 77.5692 51.8606 76.26 51.2017C75.6192 50.8793 75.0882 50.5265 74.7188 50.2549C74.5351 50.1198 74.3943 50.007 74.3028 49.931C74.2572 49.8931 74.224 49.8646 74.2043 49.8473C74.1944 49.8387 74.1879 49.8329 74.1848 49.8301C74.1833 49.8288 74.1826 49.8282 74.1829 49.8284C74.183 49.8285 74.1833 49.8288 74.1838 49.8293C74.1841 49.8295 74.1845 49.8298 74.1848 49.8302C74.185 49.8304 74.1854 49.8307 74.1855 49.8308C74.1858 49.8311 74.1862 49.8314 73.1737 50.9382C72.1613 52.0449 72.1617 52.0453 72.1621 52.0457C72.1622 52.0458 72.1626 52.0462 72.1629 52.0465C72.1636 52.047 72.1642 52.0477 72.165 52.0483C72.1664 52.0497 72.1682 52.0512 72.1701 52.053C72.174 52.0565 72.1788 52.0609 72.1846 52.066C72.1961 52.0763 72.2114 52.0899 72.2303 52.1064C72.268 52.1393 72.3203 52.1842 72.3863 52.239C72.5181 52.3485 72.7055 52.4982 72.9417 52.6719C73.412 53.0177 74.0869 53.4666 74.9114 53.8815C76.5328 54.6975 78.9038 55.4657 81.4703 54.8289L80.7478 51.9172ZM57.1498 57.8907L72.6321 67.2377L74.1826 64.6695L58.7003 55.3224L57.1498 57.8907ZM72.0374 65.3426L69.4182 71.2153L72.1581 72.4373L74.7773 66.5646L72.0374 65.3426ZM69.418 71.2159C69.1343 71.8525 68.9136 72.5154 68.7595 73.1945L71.6851 73.8583C71.7956 73.3714 71.9542 72.895 72.1583 72.4367L69.418 71.2159ZM68.7595 73.1945L66.6389 82.5401L69.5645 83.204L71.6851 73.8583L68.7595 73.1945ZM66.6388 82.5405C66.5144 83.0894 66.3296 83.6231 66.0877 84.1318L68.797 85.42C69.1338 84.7117 69.3913 83.9683 69.5646 83.2036L66.6388 82.5405ZM66.0878 84.1315L62.5972 91.4688L65.3062 92.7576L68.7969 85.4203L66.0878 84.1315ZM64.7269 90.8291L39.9553 75.8738L38.4048 78.442L63.1764 93.3973L64.7269 90.8291ZM40.3812 78.0564L45.2478 71.5509L42.8455 69.7539L37.979 76.2594L40.3812 78.0564ZM45.2477 71.551C45.5853 71.0998 45.9717 70.6874 46.3996 70.3215L44.45 68.0413C43.8538 68.5511 43.3157 69.1255 42.8456 69.7538L45.2477 71.551ZM46.3999 70.3213L53.6823 64.0919L51.7322 61.8122L44.4498 68.0415L46.3999 70.3213ZM53.6822 64.092C54.2114 63.6393 54.6952 63.1352 55.1265 62.5877L52.7698 60.7313C52.4593 61.1255 52.1117 61.4876 51.7322 61.8122L53.6822 64.092ZM55.1268 62.5872L59.1038 57.5342L56.7464 55.6788L52.7694 60.7318L55.1268 62.5872ZM52.9559 71.6036C52.4996 72.5317 52.1336 73.994 52.2974 75.5155C52.4677 77.0968 53.2278 78.8079 55.0837 79.9284L56.6343 77.3601C55.733 76.816 55.3709 76.0367 55.2802 75.1943C55.183 74.2919 55.4171 73.3971 55.6481 72.9272L52.9559 71.6036ZM55.0837 79.9284C56.9489 81.0544 58.796 80.9048 60.2588 80.3065C61.6644 79.7316 62.7499 78.7398 63.3622 78.0338L61.0957 76.0684C60.676 76.5523 59.9551 77.1894 59.1231 77.5298C58.3482 77.8467 57.5263 77.8987 56.6343 77.3601L55.0837 79.9284Z" fill="white"/>
</svg>
