<svg width="176" height="52" viewBox="0 0 176 52" fill="none" xmlns="http://www.w3.org/2000/svg">
<path d="M33.7156 18.6566C37.008 21.014 41.0414 22.401 45.3977 22.401V14.0047C44.5733 14.0049 43.7509 13.9187 42.9444 13.7476V20.3567C38.5884 20.3567 34.5556 18.9697 31.2622 16.6125V33.7469C31.2622 42.3185 24.3249 49.2666 15.7677 49.2666C12.5749 49.2666 9.60722 48.2997 7.14199 46.6416C9.95564 49.5231 13.8795 51.3107 18.2205 51.3107C26.7782 51.3107 33.7159 44.3626 33.7159 35.7907V18.6566H33.7156ZM36.742 10.1858C35.0594 8.34452 33.9546 5.96506 33.7156 3.33446V2.25452H31.3907C31.9759 5.598 33.9719 8.45448 36.742 10.1858ZM12.5544 40.064C11.6143 38.8294 11.1063 37.3191 11.1085 35.7662C11.1085 31.8459 14.2816 28.6673 18.1964 28.6673C18.926 28.6671 19.6512 28.779 20.3464 28.9999V20.416C19.5339 20.3044 18.7139 20.2571 17.8942 20.2744V26.9558C17.1984 26.7348 16.4728 26.6226 15.7431 26.6233C11.8283 26.6233 8.6554 29.8016 8.6554 33.7224C8.6554 36.4947 10.2414 38.8948 12.5544 40.064Z" fill="#FF004F"/>
<path d="M31.2622 16.6123C34.5556 18.9695 38.5884 20.3565 42.9444 20.3565V13.7474C40.5129 13.2287 38.3604 11.956 36.742 10.1858C33.9718 8.4543 31.9759 5.59783 31.3907 2.25452H25.2839V35.7904C25.2701 39.7 22.1024 42.8656 18.196 42.8656C15.8941 42.8656 13.849 41.7666 12.5539 40.0641C10.2411 38.8948 8.65504 36.4945 8.65504 33.7226C8.65504 29.8021 11.828 26.6235 15.7427 26.6235C16.4928 26.6235 17.2157 26.7404 17.8938 26.956V20.2746C9.48699 20.4486 2.72587 27.3288 2.72587 35.7906C2.72587 40.0146 4.40955 43.8439 7.14217 46.6418C9.60739 48.2997 12.575 49.2668 15.7679 49.2668C24.3252 49.2668 31.2624 42.3183 31.2624 33.7469V16.6123H31.2622Z" fill="#FEFEFE"/>
<path d="M42.9444 13.7474V11.9604C40.7518 11.9637 38.6023 11.3487 36.742 10.1856C38.3888 11.9914 40.5572 13.2366 42.9444 13.7474ZM31.3907 2.25454C31.3349 1.93501 31.292 1.61338 31.2622 1.29052V0.210571H22.8304V33.7468C22.8169 37.6559 19.6494 40.8215 15.7427 40.8215C14.5958 40.8215 13.5129 40.5488 12.5539 40.0643C13.849 41.7666 15.8941 42.8655 18.196 42.8655C22.102 42.8655 25.2702 39.7002 25.2839 35.7906V2.25454H31.3907ZM17.8942 20.2746V18.3722C17.1896 18.2757 16.4793 18.2273 15.7681 18.2277C7.21007 18.2275 0.27272 25.176 0.27272 33.7468C0.27272 39.1202 2.99922 43.8558 7.14235 46.6414C4.40972 43.8437 2.72605 40.0143 2.72605 35.7904C2.72605 27.3288 9.48699 20.4486 17.8942 20.2746Z" fill="#00F2EA"/>
<path d="M140.645 42.2403C146.768 42.2403 151.732 37.306 151.732 31.2199C151.732 25.1339 146.768 20.1987 140.645 20.1987H138.974C145.098 20.1987 150.062 25.1337 150.062 31.2199C150.062 37.306 145.098 42.2403 138.974 42.2403H140.645Z" fill="#FF004F"/>
<path d="M138.823 20.1987H137.153C131.03 20.1987 126.065 25.1337 126.065 31.2199C126.065 37.306 131.03 42.2403 137.153 42.2403H138.823C132.699 42.2403 127.735 37.306 127.735 31.2199C127.735 25.1339 132.699 20.1987 138.823 20.1987Z" fill="#00F2EA"/>
<path d="M54.5336 15.2175V20.8037H61.063V42.0894H67.595V20.9545H72.9101L74.7326 15.2177H54.5336V15.2175ZM107.993 15.2175V20.8037H114.522V42.0894H121.054V20.9545H126.369L128.192 15.2177H107.993V15.2175ZM75.9487 18.3876C75.9487 16.6372 77.3742 15.2175 79.1354 15.2175C80.8982 15.2175 82.3253 16.6372 82.3253 18.3876C82.3253 20.1381 80.8991 21.5578 79.1354 21.5578C77.3742 21.5569 75.9487 20.1381 75.9487 18.3876ZM75.9487 23.8229H82.3253V42.0894H75.9487V23.8229ZM85.0595 15.2175V42.0892H91.4386V35.1455L93.4131 33.3323L99.6391 42.2401H106.473L97.5116 29.2572L105.561 21.4061H97.816L91.4386 27.7464V15.2175H85.0595ZM153.857 15.2175V42.0892H160.237V35.1455L162.21 33.3323L168.438 42.2401H175.273L166.311 29.2572L174.361 21.4061H166.616L160.237 27.7464V15.2175H153.857Z" fill="#FEFEFE"/>
<path d="M138.974 42.2403C145.097 42.2403 150.062 37.306 150.062 31.2199C150.062 25.1339 145.097 20.1987 138.974 20.1987H138.823C132.699 20.1987 127.735 25.1337 127.735 31.2199C127.735 37.306 132.699 42.2403 138.823 42.2403H138.974ZM133.507 31.2199C133.507 28.2594 135.922 25.8614 138.9 25.8614C141.875 25.8614 144.29 28.2594 144.29 31.2199C144.29 34.1803 141.875 36.5798 138.9 36.5798C135.922 36.5793 133.507 34.1803 133.507 31.2199Z" fill="#FEFEFE"/>
</svg>
