<svg width="241" height="273" viewBox="0 0 241 273" fill="none" xmlns="http://www.w3.org/2000/svg">
<path d="M237.745 14.0907L240.186 10.7308L240.157 5.61068L237.473 1.30404L233.46 0L228.747 1.98632L225.328 5.63852L216.769 13.1913L203.515 23.4967L169.291 47.5677L128.961 73.782L46.4971 125.572L15.2258 146.108L3.49219 155.31L0.180666 159.665L0 162.917L2.31553 165.952L6.51576 166.906L11.2788 166.181L19.3348 163.671L41.2615 154.63L107.963 123.679L147.733 106.922L163.97 100.953L176.316 97.2513L185.829 95.6478L189.16 95.6666L191.728 96.2938L192.783 97.2338L193.391 99.8962L192.939 103.294L191.103 108.975L185.143 120.648L174.066 136.826L161.164 152.33L146.639 168.138L125.367 189.447L95.6006 217.951L91.1022 224.104L90.7281 228.184L93.1225 231.392L97.3412 232.552L100.64 232.314L117.943 227.984L154.539 217.474L172.788 212.955L185.049 210.647L195.107 209.385L202.195 209.275L206.044 209.887L206.892 210.41L207.468 212L207.612 228.577L209.464 237.857L211.89 244.363L217.018 253.845L221.186 259.513L227.334 266.159L232.781 270.815L236.045 272.708L239.013 270.549V268.067L230.105 260.132L224.501 254.024L220.875 248.447L217.874 242.14L216.023 235.975L215.211 228.42L216.422 210.426L215.131 207.12L213.416 204.796L211.241 203.333L207.594 202.267L202.23 202.072L181.607 204.862L153.784 210.688L106.328 222.26L101.594 223.027L102.154 222.248L113.484 210.223L153.813 169.682L173.581 147.462L183.469 134.622L191.021 123.288L197.254 111.222L199.628 103.244L199.832 98.7688L198.887 94.6457L196.456 91.5427L193.793 90.1632L189.512 89.2382L185.533 89.2918L172.546 91.9192L153.36 98.4306L130.702 107.366L33.5032 149.551L17.7333 155.473L13.4752 156.591L14.5684 155.565L25.4543 147.283L60.1517 123.986L167.394 56.2386L231.497 14.6254L233.798 15.3764L237.745 14.0907Z" fill="white" fill-opacity="0.15"/>
</svg>
