{
	"asset":{
		"version":"2.0",
		"generator":"Created using the official Cinema 4D glTF Exporter 1.000x284978"
	},
	"scenes":[{
		"nodes":[0]
	}],
	"nodes":[{
		"name":"ColorantRouge",
		"translation":[-0.008461493998765946,
		0.6642085313796997,
		-0.00530673423781991],
		"rotation":[0.0,
		0.0,
		0.0,
		-1.0],
		"scale":[1.0,
		1.0,
		1.0],
		"children":[1,
		3,
		6,
		9]
	},
	{
		"name":"Bouchon",
		"translation":[0.008461493998765946,
		3.0698745250701906,
		0.00530673423781991],
		"rotation":[0.0,
		0.0,
		0.0,
		-1.0],
		"scale":[1.100000023841858,
		1.100000023841858,
		1.100000023841858],
		"children":[2]
	},
	{
		"name":"Bouchon",
		"mesh":0
	},
	{
		"name":"LiquideBoole",
		"translation":[0.008461493998765946,
		-0.6642085313796997,
		0.00530673423781991],
		"rotation":[0.0,
		0.0,
		0.0,
		-1.0],
		"scale":[1.0,
		1.0,
		1.0],
		"children":[4,
		5]
	},
	{
		"name":"liquide",
		"translation":[0.00005699229586753063,
		0.0,
		-0.010077185928821564],
		"rotation":[0.0,
		0.0,
		0.0,
		-1.0],
		"scale":[1.0,
		1.0,
		1.0],
		"mesh":1
	},
	{
		"name":"liquideCube",
		"translation":[0.0,
		-0.7765648365020752,
		0.0],
		"rotation":[0.0,
		0.0,
		0.0,
		-1.0],
		"scale":[1.0,
		1.0,
		1.0],
		"mesh":2
	},
	{
		"name":"ColorantBase",
		"translation":[0.00851848628371954,
		-0.6642085313796997,
		0.00530673423781991],
		"rotation":[0.0,
		0.0,
		0.0,
		-1.0],
		"scale":[1.0,
		1.0,
		1.0],
		"children":[7,
		8]
	},
	{
		"name":"ColorantBase",
		"mesh":3
	},
	{
		"name":"ColorantBase-Mat",
		"mesh":4
	},
	{
		"name":"HelixBouchon",
		"translation":[-0.025441475212574006,
		-0.6642085313796997,
		-0.015920201316475869],
		"rotation":[0.0,
		0.0,
		0.0,
		-1.0],
		"scale":[1.0,
		1.0,
		1.0],
		"mesh":5
	}],
	"meshes":[{
		"name":"Bouchon",
		"primitives":[{
			"attributes":{
				"POSITION":1,
				"NORMAL":2,
				"TEXCOORD_0":3
			},
			"indices":0,
			"material":0
		}]
	},
	{
		"name":"liquide",
		"primitives":[{
			"attributes":{
				"POSITION":5,
				"NORMAL":6,
				"TEXCOORD_0":7
			},
			"indices":4,
			"material":1
		}]
	},
	{
		"name":"liquideCube",
		"primitives":[{
			"attributes":{
				"POSITION":9,
				"NORMAL":10,
				"TEXCOORD_0":11
			},
			"indices":8,
			"material":1
		}]
	},
	{
		"name":"ColorantBase",
		"primitives":[{
			"attributes":{
				"POSITION":13,
				"NORMAL":14,
				"TEXCOORD_0":15
			},
			"indices":12
		}]
	},
	{
		"name":"ColorantBase-Mat",
		"primitives":[{
			"attributes":{
				"POSITION":17,
				"NORMAL":18,
				"TEXCOORD_0":19
			},
			"indices":16,
			"material":2
		}]
	},
	{
		"name":"HelixBouchon",
		"primitives":[{
			"attributes":{
				"POSITION":21,
				"NORMAL":22,
				"TEXCOORD_0":23
			},
			"indices":20
		}]
	}],
	"accessors":[{
		"bufferView":0,
		"type":"SCALAR",
		"componentType":5123,
		"count":27000,
		"byteOffset":0,
		"min":[0],
		"max":[9793]
	},
	{
		"bufferView":1,
		"type":"VEC3",
		"componentType":5126,
		"count":9794,
		"byteOffset":0,
		"min":[-1.1250123977661133,
		-0.4000000059604645,
		-1.1250123977661133],
		"max":[1.1250123977661133,
		0.4449999928474426,
		1.1250123977661133]
	},
	{
		"bufferView":1,
		"type":"VEC3",
		"componentType":5126,
		"count":9794,
		"byteOffset":12,
		"min":[-0.9999452829360962,
		-1.0,
		-0.9999452829360962],
		"max":[0.9999452829360962,
		1.0,
		1.0]
	},
	{
		"bufferView":1,
		"type":"VEC2",
		"componentType":5126,
		"count":9794,
		"byteOffset":24,
		"min":[-0.005485262721776962,
		-0.005485262721776962],
		"max":[1.0054852962493897,
		1.0054852962493897]
	},
	{
		"bufferView":2,
		"type":"SCALAR",
		"componentType":5123,
		"count":480,
		"byteOffset":0,
		"min":[0],
		"max":[289]
	},
	{
		"bufferView":3,
		"type":"VEC3",
		"componentType":5126,
		"count":290,
		"byteOffset":0,
		"min":[-2.4004154205322267,
		0.30000001192092898,
		-2.4004154205322267],
		"max":[2.4004154205322267,
		1.7234351634979249,
		2.4004154205322267]
	},
	{
		"bufferView":3,
		"type":"VEC3",
		"componentType":5126,
		"count":290,
		"byteOffset":12,
		"min":[-0.9994615316390991,
		0.00029167544562369585,
		-0.9994615316390991],
		"max":[0.9994615316390991,
		1.0,
		0.9994615316390991]
	},
	{
		"bufferView":3,
		"type":"VEC2",
		"componentType":5126,
		"count":290,
		"byteOffset":24,
		"min":[0.7405446767807007,
		0.0],
		"max":[1.0,
		1.0]
	},
	{
		"bufferView":4,
		"type":"SCALAR",
		"componentType":5123,
		"count":90,
		"byteOffset":0,
		"min":[0],
		"max":[31]
	},
	{
		"bufferView":5,
		"type":"VEC3",
		"componentType":5126,
		"count":32,
		"byteOffset":0,
		"min":[-2.4003584384918215,
		2.5,
		-2.4104926586151125],
		"max":[2.400472402572632,
		2.5,
		2.390338182449341]
	},
	{
		"bufferView":5,
		"type":"VEC3",
		"componentType":5126,
		"count":32,
		"byteOffset":12,
		"min":[0.0,
		1.0,
		0.0],
		"max":[0.0,
		1.0,
		0.0]
	},
	{
		"bufferView":5,
		"type":"VEC2",
		"componentType":5126,
		"count":32,
		"byteOffset":24,
		"min":[0.18103483319282533,
		0.1858310103416443],
		"max":[0.8189802169799805,
		0.8115421533584595]
	},
	{
		"bufferView":6,
		"type":"SCALAR",
		"componentType":5123,
		"count":6144,
		"byteOffset":0,
		"min":[0],
		"max":[2340]
	},
	{
		"bufferView":7,
		"type":"VEC3",
		"componentType":5126,
		"count":2341,
		"byteOffset":0,
		"min":[-2.5,
		0.0,
		-2.5],
		"max":[2.5,
		4.021879196166992,
		2.5]
	},
	{
		"bufferView":7,
		"type":"VEC3",
		"componentType":5126,
		"count":2341,
		"byteOffset":12,
		"min":[-1.0,
		-1.0,
		-1.0],
		"max":[1.0,
		1.0,
		1.0]
	},
	{
		"bufferView":7,
		"type":"VEC2",
		"componentType":5126,
		"count":2341,
		"byteOffset":24,
		"min":[0.0,
		0.0],
		"max":[1.0,
		1.0]
	},
	{
		"bufferView":8,
		"type":"SCALAR",
		"componentType":5123,
		"count":192,
		"byteOffset":0,
		"min":[0],
		"max":[65]
	},
	{
		"bufferView":9,
		"type":"VEC3",
		"componentType":5126,
		"count":66,
		"byteOffset":0,
		"min":[-2.5,
		0.0941547229886055,
		-2.5],
		"max":[2.5,
		2.3300487995147707,
		2.5]
	},
	{
		"bufferView":9,
		"type":"VEC3",
		"componentType":5126,
		"count":66,
		"byteOffset":12,
		"min":[-0.9999688267707825,
		0.0,
		-0.9999688267707825],
		"max":[0.9999688267707825,
		0.0,
		0.9999688267707825]
	},
	{
		"bufferView":9,
		"type":"VEC2",
		"componentType":5126,
		"count":66,
		"byteOffset":24,
		"min":[0.25887826085090639,
		-1.2619047164916993],
		"max":[0.48200470209121706,
		3.5]
	},
	{
		"bufferView":10,
		"type":"SCALAR",
		"componentType":5123,
		"count":2034,
		"byteOffset":0,
		"min":[0],
		"max":[691]
	},
	{
		"bufferView":11,
		"type":"VEC3",
		"componentType":5126,
		"count":692,
		"byteOffset":0,
		"min":[-1.1227059364318848,
		3.3029911518096926,
		-1.1318358182907105],
		"max":[1.126001238822937,
		3.967855930328369,
		1.1337347030639649]
	},
	{
		"bufferView":11,
		"type":"VEC3",
		"componentType":5126,
		"count":692,
		"byteOffset":12,
		"min":[-0.9993123412132263,
		-0.8770291805267334,
		-0.9998876452445984],
		"max":[0.9997092485427856,
		0.8808413743972778,
		0.9998302459716797]
	},
	{
		"bufferView":11,
		"type":"VEC2",
		"componentType":5126,
		"count":692,
		"byteOffset":24,
		"min":[0.0,
		0.0],
		"max":[1.0,
		1.0]
	}],
	"bufferViews":[{
		"buffer":0,
		"byteOffset":0,
		"byteLength":54000,
		"target":34963
	},
	{
		"buffer":0,
		"byteOffset":54000,
		"byteLength":313408,
		"target":34962,
		"byteStride":32
	},
	{
		"buffer":1,
		"byteOffset":0,
		"byteLength":960,
		"target":34963
	},
	{
		"buffer":1,
		"byteOffset":960,
		"byteLength":9280,
		"target":34962,
		"byteStride":32
	},
	{
		"buffer":2,
		"byteOffset":0,
		"byteLength":180,
		"target":34963
	},
	{
		"buffer":2,
		"byteOffset":180,
		"byteLength":1024,
		"target":34962,
		"byteStride":32
	},
	{
		"buffer":3,
		"byteOffset":0,
		"byteLength":12288,
		"target":34963
	},
	{
		"buffer":3,
		"byteOffset":12288,
		"byteLength":74912,
		"target":34962,
		"byteStride":32
	},
	{
		"buffer":4,
		"byteOffset":0,
		"byteLength":384,
		"target":34963
	},
	{
		"buffer":4,
		"byteOffset":384,
		"byteLength":2112,
		"target":34962,
		"byteStride":32
	},
	{
		"buffer":5,
		"byteOffset":0,
		"byteLength":4068,
		"target":34963
	},
	{
		"buffer":5,
		"byteOffset":4068,
		"byteLength":22144,
		"target":34962,
		"byteStride":32
	}],
	"buffers":[{
		"uri":"data:application/octet-stream;base64,",
		"byteLength":367408
	},
	{
		"uri":"data:application/octet-stream;base64,",
		"byteLength":10240
	},
	{
		"uri":"data:application/octet-stream;base64,",
		"byteLength":1204
	},
	{
		"uri":"data:application/octet-stream;base64,",
		"byteLength":87200
	},
	{
		"uri":"data:application/octet-stream;base64,",
		"byteLength":2496
	},
	{
		"uri":"data:application/octet-stream;base64,",
		"byteLength":26212
	}],
	"materials":[{
		"pbrMetallicRoughness":{
			"baseColorFactor":[0.8,
			0.15999999999999998,
			0.15999999999999998,
			1.0],
			"metallicFactor":1.0,
			"roughnessFactor":0.0
		},
		"emissiveFactor":[0.0,
		0.0,
		0.0],
		"alphaMode":"OPAQUE",
		"doubleSided":false,
		"name":"Plastic Green - Glossy"
	},
	{
		"pbrMetallicRoughness":{
			"baseColorFactor":[0.9,
			0.0,
			0.0,
			1.0],
			"metallicFactor":0.0,
			"roughnessFactor":0.5
		},
		"emissiveFactor":[0.0,
		0.0,
		0.0],
		"alphaMode":"OPAQUE",
		"doubleSided":false,
		"name":"Mat.1"
	},
	{
		"pbrMetallicRoughness":{
			"baseColorFactor":[0.8,
			0.8,
			0.8,
			1.0],
			"metallicFactor":0.0,
			"roughnessFactor":0.5
		},
		"emissiveFactor":[0.0,
		0.0,
		0.0],
		"alphaMode":"BLEND",
		"doubleSided":false,
		"name":"Mat"
	}]
}