{
	"nodes":[{
		"mesh":0,
		"name":"dome.1",
		"translation":[0.0,
		12.061531066894532,
		-4.440892098500626e-16],
		"rotation":[0.0,
		0.0,
		0.0,
		-1.0],
		"scale":[1.0,
		1.0,
		1.0]
	}],
	"asset":{
		"version":"2.0",
		"generator":"Created using the official Cinema 4D glTF Exporter 1.000x284978"
	},
	"scenes":[{
		"nodes":[0]
	}],
	"meshes":[{
		"name":"dome.1",
		"primitives":[{
			"attributes":{
				"POSITION":1,
				"NORMAL":2,
				"TEXCOORD_0":3
			},
			"indices":0,
			"material":0
		}]
	}],
	"accessors":[{
		"bufferView":0,
		"type":"SCALAR",
		"componentType":5123,
		"count":13380,
		"byteOffset":0,
		"min":[0],
		"max":[2444]
	},
	{
		"bufferView":1,
		"type":"VEC3",
		"componentType":5126,
		"count":2445,
		"byteOffset":0,
		"min":[-5.0,
		-6.25,
		-4.970726013183594],
		"max":[5.0,
		6.25,
		4.970726013183594]
	},
	{
		"bufferView":1,
		"type":"VEC3",
		"componentType":5126,
		"count":2445,
		"byteOffset":12,
		"min":[-0.9999840259552002,
		-1.0,
		-0.9973539113998413],
		"max":[0.9999840259552002,
		0.997387170791626,
		0.9998869299888611]
	},
	{
		"bufferView":1,
		"type":"VEC2",
		"componentType":5126,
		"count":2445,
		"byteOffset":24,
		"min":[0.0,
		0.0],
		"max":[1.0,
		1.0]
	}],
	"bufferViews":[{
		"buffer":0,
		"byteOffset":0,
		"byteLength":26760,
		"target":34963
	},
	{
		"buffer":0,
		"byteOffset":26760,
		"byteLength":78240,
		"target":34962,
		"byteStride":32
	}],
	"buffers":[{
		"uri":"data:application/octet-stream;base64,",
		"byteLength":105000
	}],
	"materials":[{
		"pbrMetallicRoughness":{
			"baseColorFactor":[0.8,
			0.8,
			0.8,
			1.0],
			"metallicFactor":0.0,
			"roughnessFactor":0.5
		},
		"emissiveFactor":[0.0,
		0.0,
		0.0],
		"alphaMode":"OPAQUE",
		"doubleSided":true,
		"name":"glass"
	}]
}