{
	"asset":{
		"version":"2.0",
		"generator":"Created using the official Cinema 4D glTF Exporter 1.000x284978"
	},
	"scenes":[{
		"nodes":[0]
	}],
	"nodes":[{
		"name":"Tubeessai",
		"translation":[0.0,
		-0.31345680356025698,
		0.0],
		"rotation":[0.0,
		0.0,
		0.0,
		-1.0],
		"scale":[1.0,
		1.0,
		1.0],
		"children":[1,
		2]
	},
	{
		"name":"tube",
		"translation":[0.0,
		-0.31345680356025698,
		0.0],
		"rotation":[0.0,
		0.0,
		0.0,
		-1.0],
		"scale":[1.0,
		1.0,
		1.0],
		"mesh":0
	},
	{
		"name":"LiquideBoole",
		"translation":[0.0,
		0.31345680356025698,
		0.0],
		"rotation":[0.0,
		0.0,
		0.0,
		-1.0],
		"scale":[1.0,
		1.0,
		1.0],
		"children":[3,
		4]
	},
	{
		"name":"Liquide",
		"translation":[0.0,
		-0.6269136071205139,
		0.0],
		"rotation":[0.0,
		0.0,
		0.0,
		-1.0],
		"scale":[1.0,
		1.0,
		1.0],
		"mesh":1
	},
	{
		"name":"LiquideCube",
		"translation":[0.0,
		1.4716156721115113,
		0.0],
		"rotation":[0.0,
		0.0,
		0.0,
		-1.0],
		"scale":[1.0,
		1.0,
		1.0],
		"mesh":2
	}],
	"meshes":[{
		"name":"tube",
		"primitives":[{
			"attributes":{
				"POSITION":1,
				"NORMAL":2
			},
			"indices":0
		}]
	},
	{
		"name":"Liquide",
		"primitives":[{
			"material":0,
			"attributes":{
				"POSITION":4,
				"NORMAL":5
			},
			"indices":3
		}]
	},
	{
		"name":"LiquideCube",
		"primitives":[{
			"material":0,
			"attributes":{
				"POSITION":7,
				"NORMAL":8,
				"TEXCOORD_0":9
			},
			"indices":6
		}]
	}],
	"accessors":[{
		"bufferView":0,
		"type":"SCALAR",
		"componentType":5123,
		"count":228096,
		"byteOffset":0,
		"min":[0],
		"max":[38783]
	},
	{
		"bufferView":1,
		"type":"VEC3",
		"componentType":5126,
		"count":38784,
		"byteOffset":0,
		"min":[-0.9897446036338806,
		0.0001461328356526792,
		-0.9897446036338806],
		"max":[0.9897446036338806,
		9.99985408782959,
		0.9897446036338806]
	},
	{
		"bufferView":1,
		"type":"VEC3",
		"componentType":5126,
		"count":38784,
		"byteOffset":12,
		"min":[-1.0,
		-1.0,
		-1.0],
		"max":[1.0,
		0.9999749064445496,
		1.0]
	},
	{
		"bufferView":2,
		"type":"SCALAR",
		"componentType":5123,
		"count":21312,
		"byteOffset":0,
		"min":[0],
		"max":[3767]
	},
	{
		"bufferView":3,
		"type":"VEC3",
		"componentType":5126,
		"count":3768,
		"byteOffset":0,
		"min":[-0.8785411715507507,
		0.09676400572061539,
		-0.8785411715507507],
		"max":[0.8785411715507507,
		4.59852933883667,
		0.8785411715507507]
	},
	{
		"bufferView":3,
		"type":"VEC3",
		"componentType":5126,
		"count":3768,
		"byteOffset":12,
		"min":[-0.9999793171882629,
		0.00642814114689827,
		-0.9999793171882629],
		"max":[0.9999793171882629,
		0.9584956169128418,
		0.9999793171882629]
	},
	{
		"bufferView":4,
		"type":"SCALAR",
		"componentType":5123,
		"count":282,
		"byteOffset":0,
		"min":[0],
		"max":[95]
	},
	{
		"bufferView":5,
		"type":"VEC3",
		"componentType":5126,
		"count":96,
		"byteOffset":0,
		"min":[-0.8785411715507507,
		2.5,
		-0.8785411715507507],
		"max":[0.8785411715507507,
		2.5,
		0.8785411715507507]
	},
	{
		"bufferView":5,
		"type":"VEC3",
		"componentType":5126,
		"count":96,
		"byteOffset":12,
		"min":[0.0,
		1.0,
		0.0],
		"max":[0.0,
		1.0,
		0.0]
	},
	{
		"bufferView":5,
		"type":"VEC2",
		"componentType":5126,
		"count":96,
		"byteOffset":24,
		"min":[0.32429176568984988,
		0.32429176568984988],
		"max":[0.6757081747055054,
		0.6757081747055054]
	},
	{
		"bufferView":6,
		"type":"SCALAR",
		"componentType":5126,
		"count":91,
		"byteOffset":0,
		"min":[0.0],
		"max":[3.0]
	},
	{
		"bufferView":6,
		"type":"VEC3",
		"componentType":5126,
		"count":91,
		"byteOffset":364,
		"min":[0.0,
		-4.059864044189453,
		0.0],
		"max":[0.0,
		1.940136194229126,
		0.0]
	}],
	"bufferViews":[{
		"buffer":0,
		"byteOffset":0,
		"byteLength":456192,
		"target":34963
	},
	{
		"buffer":0,
		"byteOffset":456192,
		"byteLength":930816,
		"target":34962,
		"byteStride":24
	},
	{
		"buffer":1,
		"byteOffset":0,
		"byteLength":42624,
		"target":34963
	},
	{
		"buffer":1,
		"byteOffset":42624,
		"byteLength":90432,
		"target":34962,
		"byteStride":24
	},
	{
		"buffer":2,
		"byteOffset":0,
		"byteLength":564,
		"target":34963
	},
	{
		"buffer":2,
		"byteOffset":564,
		"byteLength":3072,
		"target":34962,
		"byteStride":32
	},
	{
		"buffer":3,
		"byteOffset":0,
		"byteLength":1456
	}],
	"buffers":[{
		"uri":"data:application/octet-stream;base64,",
		"byteLength":1387008
	},
	{
		"uri":"data:application/octet-stream;base64,",
		"byteLength":133056
	},
	{
		"uri":"data:application/octet-stream;base64,",
		"byteLength":3636
	},
	{
		"uri":"data:application/octet-stream;base64,",
		"byteLength":1456
	}],
	"materials":[{
		"pbrMetallicRoughness":{
			"baseColorFactor":[0.05999999999999979,
			0.0,
			0.9,
			1.0],
			"metallicFactor":0.0,
			"roughnessFactor":0.5
		},
		"emissiveFactor":[0.0,
		0.0,
		0.0],
		"alphaMode":"OPAQUE",
		"doubleSided":false,
		"name":"Mat.4"
	}],
	"animations":[{
		"samplers":[{
			"input":10,
			"interpolation":"LINEAR",
			"output":11
		}],
		"channels":[{
			"sampler":0,
			"target":{
				"node":4,
				"path":"translation"
			}
		}]
	}]
}