{
	"meshes":[{
		"name":"bouchon",
		"primitives":[{
			"attributes":{
				"POSITION":1,
				"NORMAL":2,
				"TEXCOORD_0":3
			},
			"indices":0
		}]
	},
	{
		"name":"tube",
		"primitives":[{
			"attributes":{
				"POSITION":5,
				"NORMAL":6,
				"TEXCOORD_0":7
			},
			"indices":4
		}]
	}],
	"asset":{
		"version":"2.0",
		"generator":"Created using the official Cinema 4D glTF Exporter 1.000x284978"
	},
	"scenes":[{
		"nodes":[0,
		1]
	}],
	"accessors":[{
		"bufferView":0,
		"type":"SCALAR",
		"componentType":5123,
		"count":4440,
		"byteOffset":0,
		"min":[0],
		"max":[1463]
	},
	{
		"bufferView":1,
		"type":"VEC3",
		"componentType":5126,
		"count":1464,
		"byteOffset":0,
		"min":[-1.2295846939086915,
		-0.5,
		-1.2295846939086915],
		"max":[1.2295846939086915,
		0.5336747169494629,
		1.2295846939086915]
	},
	{
		"bufferView":1,
		"type":"VEC3",
		"componentType":5126,
		"count":1464,
		"byteOffset":12,
		"min":[-1.0,
		-1.0,
		-1.0],
		"max":[1.0,
		1.0,
		1.0]
	},
	{
		"bufferView":1,
		"type":"VEC2",
		"componentType":5126,
		"count":1464,
		"byteOffset":24,
		"min":[-100000.0,
		-100000.0],
		"max":[100000.0,
		1.0124833583831788]
	},
	{
		"bufferView":2,
		"type":"SCALAR",
		"componentType":5123,
		"count":14256,
		"byteOffset":0,
		"min":[0],
		"max":[2750]
	},
	{
		"bufferView":3,
		"type":"VEC3",
		"componentType":5126,
		"count":2751,
		"byteOffset":0,
		"min":[-1.000527262687683,
		0.0,
		-1.000527262687683],
		"max":[1.000527262687683,
		10.0,
		1.000527262687683]
	},
	{
		"bufferView":3,
		"type":"VEC3",
		"componentType":5126,
		"count":2751,
		"byteOffset":12,
		"min":[-1.0,
		-0.9999942183494568,
		-0.9999932646751404],
		"max":[0.9999932646751404,
		0.9999709725379944,
		0.9999932646751404]
	},
	{
		"bufferView":3,
		"type":"VEC2",
		"componentType":5126,
		"count":2751,
		"byteOffset":24,
		"min":[0.0,
		0.0],
		"max":[1.0,
		1.0]
	}],
	"nodes":[{
		"name":"bouchon",
		"translation":[0.0,
		9.010333061218262,
		0.0],
		"rotation":[0.0,
		0.0,
		0.0,
		-1.0],
		"scale":[1.0,
		1.0,
		1.0],
		"mesh":0
	},
	{
		"name":"Tube",
		"children":[2]
	},
	{
		"name":"tube",
		"translation":[0.0,
		-0.6269136071205139,
		0.0],
		"rotation":[0.0,
		0.0,
		0.0,
		-1.0],
		"scale":[1.0,
		1.0,
		1.0],
		"mesh":1
	}],
	"bufferViews":[{
		"buffer":0,
		"byteOffset":0,
		"byteLength":8880,
		"target":34963
	},
	{
		"buffer":0,
		"byteOffset":8880,
		"byteLength":46848,
		"target":34962,
		"byteStride":32
	},
	{
		"buffer":1,
		"byteOffset":0,
		"byteLength":28512,
		"target":34963
	},
	{
		"buffer":1,
		"byteOffset":28512,
		"byteLength":88032,
		"target":34962,
		"byteStride":32
	}],
	"buffers":[{
		"uri":"data:application/octet-stream;base64,",
		"byteLength":55728
	},
	{
		"uri":"data:application/octet-stream;base64,",
		"byteLength":116544
	}]
}