{
	"nodes":[{
		"mesh":0,
		"name":"uranium rock",
		"translation":[-1.5,
		14.667534828186036,
		0.0],
		"rotation":[0.0,
		0.0,
		0.0,
		-1.0],
		"scale":[1.0,
		1.0,
		1.0]
	}],
	"asset":{
		"version":"2.0",
		"generator":"Created using the official Cinema 4D glTF Exporter 1.000x284978"
	},
	"scenes":[{
		"nodes":[0]
	}],
	"meshes":[{
		"name":"uranium rock",
		"primitives":[{
			"attributes":{
				"POSITION":1,
				"NORMAL":2,
				"TEXCOORD_0":3
			},
			"indices":0,
			"material":0
		}]
	}],
	"accessors":[{
		"bufferView":0,
		"type":"SCALAR",
		"componentType":5123,
		"count":60,
		"byteOffset":0,
		"min":[0],
		"max":[59]
	},
	{
		"bufferView":1,
		"type":"VEC3",
		"componentType":5126,
		"count":60,
		"byteOffset":0,
		"min":[-0.8506521582603455,
		-0.8506521582603455,
		-0.8506521582603455],
		"max":[0.8506521582603455,
		0.8506521582603455,
		0.8506521582603455]
	},
	{
		"bufferView":1,
		"type":"VEC3",
		"componentType":5126,
		"count":60,
		"byteOffset":12,
		"min":[-0.9341722726821899,
		-0.9341722726821899,
		-0.9341722726821899],
		"max":[0.9341722726821899,
		0.9341722726821899,
		0.9341722726821899]
	},
	{
		"bufferView":1,
		"type":"VEC2",
		"componentType":5126,
		"count":60,
		"byteOffset":24,
		"min":[0.0,
		0.0],
		"max":[1.0,
		0.8659999370574951]
	}],
	"bufferViews":[{
		"buffer":0,
		"byteOffset":0,
		"byteLength":120,
		"target":34963
	},
	{
		"buffer":0,
		"byteOffset":120,
		"byteLength":1920,
		"target":34962,
		"byteStride":32
	}],
	"buffers":[{
		"uri":"data:application/octet-stream;base64,",
		"byteLength":2040
	}],
	"materials":[{
		"pbrMetallicRoughness":{
			"baseColorFactor":[0.4693333333333334,
			0.8,
			0.15999999999999998,
			1.0],
			"metallicFactor":0.0,
			"roughnessFactor":0.5
		},
		"emissiveFactor":[0.4179999999999997,
		1.0,
		0.030000000000000028],
		"alphaMode":"OPAQUE",
		"doubleSided":true,
		"name":"Mat"
	}]
}