{
	"asset":{
		"version":"2.0",
		"generator":"Created using the official Cinema 4D glTF Exporter 1.000x284978"
	},
	"textures":[{
		"sampler":0,
		"source":0
	}],
	"scenes":[{
		"nodes":[0]
	}],
	"nodes":[{
		"name":"battery",
		"translation":[-3.824976326069398e-16,
		0.0,
		5.062325669769052e-8],
		"rotation":[1.2246468525851679e-16,
		1.0,
		-6.123234262925839e-17,
		6.123234262925839e-17],
		"scale":[1.0,
		1.0,
		1.0],
		"mesh":0
	}],
	"samplers":[{
		"magFilter":9729,
		"minFilter":9729,
		"wrapS":10497,
		"wrapT":10497
	}],
	"meshes":[{
		"name":"battery",
		"primitives":[{
			"attributes":{
				"POSITION":1,
				"NORMAL":2,
				"TEXCOORD_0":3
			},
			"indices":0,
			"material":0
		}]
	}],
	"accessors":[{
		"bufferView":0,
		"type":"SCALAR",
		"componentType":5123,
		"count":2136,
		"byteOffset":0,
		"min":[0],
		"max":[605]
	},
	{
		"bufferView":1,
		"type":"VEC3",
		"componentType":5126,
		"count":606,
		"byteOffset":0,
		"min":[-0.8999999761581421,
		4.440892098500626e-16,
		-0.9000000357627869],
		"max":[0.8999999761581421,
		6.316894054412842,
		0.9000000357627869]
	},
	{
		"bufferView":1,
		"type":"VEC3",
		"componentType":5126,
		"count":606,
		"byteOffset":12,
		"min":[-1.0,
		-1.0,
		-1.0],
		"max":[1.0,
		1.0,
		1.0]
	},
	{
		"bufferView":1,
		"type":"VEC2",
		"componentType":5126,
		"count":606,
		"byteOffset":24,
		"min":[0.0016710690688341857,
		0.0016710690688341857],
		"max":[0.8165184259414673,
		0.9950248003005981]
	}],
	"bufferViews":[{
		"buffer":0,
		"byteOffset":0,
		"byteLength":4272,
		"target":34963
	},
	{
		"buffer":0,
		"byteOffset":4272,
		"byteLength":19392,
		"target":34962,
		"byteStride":32
	}],
	"buffers":[{
		"uri":"data:application/octet-stream;base64,",
		"byteLength":23664
	}],
	"images":[{
		"uri":"data:image/jpeg;base64,"
	}],
	"materials":[{
		"pbrMetallicRoughness":{
			"baseColorTexture":{
				"index":0
			},
			"baseColorFactor":[0.8,
			0.8,
			0.8,
			1.0],
			"metallicFactor":0.0,
			"roughnessFactor":0.5
		},
		"emissiveFactor":[0.0,
		0.0,
		0.0],
		"alphaMode":"OPAQUE",
		"doubleSided":false,
		"name":"battery"
	}]
}