{
	"meshes":[{
		"name":"Pipette",
		"primitives":[{
			"attributes":{
				"POSITION":1,
				"NORMAL":2,
				"TEXCOORD_0":3
			},
			"indices":0
		}]
	}],
	"asset":{
		"version":"2.0",
		"generator":"Created using the official Cinema 4D glTF Exporter 1.000x284978"
	},
	"scenes":[{
		"nodes":[0]
	}],
	"accessors":[{
		"bufferView":0,
		"type":"SCALAR",
		"componentType":5123,
		"count":54912,
		"byteOffset":0,
		"min":[0],
		"max":[12570]
	},
	{
		"bufferView":1,
		"type":"VEC3",
		"componentType":5126,
		"count":12571,
		"byteOffset":0,
		"min":[-0.5050672888755798,
		-0.00011738573084585369,
		-0.5050672888755798],
		"max":[0.5050672888755798,
		11.50009536743164,
		0.5050672888755798]
	},
	{
		"bufferView":1,
		"type":"VEC3",
		"componentType":5126,
		"count":12571,
		"byteOffset":12,
		"min":[-1.0,
		-0.9998064041137695,
		-1.0],
		"max":[1.0,
		0.9999510645866394,
		1.0]
	},
	{
		"bufferView":1,
		"type":"VEC2",
		"componentType":5126,
		"count":12571,
		"byteOffset":24,
		"min":[0.0,
		0.0],
		"max":[1.0,
		1.0]
	}],
	"nodes":[{
		"name":"Pipette",
		"mesh":0
	}],
	"bufferViews":[{
		"buffer":0,
		"byteOffset":0,
		"byteLength":109824,
		"target":34963
	},
	{
		"buffer":0,
		"byteOffset":109824,
		"byteLength":402272,
		"target":34962,
		"byteStride":32
	}],
	"buffers":[{
		"uri":"data:application/octet-stream;base64,",
		"byteLength":512096
	}]
}